<?xml version="1.0" encoding="UTF-8" standalone="no"?> <svg xmlns="http://www.w3.org/2000/svg" xmlns:xlink="http://www.w3.org/1999/xlink" xmlns:serif="http://www.serif.com/" width="100%" height="100%" viewBox="0 0 2129 552" version="1.1" xml:space="preserve" style="fill-rule:evenodd;clip-rule:evenodd;stroke-miterlimit:10;"> <g transform="matrix(1,0,0,1,-79.6482,-182.292)"> <g transform="matrix(1,0,0,1,0,-37.71)"> <path d="M674.25,730.25C674.62,730.14 674.73,729.96 674.59,729.71C674.32,729.24 674.19,729 674.19,728.99C652.6,659.28 631.01,589.56 609.44,519.85C609.42,519.78 609.22,519.24 608.84,518.22C608.28,516.69 608,514.77 608,512.46L608,223.71C608,223.04 607.76,222.62 607.29,222.46" style="fill:none;fill-rule:nonzero;stroke:rgb(79,79,128);stroke-width:0.1px;"></path> </g> <g transform="matrix(0.000966962,-1,-1,-0.000966962,902.544,1162.2)"> <path d="M493.202,295.021L679.352,295.021C679.732,295.011 680.062,295.122 680.252,295.302C680.631,295.652 680.451,295.952 679.701,296.181C609.6,317.903 539.479,339.586 469.348,361.208" style="fill:none;fill-rule:nonzero;stroke:rgb(188,188,188);stroke-width:0.1px;"></path> </g> <g transform="matrix(-1,0.000534245,0.000534245,1,3078.05,-18.2422)"> <path d="M1539.19,371.49C1539.29,433.96 1539.3,496.44 1539.2,558.92C1539.2,561.27 1539.2,561.18 1539.19,558.67C1539.01,496.28 1539,433.88 1539.19,371.49C1539.19,371.15 1539.19,371.15 1539.19,371.49" style="fill:none;fill-rule:nonzero;stroke:rgb(0,0,98);stroke-width:0.1px;"></path> </g> <g transform="matrix(-1,0.000741247,0.000741247,1,2168.73,-16.3038)"> <path d="M1084.45,377.56C1084.67,436.02 1084.66,494.48 1084.45,552.94C1084.45,553.6 1084.45,377.56 1084.45,377.56C1084.45,376.9 1084.45,376.9 1084.45,377.56" style="fill:none;fill-rule:nonzero;stroke:rgb(217,217,217);stroke-width:0.1px;"></path> </g> <g transform="matrix(1,0,0,1,0,0.41)"> <path d="M674.25,692.13C674.62,692.02 674.73,691.84 674.59,691.59C674.32,691.12 674.19,690.88 674.19,690.87C652.6,621.16 631.01,551.44 609.44,481.73C609.42,481.66 609.22,481.12 608.84,480.1C608.28,478.57 608,476.65 608,474.34L608,185.59C608,184.92 607.76,184.5 607.29,184.34L607.76,182.57C608.01,181.64 608.28,181.65 608.59,182.62L784.76,731.97C785,732.72 784.75,732.95 784.01,732.68L674.25,692.13Z" style="fill:rgb(0,0,98);fill-rule:nonzero;"></path> </g> <g transform="matrix(1,0,0,1,0,3.18)"> <path d="M607.29,181.57C607.76,181.73 608,182.15 608,182.82L608,471.57C608,473.88 608.28,475.8 608.84,477.33C609.22,478.35 609.42,478.89 609.44,478.96C631.01,548.67 652.6,618.39 674.19,688.1C674.19,688.11 674.32,688.35 674.59,688.82C674.73,689.07 674.62,689.25 674.25,689.36L608,665.53L608.18,479.38C608.19,479 608.08,478.67 607.9,478.48C607.55,478.1 607.25,478.28 607.02,479.03C585.23,549.11 563.48,619.21 541.79,689.32L431.73,730.08C431.28,730.25 431.14,730.1 431.32,729.65C431.74,728.57 432.15,727.42 432.54,726.21C490.73,544.64 548.98,363.1 607.29,181.57Z" style="fill:rgb(56,56,87);fill-rule:nonzero;"></path> </g> <g transform="matrix(1,0,0,1,0,-482.02)"> <path d="M82.35,686.84C82.48,686.79 82.61,686.77 82.75,686.77L574.97,686.77C575.38,686.77 575.68,687.18 575.55,687.57L568.34,709.74C568.25,710.02 567.99,710.21 567.69,710.22C560.55,710.44 553.41,710.52 546.26,710.45C533.29,710.33 526.78,710.27 526.74,710.27C378.33,710.24 229.64,710.26 80.67,710.33C80.16,710.33 79.75,709.92 79.75,709.42L79.75,689.68C79.75,689.61 79.72,689.18 79.66,688.37C79.55,686.99 80.21,686.5 81.62,686.9C81.81,686.95 82.07,686.93 82.35,686.84Z" style="fill:rgb(0,0,98);fill-rule:nonzero;"></path> </g> <g transform="matrix(1,0,0,1,0,-481.72)"> <path d="M2194.73,710.03C1680.32,709.96 1165.65,709.94 650.73,709.97C650.39,709.97 650.09,709.76 649.99,709.44L642.71,687.25C642.63,687.01 642.8,686.76 643.06,686.74C645.29,686.56 648.18,686.47 651.75,686.47C1170.19,686.44 1688.85,686.46 2207.73,686.53C2208.02,686.53 2208.25,686.76 2208.25,687.05L2208.25,709.31C2208.25,709.7 2207.95,710.02 2207.56,710.05C2205.46,710.22 2203.32,710.28 2201.15,710.21C2197.14,710.09 2195,710.03 2194.73,710.03Z" style="fill:rgb(0,0,98);fill-rule:nonzero;"></path> </g> <g transform="matrix(1,0,0,1,0,-17.05)"> <path d="M1457.16,621.64C1441.79,608.27 1432.64,591.81 1429.7,572.25C1429.07,568.04 1428.75,561.39 1428.75,552.29L1428.75,370.8C1428.75,349.27 1436.39,330.58 1451.67,314.72C1464.38,301.53 1479.51,293.5 1497.07,290.62C1503.62,289.54 1510.26,289.25 1516.99,289.76C1537.3,291.27 1554.78,299.56 1569.44,314.61C1584.81,330.4 1592.52,349.38 1592.57,371.55C1592.69,434.05 1592.71,496.55 1592.64,559.05C1592.61,582.73 1584,602.75 1566.81,619.11C1552.92,632.33 1536.57,639.64 1517.75,641.05C1494.24,642.8 1474.05,636.33 1457.16,621.64M1538.55,370.01C1538.55,354.12 1525.67,341.24 1509.78,341.24L1508.32,341.24C1492.43,341.24 1479.55,354.12 1479.55,370.01L1479.55,559.37C1479.55,575.26 1492.43,588.14 1508.32,588.14L1509.78,588.14C1525.67,588.14 1538.55,575.26 1538.55,559.37L1538.55,370.01M1539.06,371.12C1538.99,433.59 1539.02,496.07 1539.15,558.55C1539.15,560.9 1539.15,560.81 1539.16,558.3C1539.31,495.91 1539.28,433.51 1539.06,371.12C1539.06,370.78 1539.06,370.78 1539.06,371.12Z" style="fill:rgb(0,0,98);fill-rule:nonzero;"></path> </g> <g transform="matrix(1,0,0,1,0,-17.06)"> <path d="M1893.05,346.12L1839.45,346C1839.06,346 1838.75,345.68 1838.75,345.29L1838.75,295.34C1838.75,294.91 1839.1,294.56 1839.53,294.56L1999.68,294.56C2000.13,294.56 2000.5,294.93 2000.5,295.38L2000.5,345.21C2000.5,345.68 2000.12,346.06 1999.65,346.06L1946.53,346.06C1946.07,346.06 1945.69,346.44 1945.69,346.9L1945.69,635.86C1945.69,636.66 1945.05,637.3 1944.25,637.31L1894.46,637.5C1894.07,637.5 1893.75,637.18 1893.75,636.79L1893.75,346.83C1893.75,346.44 1893.44,346.12 1893.05,346.12Z" style="fill:rgb(0,0,98);fill-rule:nonzero;"></path> </g> <g transform="matrix(1,0,0,1,0,-16.84)"> <path d="M214.93,457.34C214.65,457.48 214.65,457.62 214.94,457.75C222.92,461.36 229.5,466.07 234.69,471.9C244,482.36 250.29,494.82 253.56,509.28C255.95,519.82 257.19,530.09 257.29,540.1C257.36,546.97 257,553.62 256.23,560.06C254.77,572.19 251.44,583.62 246.25,594.34C240.7,605.8 232.43,615.28 221.44,622.78C212.2,629.08 202.45,633.37 192.2,635.65C187.93,636.6 182.09,637.12 174.68,637.19C144.2,637.5 113.73,637.46 83.26,637.09C83.12,637.09 83,636.97 83,636.82L83,294.9C83,294.59 83.25,294.34 83.56,294.34L153.75,294.34C163,294.34 169.66,294.59 173.71,295.1C187.12,296.78 199.77,301.07 211.64,307.98C224.99,315.75 234.88,326.76 241.31,341.03C244.95,349.09 247.47,357.25 248.87,365.52C250.72,376.51 251.18,387.78 250.25,399.34C249.4,409.82 246.83,419.67 242.53,428.89C236.6,441.62 227.4,451.11 214.93,457.34M183.54,355.31C178.85,351.03 173.52,348.37 167.57,347.33C165.86,347.03 161.14,346.81 153.42,346.67C148.7,346.58 143.98,346.56 139.25,346.59C138.97,346.59 138.75,346.81 138.75,347.09L138.75,433.87C138.75,434.13 138.96,434.34 139.22,434.34C146.66,434.41 154.17,434.37 161.75,434.23C170.32,434.08 177.45,431.33 183.16,425.98C186.26,423.08 188.86,419.32 190.97,414.69C192.91,410.42 194.23,405.97 194.92,401.32C195.61,396.75 195.85,391.76 195.64,386.34C195.45,381.31 194.69,376.33 193.36,371.42C191.63,365.09 188.36,359.72 183.54,355.31M185.31,491.53C178.78,486.11 171.01,483.4 162,483.39C154.39,483.39 146.79,483.35 139.2,483.28C138.95,483.27 138.75,483.47 138.75,483.72L138.81,585.28C138.81,585.55 139.04,585.77 139.31,585.76C144.24,585.63 151.56,585.57 161.25,585.59C168.22,585.6 174.5,583.89 180.08,580.46C185.13,577.35 189.4,572.79 192.89,566.78C196.94,559.83 199.31,552.1 200,543.59C201.03,531.01 199.64,518.94 195.84,507.39C193.69,500.86 190.18,495.57 185.31,491.53Z" style="fill:rgb(56,56,87);fill-rule:nonzero;"></path> </g> <g transform="matrix(1,0,0,1,0,-16.85)"> <path d="M386.94,507.91L353.93,508.03C353.66,508.03 353.44,508.25 353.44,508.53L353.25,636.47C353.25,636.82 352.98,637.1 352.63,637.11C336.15,637.48 319.3,637.5 302.07,637.15C301.75,637.14 301.5,636.89 301.5,636.57L301.5,294.85C301.5,294.57 301.72,294.35 302,294.35C329.83,294.35 357.67,294.36 385.5,294.39C396.86,294.4 407.92,296.22 418.67,299.83C434.5,305.14 446.17,314.67 453.69,328.41C459.34,338.74 462.72,350.14 463.84,362.61C464.07,365.25 464.26,371.91 464.4,382.6C464.57,396.6 464.63,410.6 464.58,424.6C464.49,449.65 455.3,470.48 437.01,487.09C436.82,487.26 436.75,487.52 436.81,487.77L457.34,567.72C457.63,568.86 457.6,569.99 457.23,571.12L436.28,636.3C436.12,636.78 435.68,637.1 435.18,637.1L419.76,637.1C419.36,637.1 419,636.82 418.91,636.43L387.56,508.4C387.49,508.11 387.23,507.9 386.94,507.91M404.96,353.92C399.66,349.75 393.59,347.64 386.75,347.59C375.72,347.5 364.7,347.57 353.68,347.78C353.41,347.79 353.19,348.01 353.19,348.29L353.19,455.66C353.19,455.94 353.41,456.17 353.69,456.18C362.98,456.43 372.28,456.47 381.57,456.28C387.45,456.15 391.83,455.56 394.71,454.5C398.99,452.92 402.75,450.37 406,446.85C409.93,442.6 412.39,437.79 413.36,432.43C413.61,431.02 413.74,425.8 413.75,416.75C413.76,403.36 413.81,389.98 413.89,376.6C413.91,372.6 413.28,368.52 412,364.35C410.67,360.04 408.33,356.57 404.96,353.92Z" style="fill:rgb(56,56,87);fill-rule:nonzero;"></path> </g> <g transform="matrix(1,0,0,1,0,-16.87)"> <path d="M873.44,522.24L873.56,294.94C873.56,294.66 873.79,294.43 874.07,294.43L924.93,294.43C925.21,294.43 925.44,294.65 925.44,294.93L925.5,636.75C925.5,636.95 925.34,637.12 925.14,637.12L870.79,637.36C870.22,637.36 869.71,636.99 869.53,636.44C846.3,565.21 823.1,493.79 799.94,422.18C799.58,421.08 799.35,420.25 799.25,419.68C799.17,419.24 799,419.13 798.74,419.36C798.56,419.52 798.47,419.77 798.47,420.12C798.49,492.2 798.5,564.42 798.5,636.78C798.5,636.96 798.35,637.11 798.17,637.12C788.37,637.48 778.57,637.5 768.78,637.18C768.41,637.17 768.1,636.93 767.99,636.59C761.67,616.9 755.36,597.25 749.05,577.66C747.9,574.1 747.23,570.83 747.06,567.85C746.85,564.25 746.75,559.67 746.75,554.12L746.75,295.06C746.75,294.68 747.06,294.37 747.44,294.37L804.2,294.37C804.73,294.37 805.21,294.72 805.36,295.23L872.88,522.32C873.25,523.56 873.44,523.53 873.44,522.24Z" style="fill:rgb(56,56,87);fill-rule:nonzero;"></path> </g> <g transform="matrix(1,0,0,1,0,-16.94)"> <path d="M972.46,637.24C972.17,637.24 971.94,637.01 971.94,636.72L972.06,295C972.06,294.72 972.28,294.5 972.55,294.5C1018.78,294.38 1046.52,294.36 1055.75,294.44C1073.02,294.59 1088.63,300.14 1102.6,311.08C1119.21,324.11 1129.41,340.68 1133.18,360.79C1134.05,365.42 1134.51,372.06 1134.55,380.69C1134.8,438.1 1134.9,495.52 1134.83,552.94C1134.8,581.8 1123.46,604.74 1100.81,621.75C1087.08,632.06 1071.48,637.28 1054,637.4C1027.06,637.58 999.88,637.53 972.46,637.24M1076.31,357.38C1070.41,351.18 1063.47,348.02 1055.5,347.91C1045,347.76 1034.5,347.69 1024,347.69C1023.72,347.69 1023.5,347.91 1023.5,348.19L1023.5,584.82C1023.5,585.3 1023.89,585.69 1024.37,585.69L1049.51,585.69C1056.05,585.69 1060.82,585.21 1063.83,584.24C1071.04,581.92 1076.63,577.18 1080.59,570.02C1082.72,566.19 1083.88,562.08 1084.07,557.69C1084.19,555 1084.25,551.09 1084.25,545.94C1084.25,492.69 1084.26,439.44 1084.29,386.19C1084.29,384.94 1084.19,381.6 1084,376.19C1083.73,368.76 1081.17,362.49 1076.31,357.38M1084.56,379C1084.39,437.46 1084.44,495.92 1084.69,554.38C1084.69,555.04 1084.56,379 1084.56,379C1084.56,378.34 1084.56,378.34 1084.56,379Z" style="fill:rgb(56,56,87);fill-rule:nonzero;"></path> </g> <g transform="matrix(1,0,0,1,0,-17.06)"> <path d="M1256.81,419.36L1257,635.99C1257,636.72 1256.41,637.31 1255.68,637.31L1206.17,637.5C1205.66,637.5 1205.25,637.09 1205.25,636.58L1205.25,295.37C1205.25,294.92 1205.61,294.56 1206.06,294.56L1262.94,294.62C1263.24,294.62 1263.5,294.81 1263.58,295.09L1331.17,522.27C1331.29,522.66 1331.51,522.95 1331.74,523.01C1332.01,523.08 1332.11,522.81 1332.06,522.22C1332.02,521.83 1332,521.55 1332,521.4C1332.09,446.05 1332.02,370.83 1331.81,295.73C1331.81,295.08 1332.33,294.56 1332.97,294.56L1383.25,294.56C1383.53,294.56 1383.75,294.78 1383.75,295.06L1383.75,636.89C1383.75,637.23 1383.48,637.5 1383.14,637.5L1329.29,637.5C1328.6,637.5 1327.99,637.06 1327.78,636.4C1304.33,564.18 1280.82,491.8 1257.24,419.27C1257.2,419.14 1257.13,419.08 1257.03,419.07C1256.91,419.06 1256.81,419.2 1256.81,419.36Z" style="fill:rgb(0,0,98);fill-rule:nonzero;"></path> </g> <g transform="matrix(1,0,0,1,0,-17.02)"> <path d="M1689.81,508.93L1689.99,636.12C1689.99,636.72 1689.52,637.22 1688.92,637.25C1685.04,637.44 1680.9,637.5 1676.5,637.42C1664.52,637.2 1652.08,637.18 1639.18,637.35C1638.67,637.36 1638.25,636.95 1638.25,636.44L1638.25,302.27C1638.25,300.07 1638.31,298.4 1638.44,297.27C1638.47,296.98 1638.42,296.65 1638.31,296.3C1637.9,295.11 1638.47,294.52 1640,294.52L1722.5,294.52C1731.97,294.52 1741.2,295.76 1750.19,298.23C1757.26,300.17 1763.39,302.72 1768.58,305.88C1777.24,311.14 1784.19,318.12 1789.44,326.83C1793.72,333.94 1796.82,342.08 1798.75,351.27C1800.46,359.44 1801.33,368.69 1801.36,379.02C1801.39,393.44 1801.32,407.86 1801.14,422.27C1801.03,430.92 1800.53,437.55 1799.62,442.17C1796.17,459.8 1787.61,474.83 1773.93,487.25C1773.7,487.46 1773.61,487.77 1773.68,488.07L1811.75,636.69C1811.82,636.95 1811.63,637.21 1811.36,637.21L1756.58,637.27C1756.16,637.27 1755.8,636.99 1755.7,636.58L1724.49,508.97C1724.35,508.42 1723.87,508.04 1723.31,508.03C1713.1,507.94 1703.33,508.05 1694,508.36C1692.98,508.39 1691.98,508.28 1690.99,508.02C1690.4,507.86 1689.81,508.31 1689.81,508.93M1741.56,353.71C1736.33,349.78 1730.31,347.81 1723.5,347.8C1712.83,347.78 1701.86,347.77 1690.59,347.77C1690.26,347.77 1690,348.03 1690,348.36L1689.94,455.93C1689.94,456.26 1690.2,456.52 1690.52,456.52C1700.43,456.52 1710.42,456.51 1720.5,456.49C1730.42,456.47 1738.36,452.75 1744.31,445.33C1746.54,442.56 1748.21,439.41 1749.32,435.9C1750.1,433.43 1750.51,429.96 1750.56,425.5C1750.72,409.09 1750.77,392.68 1750.71,376.27C1750.69,371.1 1749.65,366.16 1747.58,361.45C1746.18,358.25 1744.17,355.67 1741.56,353.71Z" style="fill:rgb(0,0,98);fill-rule:nonzero;"></path> </g> <g transform="matrix(1,0,0,1,0,-17.18)"> <path d="M2155.77,439.2C2155.66,438.97 2155.6,438.55 2155.6,437.93C2155.7,390.6 2155.75,343.08 2155.75,295.37C2155.75,294.99 2156.06,294.68 2156.44,294.68L2207.29,294.68C2207.58,294.68 2207.81,294.91 2207.81,295.2L2207.81,636.61C2207.81,637.06 2207.45,637.43 2207,637.43L2156.27,637.43C2155.98,637.43 2155.75,637.2 2155.75,636.91L2155.75,492.26C2155.75,491.97 2155.52,491.74 2155.23,491.74C2135.06,492.07 2114.88,492.05 2094.69,491.68C2094.15,491.67 2093.72,492.13 2093.75,492.67C2094.01,497.26 2094.14,501.84 2094.13,506.43C2094.04,549.68 2094,592.98 2094,636.34C2094,636.94 2093.51,637.43 2092.91,637.43L2042.66,637.5C2042.16,637.5 2041.75,637.09 2041.75,636.59L2041.81,295.76C2041.81,295.16 2042.29,294.68 2042.89,294.68L2093.08,294.68C2093.59,294.68 2094,295.09 2094,295.6L2093.81,439.51C2093.81,440.02 2094.22,440.43 2094.73,440.43L2155,440.43C2155.63,440.43 2156.05,439.77 2155.77,439.2Z" style="fill:rgb(0,0,98);fill-rule:nonzero;"></path> </g> <g transform="matrix(-1,0.000480179,0.000480179,1,3078.08,-18.159)"> <path d="M1539.19,371.49C1539,433.88 1539,496.28 1539.18,558.67C1539.2,561.18 1539.2,561.27 1539.19,558.92C1539.3,496.44 1539.3,433.96 1539.19,371.49C1539.19,371.15 1539.19,371.15 1539.19,371.49Z" style="fill:rgb(0,0,98);fill-rule:nonzero;"></path> </g> <g transform="matrix(0.000741247,1,1,-0.000741247,618.486,-634.445)"> <path d="M996.85,465.335C996.85,465.335 1172.89,465.335 1172.23,465.335C1113.77,465.128 1055.31,465.122 996.85,465.335C996.19,465.335 996.19,465.335 996.85,465.335Z" style="fill:rgb(217,217,217);fill-rule:nonzero;"></path> </g> <g transform="matrix(1,0,0,1,0,258.78)"> <path d="M608,409.93L541.79,433.72C563.48,363.61 585.23,293.51 607.02,223.43C607.25,222.68 607.55,222.5 607.9,222.88C608.08,223.07 608.19,223.4 608.18,223.78L608,409.93Z" style="fill:rgb(217,217,217);fill-rule:nonzero;"></path> </g> <g transform="matrix(1,0,0,1,0,451.19)"> <path d="M416.21,243.62C310.2,243.93 204.52,244.01 99.19,243.85C92.96,243.84 86.78,243.83 80.66,243.81C80.16,243.81 79.75,243.4 79.75,242.9L79.75,220.55C79.75,220.25 80,220 80.31,220C188.29,220.07 296.1,220.14 403.75,220.19C410.42,220.2 417.03,220.07 423.59,219.82C423.99,219.8 424.29,220.19 424.16,220.58L416.78,243.2C416.7,243.45 416.47,243.62 416.21,243.62Z" style="fill:rgb(0,0,98);fill-rule:nonzero;"></path> </g> <g transform="matrix(1,0,0,1,0,451.38)"> <path d="M802.18,243.43C801.88,243.43 801.62,243.24 801.53,242.96L794.25,220.61C794.13,220.24 794.4,219.87 794.78,219.87L2207.33,219.87C2207.84,219.87 2208.25,220.28 2208.25,220.79L2208.25,242.62C2208.25,243.17 2207.8,243.62 2207.25,243.62C1824.16,243.62 1441.41,243.66 1059,243.74C973.39,243.75 887.79,243.65 802.18,243.43Z" style="fill:rgb(0,0,98);fill-rule:nonzero;"></path> </g> </g> </svg> 