<?xml version="1.0" encoding="UTF-8"?> <svg xmlns="http://www.w3.org/2000/svg" fill="none" height="512" viewBox="0 0 128 128" width="512"><g clip-rule="evenodd" fill="currentColor" fill-rule="evenodd"><path d="m41.5078 8.10449c-1.1046 0-2 .89543-2 2.00001v11.085l-1.7233 22.5385c-.1294 1.6917-.9689 3.2495-2.3107 4.2878l-6.4895 5.0216c-4.4054 3.409-6.9843 8.6654-6.9843 14.2357v47.1479c0 3.313 2.6863 6 6 6h31.0962c1.1046 0 2-.896 2-2 0-1.105-.8954-2-2-2h-31.0962c-1.1046 0-2-.896-2-2v-8.03h26.4885c1.1046 0 2-.895 2-2v-30.7699c0-1.1046-.8954-2-2-2h-26.4885v-4.348c0-4.3324 2.0058-8.4208 5.4323-11.0722l6.4894-5.0216c2.2364-1.7305 3.6356-4.3269 3.8511-7.1463l1.5879-20.7671h15.3097l1.5879 20.7671c.2156 2.8194 1.6147 5.4158 3.8511 7.1463l6.4894 5.0216c3.4265 2.6514 5.4323 6.7398 5.4323 11.0722v1.4688c0 1.1046.8954 2 2 2s2-.8954 2-2v-1.4688c0-5.5703-2.5789-10.8267-6.9843-14.2357l-6.4895-5.0216c-1.3418-1.0383-2.1813-2.5961-2.3107-4.2878l-1.7233-22.5385v-11.085c0-1.10458-.8954-2.00001-2-2.00001zm-15.5078 67.51661v26.7699h24.4885v-26.7699zm32.5233-63.5166v7.1614h-15.0155v-7.1614z"></path><path d="m63.8149 75.8682c0-1.1046.8955-2 2-2h41.2001c1.105 0 2 .8954 2 2v38.5528c0 3.313-2.686 6-6 6h-33.2001c-3.3137 0-6-2.687-6-6zm4 30.3368v8.216c0 1.104.8955 2 2 2h33.2001c1.105 0 2-.896 2-2v-8.216c-1.671 1.255-3.748 1.999-5.9996 1.999h-25.2005c-2.2512 0-4.3286-.744-6-1.999zm37.2001-8.0009c0 3.3139-2.686 5.9999-5.9996 5.9999h-25.2005c-3.3137 0-6-2.686-6-5.9999v-20.3359h37.2001z"></path></g></svg> 