<?xml version="1.0" encoding="UTF-8"?> <svg xmlns="http://www.w3.org/2000/svg" fill="none" height="512" viewBox="0 0 128 128" width="512"><g fill="rgb(0,0,0)"><path d="m43.2488 76.948c-6.2462.324-12.0266 1.4373-15.3965 2.3512-1.066.2891-2.1646-.3407-2.4537-1.4068s.3407-2.1646 1.4068-2.4537c3.624-.9828 9.6859-2.1455 16.2362-2.4853 6.5118-.3378 13.7428.1235 19.5587 2.5723 1.018.4286 1.4958 1.6014 1.0672 2.6194-.4287 1.018-1.6014 1.4958-2.6194 1.0671-4.995-2.1032-11.5147-2.5902-17.7993-2.2642z"></path><path clip-rule="evenodd" d="m52.8119 57.9257c-2.0941-5.4554-3.1974-10.606-3.2931-14.8867-.1045-4.6756 1.0009-9.0688 4.2885-11.029l17.5326-10.453c2.4008-1.4314 5.2753-1.2559 8.0771-.2592 2.8173 1.0022 5.8606 2.9285 8.9445 5.5072 6.1828 5.17 12.8805 13.2597 18.7025 23.025 5.822 9.7652 9.754 19.5041 11.362 27.4015.802 3.9391 1.05 7.5324.592 10.4873-.456 2.9387-1.668 5.5509-4.069 6.9823l-17.5327 10.4529c-2.5993 1.55-5.7471 1.219-8.7865-.011-2.7083-1.095-5.6219-3.01-8.5838-5.5312-.415.5472-.8849 1.0692-1.3987 1.5642-2.0083 1.935-4.809 3.584-8.1059 4.927-6.604 2.691-15.5893 4.309-25.4117 4.309s-18.8078-1.618-25.4117-4.309c-3.2969-1.343-6.0976-2.992-8.1059-4.927-2.01382-1.9395-3.35282-4.2951-3.35282-6.9699v-20.4122c0-2.6748 1.339-5.0304 3.35282-6.9701 2.0083-1.9343 4.809-3.584 8.1059-4.9272 6.6039-2.6904 15.5893-4.3086 25.4117-4.3086 2.6306 0 5.2013.1161 7.6822.3377zm29.0148 37.9338c3.0689 2.7267 5.9031 4.6055 8.3031 5.5755 2.5125 1.017 4.1893.909 5.2381.283.9687-.577 1.8033-1.8293 2.1643-4.1588.3585-2.3132.192-5.3918-.5583-9.0765-1.4966-7.3503-5.2235-16.6671-10.8781-26.1513-5.6545-9.4842-12.0784-17.193-17.8328-22.0048-2.8847-2.4121-5.5138-4.0225-7.7193-4.8071-2.2209-.79-3.7193-.6513-4.688-.0738-1.2937.7713-2.4365 3.0926-2.3379 7.504.0937 4.1939 1.322 9.6197 3.8245 15.5115 4.9744.737 9.467 1.915 13.1991 3.4354 3.2969 1.3432 6.0976 2.9929 8.1059 4.9272 2.0138 1.9397 3.3528 4.2953 3.3528 6.9701v20.4122c0 .5657-.0599 1.1171-.1734 1.6534zm-10.9978-58.6014c-3.0455-2.5467-6.0515-4.457-8.8393-5.4694l11.3987-6.796c.9687-.5776 2.4671-.7163 4.6881.0738 2.2054.7845 4.8345 2.3949 7.7192 4.8071 5.7544 4.8118 12.1783 12.5206 17.8324 22.0048 5.655 9.4842 9.382 18.8009 10.879 26.1512.75 3.6847.916 6.7634.558 9.0766-.361 2.3294-1.196 3.5816-2.164 4.1592l-11.399 6.796c.435-2.9339.184-6.4867-.608-10.3768-1.6086-7.8975-5.5404-17.6363-11.3625-27.4016-5.8221-9.7652-12.5198-17.855-18.7026-23.0249zm-56.4419 32.4467c-1.5152 1.4595-2.1277 2.841-2.1277 4.0891s.6125 2.6297 2.1277 4.0891c1.5209 1.4649 3.8268 2.8762 6.8402 4.1038 6.0166 2.4512 14.4665 4.0131 23.9025 4.0131s17.8858-1.5619 23.9025-4.0131c3.0134-1.2276 5.3193-2.6389 6.8402-4.1038 1.5152-1.4594 2.1277-2.841 2.1277-4.0891s-.6125-2.6296-2.1277-4.0891c-1.5209-1.4648-3.8268-2.8762-6.8402-4.1038-6.0167-2.4512-14.4665-4.013-23.9025-4.013s-17.8859 1.5618-23.9025 4.013c-3.0134 1.2276-5.3193 2.639-6.8402 4.1038zm63.6131 11.6493c-1.9448 1.6816-4.5023 3.1327-7.4587 4.3371-6.604 2.6904-15.5893 4.3087-25.4117 4.3087s-18.8078-1.6183-25.4117-4.3087c-2.9565-1.2044-5.5139-2.6555-7.4587-4.3371v12.852c0 1.2481.6125 2.6297 2.1277 4.0892 1.5209 1.4648 3.8268 2.8757 6.8402 4.1037 6.0166 2.451 14.4665 4.013 23.9025 4.013s17.8858-1.562 23.9025-4.013c3.0134-1.228 5.3193-2.6389 6.8402-4.1037 1.5152-1.4595 2.1277-2.8411 2.1277-4.0892z" fill-rule="evenodd"></path></g></svg> 