<?xml version="1.0" encoding="UTF-8"?> <svg xmlns="http://www.w3.org/2000/svg" fill="none" height="512" viewBox="0 0 128 128" width="512"><g fill="rgb(0,0,0)"><path d="m55.4289 58.3593c-.781-.7811-2.0474-.7811-2.8284 0-.7811.781-.7811 2.0474 0 2.8284l1.535 1.5351-1.535 1.535c-.7811.7811-.7811 2.0474 0 2.8284.781.7811 2.0474.7811 2.8284 0l1.5351-1.535 1.535 1.535c.7811.7811 2.0474.7811 2.8285 0 .781-.781.781-2.0473 0-2.8284l-1.5351-1.535 1.5351-1.5351c.781-.781.781-2.0474 0-2.8284-.7811-.7811-2.0474-.7811-2.8285 0l-1.535 1.535z"></path><path clip-rule="evenodd" d="m56.353 70.2021c-1.1045 0-2 .8955-2 2 0 1.1046.8955 2 2 2h6.9991v1.7625c0 2.8428 2.3045 5.1474 5.1474 5.1474 2.8428 0 5.1473-2.3046 5.1473-5.1474v-3.7625c0-1.1045-.8954-2-2-2zm10.9991 5.7625v-1.7625h2.2947v1.7625c0 .6337-.5137 1.1474-1.1473 1.1474-.6337 0-1.1474-.5137-1.1474-1.1474z" fill-rule="evenodd"></path><path d="m66.6725 58.3593c.7811-.7811 2.0474-.7811 2.8284 0l1.5351 1.535 1.535-1.535c.7811-.7811 2.0474-.7811 2.8285 0 .781.781.781 2.0474 0 2.8284l-1.5351 1.5351 1.5351 1.535c.781.7811.781 2.0474 0 2.8284-.7811.7811-2.0474.7811-2.8285 0l-1.535-1.535-1.5351 1.535c-.781.7811-2.0473.7811-2.8284 0-.781-.781-.781-2.0473 0-2.8284l1.5351-1.535-1.5351-1.5351c-.781-.781-.781-2.0474 0-2.8284z"></path><g clip-rule="evenodd" fill-rule="evenodd"><path d="m64.0002 42.4951c-13.1181 0-23.7524 10.6343-23.7524 23.7524 0 13.118 10.6343 23.7523 23.7524 23.7523 13.118 0 23.7523-10.6343 23.7523-23.7523 0-13.1181-10.6343-23.7524-23.7523-23.7524zm-19.7524 23.7524c0-10.9089 8.8434-19.7524 19.7524-19.7524 10.9089 0 19.7523 8.8435 19.7523 19.7524s-8.8434 19.7523-19.7523 19.7523c-10.909 0-19.7524-8.8434-19.7524-19.7523z"></path><path d="m32.8672 26.8223c0-1.1046.8954-2 2-2h58.2656c1.1046 0 2 .8954 2 2v74.3557c0 1.104-.8954 2-2 2h-58.2656c-1.1046 0-2-.896-2-2zm4 2v70.3555h54.2656v-70.3555z"></path><path d="m14 8.4668c-1.1046 0-2 .89543-2 2v21.498c0 1.1046.8954 2 2 2 3.3201.0001 6.0115 2.6916 6.0115 6.0117s-2.6914 6.0116-6.0115 6.0116c-1.1046 0-2 .8954-2 2v8.0002c0 1.1045.8954 2 2 2 3.3201 0 6.0115 2.6915 6.0115 6.0116s-2.6914 6.0116-6.0115 6.0116c-1.1046.0001-2 .8955-2 2v8.0002c0 1.1046.8954 2 2 2 3.3201.0001 6.0115 2.6915 6.0115 6.0116 0 3.3202-2.6914 6.0116-6.0115 6.0117-1.1046 0-2 .8954-2 2v21.497c0 .531.2107 1.04.5858 1.415s.8838.585 1.4142.585h17.9651c1.1046 0 2-.895 2-2 0-3.32 2.6915-6.011 6.0116-6.011s6.0116 2.691 6.0116 6.011c0 1.105.8955 2 2 2h8.0002c1.1046 0 2-.895 2-2 0-3.32 2.6915-6.011 6.0117-6.011 3.3201 0 6.0116 2.691 6.0116 6.011 0 1.105.8954 2 2 2h8.0002c1.1045 0 2-.895 2-2 0-3.32 2.6915-6.011 6.0116-6.011s6.0116 2.691 6.0116 6.011c0 1.105.8954 2 2 2h17.9648c.53 0 1.039-.21 1.414-.585s.586-.884.586-1.415v-21.497c0-1.1046-.895-2-2-2-3.32 0-6.012-2.6915-6.012-6.0117 0-3.3201 2.692-6.0116 6.012-6.0116 1.104 0 2-.8954 2-2v-8.0002c0-1.1045-.895-2-2-2-3.32 0-6.012-2.6915-6.012-6.0116s2.692-6.0116 6.012-6.0116c1.104 0 2-.8955 2-2v-8.0002c0-1.1046-.895-2-2-2-3.32 0-6.012-2.6915-6.012-6.0116 0-3.3202 2.692-6.0117 6.012-6.0117 1.104 0 2-.8954 2-2v-21.498c0-1.10457-.895-2-2-2h-17.9648c-1.1046 0-2 .89543-2 2 0 3.3201-2.6915 6.0117-6.0116 6.0117s-6.0116-2.6915-6.0116-6.0116c0-1.10458-.8955-2.0001-2-2.0001h-8.0002c-1.1046 0-2 .89543-2 2 0 3.3201-2.6915 6.0117-6.0116 6.0117-3.3202 0-6.0117-2.6915-6.0117-6.0116 0-1.10458-.8954-2.0001-2-2.0001h-8.0002c-1.1045 0-2 .89543-2 2 0 3.3201-2.6915 6.0117-6.0116 6.0117s-6.0116-2.6915-6.0116-6.0116c0-1.10458-.8954-2.0001-2-2.0001zm2 21.6979v-17.6979h14.1649c.9267 4.571 4.9674 8.0117 9.8118 8.0117s8.8852-3.4407 9.8119-8.0117h4.3997c.9267 4.571 4.9675 8.0117 9.8119 8.0117 4.8443 0 8.8851-3.4407 9.8118-8.0117h4.3997c.9267 4.571 4.9675 8.0117 9.8119 8.0117s8.8852-3.4407 9.8118-8.0117h14.1646v17.6978c-4.571.9267-8.012 4.9675-8.012 9.8119s3.441 8.8851 8.012 9.8118v4.3998c-4.571.9266-8.012 4.9674-8.012 9.8118s3.441 8.8852 8.012 9.8119v4.3997c-4.571.9267-8.012 4.9675-8.012 9.8118 0 4.8444 3.441 8.8852 8.012 9.8119v17.6968h-14.1646c-.9267-4.571-4.9674-8.011-9.8118-8.011s-8.8851 3.44-9.8118 8.011h-4.3998c-.9267-4.571-4.9675-8.011-9.8118-8.011-4.8444 0-8.8852 3.44-9.8119 8.011h-4.3998c-.9267-4.571-4.9674-8.011-9.8118-8.011-4.8443 0-8.8851 3.44-9.8118 8.011h-14.1649v-17.6968c4.5709-.9268 8.0115-4.9675 8.0115-9.8119 0-4.8443-3.4406-8.885-8.0115-9.8118v-4.3998c4.5709-.9267 8.0115-4.9675 8.0115-9.8118s-3.4406-8.8851-8.0115-9.8118v-4.3998c4.5709-.9268 8.0115-4.9675 8.0115-9.8118 0-4.8444-3.4406-8.8851-8.0115-9.8118z"></path></g></g></svg> 