<?xml version="1.0" encoding="UTF-8"?> <svg xmlns="http://www.w3.org/2000/svg" fill="none" height="512" viewBox="0 0 128 128" width="512"><g fill="rgb(0,0,0)"><path clip-rule="evenodd" d="m14.8071 34.594 2.4386 9.3321c1.0685 4.9107 4.829 8.5514 9.6606 10.5977 4.8535 2.0555 10.9587 2.5984 17.1923 1.2654 6.2335-1.3329 11.5828-4.3252 15.1712-8.186 3.5833-3.8552 5.5174-8.7776 4.4624-13.7115l-2.7107-10.3732c-1.0685-4.9108-4.829-8.5515-9.6606-10.5977-4.8535-2.0555-10.9587-2.5984-17.1922-1.2655-6.2336 1.333-11.5829 4.3253-15.1713 8.186-3.5832 3.8552-5.4974 8.1587-4.1903 14.7527zm7.1202-12.0295c-2.9571 3.1816-4.4273 6.4355-3.4273 10.4355 1 3.5 3.5051 5.8434 7.113 7.4078l21.6749-24.6678c-3.5831-.9735-7.8458-1.1219-12.2828-.1731-5.5285 1.1822-10.1133 3.8081-13.0778 6.9976zm29.3198-5.2688-21.4642 24.3912c3.2437.6398 6.9415.6378 10.769-.1807 5.5285-1.1821 10.1133-3.8081 13.0778-6.9976 2.9696-3.195 4.1977-6.7987 3.4901-10.1079-.6187-2.8934-2.6799-5.3869-5.8727-7.105zm5.3124 19.9361c1.1395-1.2259 2.1131-2.5552 2.8772-3.9569 1.5633 4.2251-.1397 8.4236-3.0968 11.6051-2.9645 3.1895-7.5493 5.8155-13.0778 6.9977-5.5284 1.1822-10.7862.6609-14.7959-1.0372-4.0166-1.7011-7.4707-4.3405-7.4707-8.386.9941.6508 2.0679 1.2181 3.2005 1.6978 4.8535 2.0556 10.9587 2.5985 17.1923 1.2655s11.5829-4.3252 15.1712-8.186z" fill-rule="evenodd"></path><path d="m15.281 75.2425c-2.3941 2.3413-3.6653 5.0495-3.6653 7.8141 0 3.6696 2.2397 7.2397 6.3721 9.9846 4.1178 2.735 9.9223 4.4918 16.434 4.4918 3.9449 0 7.642-.6454 10.8643-1.7702 1.0429-.3641 2.1834.1863 2.5474 1.2291.364 1.0429-.1863 2.1834-1.2291 2.5474-3.664 1.2787-7.8081 1.9937-12.1826 1.9937-7.1883 0-13.7869-1.9317-18.6471-5.1599-1.5665-1.0405-2.9729-2.2325-4.159-3.5527-.6157 5.1796 2.2397 9.0876 6.3721 11.8326 4.1178 2.735 9.9223 4.491 16.434 4.491 5.796 0 11.0404-1.392 15.0318-3.635.963-.541 2.1823-.199 2.7233.764.5411.963.199 2.183-.7639 2.724-4.6503 2.612-10.5819 4.147-16.9912 4.147-7.1883 0-13.7869-1.931-18.6471-5.159-4.8456-3.219-8.15898-7.887-8.15898-13.3169v-11.6115c0-5.4301 3.31338-10.0981 8.15898-13.3165 4.8602-3.2282 11.4588-5.1599 18.6471-5.1599 5.7444 0 11.0998 1.2328 15.4931 3.365.9937.4823 1.4083 1.6788.9261 2.6726-.4823.9937-1.6789 1.4083-2.6726.926-3.8062-1.8473-8.5579-2.9636-13.7466-2.9636-6.0777 0-11.5393 1.5304-15.5884 3.9582l25.872 12.8173c.9897.4904 1.3946 1.6902.9043 2.68-.4904.9898-1.6903 1.3946-2.68.9043z"></path><path clip-rule="evenodd" d="m53.3642 101.098c-4.5306-4.8347-5.5127-11.7951-3.853-18.8352 1.6638-7.0572 6.0153-14.4466 12.5737-20.5929 6.5584-6.1462 14.2143-10.0096 21.3646-11.2125 7.1315-1.1998 14.0123.2307 18.5425 5.0629l.003.0028 10.949 11.6118c4.531 4.8344 5.513 11.7948 3.853 18.8349-1.664 7.0572-6.015 14.4462-12.573 20.5932-6.5588 6.146-14.2148 10.009-21.365 11.212-7.1317 1.2-14.0128-.231-18.5435-5.063l-.0021-.002zm49.0118-29.8651c.764-5.2795-.374-9.8524-3.2996-12.9746-3.3268-3.5499-8.6747-4.9143-14.9633-3.8563-6.2713 1.055-13.2283 4.503-19.293 10.1866-4.8483 4.5437-8.3079 9.749-10.2462 14.8166zm-46.0951 27.1275c-3.2353-3.4539-4.2829-8.682-2.9897-14.6778l48.1078-8.2256c-1.7671 5.6084-5.4485 11.5039-10.8598 16.5752-6.0647 5.6836-13.0217 9.1318-19.293 10.1868-6.2557 1.052-11.5806-.292-14.911-3.801l-.0523-.0555zm50.2391-32.2079c.229 2.6378-.014 5.4154-.672 8.2055-1.664 7.0572-6.0152 14.4467-12.5736 20.5929-6.5584 6.1461-14.2143 10.0101-21.3645 11.2121-2.7886.47-5.5389.537-8.1253.155l3.4474 3.656c3.3268 3.55 8.6748 4.915 14.9634 3.857 6.2713-1.055 13.2282-4.503 19.2926-10.187 6.065-5.6835 9.957-12.4024 11.416-18.5921 1.463-6.2053.449-11.6293-2.876-15.1793l-.002-.0025z" fill-rule="evenodd"></path></g></svg> 