<?xml version="1.0" encoding="UTF-8"?> <svg xmlns="http://www.w3.org/2000/svg" fill="none" height="512" viewBox="0 0 128 128" width="512"><g fill="rgb(0,0,0)"><path d="m106 38.7656c0-1.1045-.895-2-2-2s-2 .8955-2 2v30.6172c0 1.1046.895 2 2 2s2-.8954 2-2z"></path><g clip-rule="evenodd" fill-rule="evenodd"><path d="m101.434 83.9477c0-11.1824-9.0653-20.2475-20.2476-20.2475-11.1824 0-20.2475 9.0651-20.2475 20.2475s9.0651 20.2473 20.2475 20.2473c11.1823 0 20.2476-9.0649 20.2476-20.2473zm-4.122-2h-32.2512c.9856-8.0297 7.8295-14.2475 16.1256-14.2475s15.1399 6.2178 16.1256 14.2475zm-32.2512 4h32.2512c-.9857 8.0296-7.8295 14.2473-16.1256 14.2473s-15.14-6.2177-16.1256-14.2473z"></path><path d="m54.4346 87.2782c-4.9251 1.4581-10.3983.5353-14.617-2.7611l22.8052-22.8052c.5181.6629.9771 1.3561 1.3772 2.0727.5386.9644 1.7569 1.3096 2.7213.771.9644-.5385 1.3096-1.7569.7711-2.7213-.8919-1.5971-2.0157-3.0974-3.3694-4.4511-7.9071-7.9071-20.7271-7.9071-28.6342 0-7.9072 7.9072-7.9072 20.7272 0 28.6343 5.4384 5.4384 13.1992 7.1336 20.0813 5.0961 1.0592-.3135 1.6636-1.4263 1.35-2.4854-.3135-1.0592-1.4263-1.6636-2.4855-1.35zm-17.4454-5.5895 22.805-22.8051c-6.3748-4.9808-15.6108-4.5382-21.477 1.3281-5.8662 5.8662-6.3089 15.1022-1.328 21.477z"></path><path d="m18.4203 16.4004c-1.1046 0-2 .8954-2 2v10.762l-3.6101 7.5274c-.2622.5468-.2622 1.183 0 1.7298l3.6101 7.5274v67.053c0 1.104.8954 2 2 2h95.3687c1.105 0 2-.896 2-2v-67.053l3.611-7.5274c.262-.5468.262-1.183 0-1.7298l-3.611-7.5274v-10.762c0-1.1046-.895-2-2-2zm-1.5887 21.1543 2.8476-5.9375h92.8518l2.847 5.9375-3.392 7.0726c-.129.2699-.197.5655-.197.8649v65.5078h-91.3687v-65.5078c0-.2994-.0672-.595-.1967-.8649zm94.9574-17.1543v7.2168h-91.3687v-7.2168z"></path></g></g></svg> 