<?xml version="1.0" encoding="UTF-8"?> <svg xmlns="http://www.w3.org/2000/svg" fill="none" height="512" viewBox="0 0 128 128" width="512"><g clip-rule="evenodd" fill="rgb(0,0,0)" fill-rule="evenodd"><path d="m105.168 16.016c.779-.3318 1.68.0167 2.033.7862 1.289 2.8085-.175 6.1505-3.158 7.1437-6.9187 2.3043-15.1964 5.2658-22.2352 8.235-3.5168 1.4835-6.7586 2.9832-9.3795 4.4172-2.5446 1.3922-4.7554 2.8533-5.9663 4.321-.3643.4417-.7625.9301-1.1926 1.4578l-.0007.0009c-2.9876 3.6653-7.5182 9.2235-12.9852 14.1365-6.3127 5.6729-13.4787 10.114-20.564 10.114-7.0471 0-11.4928-2.0801-13.9843-4.3908-2.5448-2.3603-2.9481-4.7773-2.6256-5.8752 1.2181-.2656 4.2692.1558 6.1594.4209 4.331.6004 10.2763 1.3054 15.8749-.9915 4.8604-1.994 7.8972-4.7679 9.7281-7.1015.9116-1.1619 1.9987-3.2971 2.3835-4.0705.8463-1.4651.4417-2.9915-.1767-4.0726-.6353-1.1105-1.6706-2.1257-2.7195-2.9834-2.134-1.745-4.9386-3.3271-6.8564-4.256-.903-.4374-1.9904-.138-2.5422.6999l-3.6887 5.6013-7.3967-3.6983c-.9748-.4874-2.1604-.1046-2.6661.8608l-7.8307 15.4914c-.6766.0564-1.3828.1963-2.0327.5073-.9246.4425-1.6554 1.197-2.012 2.2667-1.0264 3.0793.4056 7.0953 3.6814 10.1335 3.377 3.132 8.8666 5.458 16.7043 5.458 8.6385 0 16.7641-5.3214 23.2376-11.1388 5.7182-5.1387 10.4556-10.9544 13.4303-14.6061.4231-.5194.8106-.9951 1.1601-1.4187.6769-.8205 2.2701-1.9729 4.8008-3.3575 2.4543-1.3429 5.5588-2.7832 9.0142-4.2408 6.9055-2.913 15.0753-5.8376 21.9445-8.1254 5.191-1.7288 7.834-7.5869 5.529-12.6075-1.256-2.738-4.464-3.9782-7.236-2.7976l-52.7938 22.4864c-1.0162.4328-1.4891 1.6076-1.0563 2.6238.4329 1.0162 1.6076 1.4891 2.6238 1.0563zm-59.4554 26.7284c-.2784.5595-1.2628 2.5528-1.9876 3.4767-1.442 1.8379-3.9343 4.1612-8.0993 5.87-4.4887 1.8415-9.429 1.3369-13.8074.73-.5194-.0734-1.8212-.2567-2.3312-.3233l6.3547-12.1318 7.2295 3.6147c.9061.453 2.0077.1572 2.5648-.6888l3.6763-5.5825c1.5058.8222 3.1978 1.8739 4.5148 2.9508.918.7507 1.6128 1.6077 1.8854 2.0842z"></path><path d="m55.1186 68.9945c-.1356-.8231-.7678-1.4756-1.5863-1.6371-.8184-.1615-1.6511.202-2.0892.912-1.1438 1.8538-2.9176 3.9351-5.0459 6.2603-.7243.7913-1.4935 1.6149-2.2829 2.46-1.4707 1.5745-3.0113 3.2239-4.4605 4.8782-2.2459 2.5636-4.4048 5.2832-6.0067 8.0844-1.5991 2.7964-2.7179 5.8023-2.7179 8.9143 0 9.4004 6.6276 15.5194 9.9855 17.4564.6188.357 1.381.356 1.9997-.001.6186-.357.9997-1.017.9997-1.732 0-2.083.4717-5.109 1.6451-7.993 1.0214-2.511 2.5075-4.755 4.516-6.237 2.153 1.473 3.9447 3.872 5.1393 6.676 1.3696 3.216 1.8383 6.699 1.322 9.428-.1457.77.1715 1.554.8114 2.006.6399.451 1.4848.488 2.1614.093 4.6298-2.7 11.1867-9.861 11.1867-20.5609 0-2.5412-1.0621-4.7965-2.4235-6.8467-1.0808-1.6276-2.4732-3.2973-3.8773-4.981-.3421-.4101-.685-.8213-1.0241-1.2328-3.5475-4.3039-7.1342-9.1574-8.2525-15.9471zm-20.1894 29.8721c0-2.1583.7818-4.4657 2.1903-6.9286 1.4057-2.4582 3.3612-4.9439 5.543-7.4343 1.4131-1.6131 2.8666-3.1687 4.3049-4.708.8012-.8577 1.5982-1.7106 2.3804-2.5652 1.0035-1.0964 1.9791-2.1918 2.8727-3.2743 1.8451 5.6807 5.1388 9.9807 8.0639 13.5296.3805.4616.7506.9058 1.1089 1.3358l.0022.0025c1.3868 1.6643 2.5965 3.1161 3.5448 4.544 1.1764 1.7717 1.7557 3.2356 1.7557 4.634 0 6.6019-2.9822 11.5759-6.0177 14.5999-.1915-2.397-.8145-4.857-1.7837-7.133-1.6102-3.78-4.2918-7.3176-7.926-9.2357-.6052-.3194-1.3317-.3072-1.9258.0323-3.5493 2.0281-5.8166 5.4514-7.1886 8.8234-.7806 1.919-1.3001 3.889-1.6034 5.706-2.5391-2.441-5.3216-6.547-5.3216-11.9284z"></path></g></svg> 