<?xml version="1.0" encoding="UTF-8"?> <svg xmlns="http://www.w3.org/2000/svg" fill="none" height="512" viewBox="0 0 128 128" width="512"><g fill="rgb(0,0,0)"><path clip-rule="evenodd" d="m108.878 46.1399c1.134-3.1138-.472-6.5569-3.586-7.6902l-70.1576-25.5354c-3.1139-1.1334-6.5569.4721-7.6903 3.586l-16.4952 45.3202c-1.13333 3.1139.4722 6.5569 3.5861 7.6903l46.628 16.9712c1.038.3778 2.1857-.1574 2.5634-1.1953.3778-1.038-.1573-2.1857-1.1953-2.5635l-46.6281-16.9712c-1.0379-.3778-1.5731-1.5255-1.1953-2.5634l10.2998-28.2984 73.9167 26.9035-6.6034 18.1426c-.3778 1.038.1574 2.1857 1.1954 2.5635 1.0379.3778 2.1856-.1574 2.5634-1.1954zm-8.586 11.895-73.9165-26.9035 2.0521-5.638 73.9164 26.9035zm3.42-9.3968-73.9163-26.9035 1.4072-3.8662c.3778-1.038 1.5255-1.5732 2.5634-1.1954l70.1577 25.5354c1.038.3778 1.573 1.5255 1.196 2.5635z" fill-rule="evenodd"></path><path clip-rule="evenodd" d="m84.8173 81.3328c-.5352-.3191-1.1884-.3705-1.7669-.1391l-11.9512 4.7802c-.1631.0653-.3168.1517-.4573.257l-8.1587 6.1193-16.1768 1.6174c-.4211.0421-.8181.2167-1.1337.4987l-11.234 10.0387c-.6184.553-.8316 1.43-.5358 2.205s1.0391 1.287 1.8685 1.287h81.2676c.612 0 1.191-.281 1.57-.761s.518-1.107.376-1.703l-2.39-10.0386c-.081-.34-.25-.6529-.489-.9075l-7.649-8.1267c-.499-.5302-1.247-.7473-1.952-.5669l-9.4727 2.4234zm-1.1992 3.9419 11.5801 6.9036c.4572.2725 1.0042.3516 1.5199.2197l9.1349-2.337 6.474 6.8789 1.68 7.0571h-73.496l6.8414-6.1141 16.0837-1.608c.363-.0363.7092-.1712 1.001-.3901l8.3932-6.2952z" fill-rule="evenodd"></path><path d="m91.7343 64.3553c1.038.3778 1.5732 1.5255 1.1954 2.5634-.3778 1.038-1.5255 1.5732-2.5634 1.1954l-13.4767-4.9051c-1.038-.3778-1.5731-1.5255-1.1953-2.5634.3777-1.038 1.5254-1.5732 2.5634-1.1954z"></path><path d="m72.0008 57.1729c1.0379.3778 1.5731 1.5255 1.1953 2.5634-.3778 1.038-1.5254 1.5732-2.5634 1.1954l-13.4766-4.9051c-1.038-.3778-1.5732-1.5255-1.1954-2.5635.3778-1.0379 1.5255-1.5731 2.5634-1.1953z"></path></g></svg> 