<?xml version="1.0" encoding="UTF-8"?> <svg xmlns="http://www.w3.org/2000/svg" id="Layer_1" height="512" viewBox="0 0 68 68" width="512"><g><path d="m22.6 1c-6.1 0-11.1 5-11.1 11.1v43.8c0 6.1 5 11.1 11.1 11.1h22.8c6.1 0 11.1-5 11.1-11.1v-43.8c0-6.1-5-11.1-11.1-11.1zm31.9 11.1v43.8c0 5-4.1 9.1-9.1 9.1h-22.8c-5 0-9.1-4.1-9.1-9.1v-43.8c0-5 4.1-9.1 9.1-9.1h22.8c5 0 9.1 4.1 9.1 9.1z"></path><path d="m34 18.3c-.6 0-1 .4-1 1v29.4c0 .6.4 1 1 1s1-.4 1-1v-29.4c0-.6-.4-1-1-1z"></path><path d="m23.7 6.9-5.7 5.7c-1.5 1.5-1.5 3.8 0 5.3s3.8 1.5 5.3 0l5.7-5.7c1.5-1.5 1.5-3.8 0-5.3-1.5-1.4-3.9-1.4-5.3 0zm-1.8 9.6c-.7.7-1.8.7-2.5 0s-.7-1.8 0-2.5l2.1-2.1 2.4 2.5zm5.6-5.7-2.1 2.1-2.4-2.4 2.1-2.1c.7-.7 1.8-.7 2.5 0 .6.6.6 1.7-.1 2.4z"></path><path d="m23.7 21.3-5.7 5.7c-1.5 1.5-1.5 3.8 0 5.3s3.8 1.5 5.3 0l5.7-5.7c1.5-1.5 1.5-3.8 0-5.3-1.5-1.4-3.9-1.4-5.3 0zm-1.8 9.6c-.7.7-1.8.7-2.5 0s-.7-1.8 0-2.5l2.1-2.1 2.4 2.5zm5.6-5.7-2.1 2.1-2.4-2.4 2.1-2.1c.7-.7 1.8-.7 2.5 0 .6.6.6 1.7-.1 2.4z"></path><path d="m23.7 35.7-2.8 2.8-2.9 2.9c-1.5 1.5-1.5 3.8 0 5.3s3.8 1.5 5.3 0l5.7-5.7c1.5-1.5 1.5-3.8 0-5.3-1.5-1.4-3.9-1.4-5.3 0zm-1.8 9.6c-.7.7-1.8.7-2.5 0s-.7-1.8 0-2.5l2.1-2.1 2.4 2.5zm5.6-5.7-2.1 2.1-2.4-2.4 2.1-2.1c.7-.7 1.8-.7 2.5 0 .6.6.6 1.7-.1 2.4z"></path><path d="m23.7 50.1-5.7 5.7c-1.5 1.5-1.5 3.8 0 5.3s3.8 1.5 5.3 0l5.7-5.7c1.5-1.5 1.5-3.8 0-5.3-1.5-1.4-3.9-1.4-5.3 0zm-1.8 9.5c-.7.7-1.8.7-2.5 0s-.7-1.8 0-2.5l2.1-2.1 2.4 2.5zm5.6-5.6-2.1 2.1-2.4-2.5 2.1-2.1c.7-.7 1.8-.7 2.5 0 .6.7.6 1.8-.1 2.5z"></path><path d="m39 12.6c-1.5 1.5-1.5 3.8 0 5.3s3.8 1.5 5.3 0l5.7-5.7c1.5-1.5 1.5-3.8 0-5.3-1.4-1.4-3.9-1.4-5.3 0zm3.9 3.9c-.7.7-1.8.7-2.5 0s-.7-1.8 0-2.5l2.1-2.1 2.4 2.5zm5.7-8.1c.7.7.7 1.8 0 2.5l-2.1 2.1-2.5-2.5 2.1-2.1c.7-.7 1.8-.7 2.5 0z"></path><path d="m44.7 21.3-5.7 5.7c-1.5 1.5-1.5 3.8 0 5.3s3.8 1.5 5.3 0l5.7-5.7c1.5-1.5 1.5-3.8 0-5.3-1.4-1.4-3.9-1.4-5.3 0zm-1.8 9.6c-.7.7-1.8.7-2.5 0s-.7-1.8 0-2.5l2.1-2.1 2.4 2.5zm5.7-5.7-2.1 2.1-2.5-2.4 2.1-2.1c.7-.7 1.8-.7 2.5 0 .7.6.7 1.7 0 2.4z"></path><path d="m44.7 35.7-2.8 2.8-2.9 2.9c-1.5 1.5-1.5 3.8 0 5.3s3.8 1.5 5.3 0l5.7-5.7c1.5-1.5 1.5-3.8 0-5.3-1.4-1.4-3.9-1.4-5.3 0zm-1.8 9.6c-.7.7-1.8.7-2.5 0s-.7-1.8 0-2.5l2.1-2.1 2.4 2.5zm5.7-5.7-2.1 2.1-2.5-2.4 2.1-2.1c.7-.7 1.8-.7 2.5 0 .7.6.7 1.7 0 2.4z"></path><path d="m44.7 50.1-5.7 5.7c-1.5 1.5-1.5 3.8 0 5.3s3.8 1.5 5.3 0l5.7-5.7c1.5-1.5 1.5-3.8 0-5.3-1.4-1.4-3.9-1.4-5.3 0zm-1.8 9.5c-.7.7-1.8.7-2.5 0s-.7-1.8 0-2.5l2.1-2.1 2.4 2.5zm5.7-5.6-2.1 2.1-2.5-2.5 2.1-2.1c.7-.7 1.8-.7 2.5 0s.7 1.8 0 2.5z"></path></g></svg> 