<?xml version="1.0" encoding="UTF-8"?> <svg xmlns="http://www.w3.org/2000/svg" fill="none" height="512" viewBox="0 0 128 128" width="512"><g fill="rgb(0,0,0)"><path d="m108.26 60.2969c0-1.1046-.895-2-2-2-1.104 0-2 .8954-2 2v14.0537c0 1.1046.896 2 2 2 1.105 0 2-.8954 2-2z"></path><path clip-rule="evenodd" d="m105.071 80.5316c-.642-.8892-1.881-1.0953-2.776-.4618l-7.8616 5.5603-6.2649-3.3166c-.7092-.3755-1.5741-.2907-2.1969.2153l-6.1432 4.9912-5.9488-1.4872c-.5115-.1279-1.0528-.0486-1.5062.2206l-13.8383 8.2164c-.6069.3604-.9789 1.0139-.9789 1.7198v5.6214c0 1.105.8954 2 2 2h46.7038c1.105 0 2-.895 2-2v-16.2164c0-.4204-.132-.8301-.378-1.171zm-9.3317 9.0743 7.2487-5.1269 1.272 1.7623v13.5701h-42.7038v-2.4834l12.1517-7.215 6.1205 1.5301c.6107.1527 1.2577.009 1.7462-.388l5.8921-4.7872 6.1819 3.2727c.6666.3529 1.475.3008 2.0907-.1347z" fill-rule="evenodd"></path><path clip-rule="evenodd" d="m8.23804 13.0879c-1.10457 0-2 .8954-2 2s.89543 2 2 2h14.14576v52.1264h-14.14576c-1.10457 0-2 .8954-2 2 0 1.1045.89543 2 2 2h16.14576c1.1046 0 2-.8955 2-2v-2.7675h3.625c5.0526 8.0013 14.0999 9.6078 18.8584 9.4317v35.1215c0 1.104.8954 2 2 2h63.1778c1.104 0 2-.896 2-2v-48.6573l3.599-4.791c.492-.6555.534-1.5452.107-2.2447l-3.706-6.0606v-9.9778c0-1.1046-.896-2-2-2h-20.2113l-9.2446-11.9705c-3.4089-4.4049-8.665-6.9834-14.2349-6.9834h-43.9704v-5.2268c0-1.1046-.8954-2-2-2zm40.62916 51.8085v8.9797c-4.0421.2095-12.0294-1.247-15.9656-8.3942-.3516-.6385-1.0229-1.0351-1.7519-1.0351h-4.7659v-40.1321h43.9704c4.3321 0 8.4202 2.0055 11.0716 5.4315l7.3695 9.5224h-22.4864l-8.8341-8.8342c-.7811-.781-2.0474-.781-2.8285 0-.781.7811-.781 2.0474 0 2.8284l25.3792 25.3792c1.3619 1.3619 1.3059 3.5867-.1228 4.8783-3.2707 2.957-8.2325 3.0125-11.5684.1293l-14.3489-12.4016c-.6256-.5406-1.5194-.6406-2.249-.2515-5.0275 2.6814-13.4477 2.6542-18.4798-1.8747-.821-.7389-2.0856-.6723-2.8245.1487s-.6723 2.0856.1487 2.8245c4.9505 4.4555 10.7119 5.2516 15.4404 4.6957l-.893 1.5718c-.4106.7229-.3313 1.6244.1993 2.2644zm28.4816-14.5879-7.0399-7.0399h41.7361v6.5679zm3.9467 3.9467 31.6375-.4304 2.697 4.4103-3.185 4.2388c-.26.3464-.4.768-.4 1.2013v47.3248h-59.1778v-46.8248c0-.4662-.1628-.9177-.4603-1.2765l-3.1184-3.7614s1.7115-3.6373 3.0681-4.01l13.3621 11.5486c4.8637 4.2037 12.0979 4.1228 16.8666-.1884 3.126-2.8262 3.4147-7.9875-1.2898-12.2323z" fill-rule="evenodd"></path><path d="m17.1576 22.3147c0-1.1046-.8954-2-2-2-1.1045 0-2 .8954-2 2v5.8433c0 1.1045.8955 2 2 2 1.1046 0 2-.8955 2-2z"></path></g></svg> 