<?xml version="1.0" encoding="UTF-8"?> <svg xmlns="http://www.w3.org/2000/svg" fill="none" height="512" viewBox="0 0 128 128" width="512"><g fill="rgb(0,0,0)"><path d="m65.8498 11.8313c-9.2889-.895-16.1844 6.0184-17.5076 14.0723-.6542 3.9822.0906 8.1353 2.5557 11.6269 2.4577 3.4811 6.754 6.4842 13.5284 7.923.6173.1311 1.1365.5458 1.4007 1.1188.2643.5731.2426 1.2372-.0585 1.7918-1.9946 3.6741-1.6701 9.9816 1.4527 14.8889 1.5239 2.3949 3.6621 4.3597 6.3988 5.4778 2.7256 1.1135 6.1835 1.4442 10.4553.3488 5.5664-1.4273 10.4117.0295 13.3678 3.6163 2.9059 3.5261 3.6569 8.7115 1.9864 14.1398-.3248 1.0557-1.444 1.6482-2.4997 1.3234-1.0557-.3249-1.6482-1.444-1.3234-2.4998 1.3759-4.4716.6033-8.1706-1.2501-10.4194-1.8034-2.1882-4.9541-3.3967-9.2875-2.2856-4.9935 1.2804-9.3412.9585-12.9616-.5206-3.6094-1.4747-6.3578-4.0428-8.2607-7.0332-3.2072-5.04-4.168-11.5645-2.5777-16.6065-6.3304-1.781-10.8285-4.9763-13.6385-8.9565-3.1354-4.4409-4.0405-9.68-3.2352-14.5824 1.5961-9.7152 10.0581-18.54039 21.8383-17.40537 1.0995.10593 1.9049 1.08311 1.799 2.18257-.106 1.0995-1.0831 1.9049-2.1826 1.799z"></path><path d="m103.161 24.9836c-5.2183-5.792-13.0648-8.0577-19.8473-7.2273-1.0964.1342-1.8763 1.1318-1.7421 2.2282s1.1318 1.8764 2.2282 1.7421c5.6556-.6924 12.1512 1.2303 16.3892 5.9343 3.872 4.2987 6.111 11.2144 3.647 21.3171-2.558-1.0226-5.337-1.4301-8.1396-1.0071-1.0922.1649-1.8439 1.1839-1.6791 2.2761.1649 1.0922 1.1839 1.844 2.2761 1.6791 5.6546-.8535 11.7436 3.0303 14.3456 8.8073 1.273 2.8246 1.652 6.0025.747 9.1526-.904 3.1421-3.136 6.4319-7.394 9.3887-.907.63-1.132 1.8762-.502 2.7835.631.9072 1.877 1.132 2.784.5019 4.881-3.3893 7.757-7.3974 8.956-11.5692 1.197-4.1638.671-8.3155-.944-11.9005-1.465-3.2528-3.879-6.1243-6.821-8.1567 3.101-11.6211.783-20.3031-4.304-25.9501z"></path><path clip-rule="evenodd" d="m88.6991 91.1976c.4204.3793.6604.9189.6604 1.4851v23.4323c0 .566-.24 1.106-.6604 1.485-.4204.38-.9818.563-1.545.505l-77.49741-8c-1.01963-.106-1.79463-.965-1.79463-1.99v-7.432c0-1.0254.775-1.8845 1.79463-1.9897l77.49741-8c.5632-.0582 1.1246.1251 1.545.5043zm-76.837 11.2894v3.824l73.4974 7.587v-18.9982z" fill-rule="evenodd"></path><path d="m96.3594 90.6827c1.1045 0 2 .8954 2 2v23.4323c0 1.105-.8955 2-2 2-1.1046 0-2-.895-2-2v-23.4323c0-1.1046.8954-2 2-2z"></path><path d="m108.359 96.8262c0-1.1045-.895-2-2-2-1.104 0-2 .8955-2 2v16.1738c0 1.105.896 2 2 2 1.105 0 2-.895 2-2z"></path></g></svg> 