<?xml version="1.0" encoding="UTF-8"?> <svg xmlns="http://www.w3.org/2000/svg" fill="none" height="512" viewBox="0 0 128 128" width="512"><g clip-rule="evenodd" fill="rgb(0,0,0)" fill-rule="evenodd"><path d="m42.0957 9.59453c-.8945-.34134-1.9055-.0008-2.4112.81217l-18.8131 30.2438c-.3771.6063-.4025 1.3676-.0665 1.9976l11.4307 21.4326c.5198.9747 1.7313 1.3434 2.7059.8236s1.3433-1.7313.8235-2.7059l-9.6823-18.1545 20.5136 1.9171 13.6214 38.0936c.3719 1.0401 1.5165 1.5817 2.5566 1.2098s1.5818-1.5165 1.2098-2.5566l-13.5129-37.7903 24.7-15.7362-3.1529 30.8975c-.1121 1.0989.6878 2.0806 1.7866 2.1927 1.0989.1122 2.0806-.6877 2.1927-1.7866l3.5722-35.0067c.0918-.8998-.4316-1.7492-1.2766-2.0716zm3.4553 32.25137-19.5745-1.8293 14.4522-23.2333zm3.877-1.0066-5.3568-26.2097 29.0796 11.0961z"></path><path d="m12.3163 68.2965c-.6374-.0722-1.2707.1658-1.7029.6398s-.6108 1.1266-.4802 1.7546l5.001 24.0523c.0709.3411.2297.6578.4607.9186l20.242 22.8612c.7322.827 1.9962.904 2.8232.172s.9038-1.996.1716-2.823l-19.0227-21.4847 17.0366-17.8384 16.3348 31.5661c.5077.981 1.7145 1.365 2.6955.857s1.3647-1.715.8571-2.696l-17.6225-34.0537c-.3066-.5925-.8884-.9931-1.5512-1.0681zm2.2956 4.2854 3.6635 17.6196 14.8284-15.5262z"></path><path d="m108.964 48.5774c-.37-.9133-1.349-1.4216-2.309-1.1977l-21.4326 5.001c-.6343.148-1.1569.5957-1.4004 1.1999l-18.3368 45.4849c-.413 1.0245.0827 2.1895 1.1071 2.6025 1.0245.413 2.1898-.082 2.6028-1.107l16.9714-42.0981 9.4918 13.3252-15.7284 25.3023c-.5832.9381-.2954 2.1713.6427 2.7544.9381.5832 2.1713.2952 2.7544-.6427l15.8906-25.5631 12.2844-.8302-15.0495 20.3377c-.6571.8879-.4699 2.1403.418 2.7973.8879.6571 2.1403.4699 2.7973-.418l17.6222-23.8144c.415-.5596.508-1.2943.247-1.9397zm-11.391 19.0041-8.5361-11.9834 14.7741-3.4473zm3.538 1.9204 5.999-14.8396 5.683 14.0501z"></path></g></svg> 