<?xml version="1.0" encoding="UTF-8"?> <svg xmlns="http://www.w3.org/2000/svg" id="Layer_2" height="512" viewBox="0 0 64 64" width="512" data-name="Layer 2"><path d="m12 59h9v1a1 1 0 0 0 1 1h22a1 1 0 0 0 1-.86l5.93-40.66a1 1 0 0 0 -.63-1.07l-.93-.36.89-6.12a5 5 0 0 0 -3.14-5.39l-7.46-2.89a5 5 0 0 0 -6.76 3.94l-.56 3.86c-.71-.21-1.22-.68-1.84-.31-.79.46-.18-.41-4.45 27.86h-4.05a1 1 0 0 0 -1 1v2h-9a1 1 0 0 0 -1 1v15a1 1 0 0 0 1 1zm31.14 0h-9.14v-5a7 7 0 0 1 7-7h3.89zm-8.26-51.12a3 3 0 0 1 4.06-2.36l7.45 2.89a3 3 0 0 1 1.88 3.23l-.83 5.66-13.19-5.11zm-11.88 33.12h3.92a1 1 0 0 0 1-.86l3.9-26.75 17 6.59-3.64 25.02h-4.18a9 9 0 0 0 -9 9v5h-9zm-10 3h8v13h-8z"></path></svg> 