<?xml version="1.0" encoding="UTF-8"?> <svg xmlns="http://www.w3.org/2000/svg" fill="none" height="512" viewBox="0 0 128 128" width="512"><g clip-rule="evenodd" fill="rgb(0,0,0)" fill-rule="evenodd"><path d="m57.5447 22c-6.1701 0-11.1719 5.0018-11.1719 11.1719s5.0018 11.1719 11.1719 11.1719 11.1719-5.0018 11.1719-11.1719-5.0018-11.1719-11.1719-11.1719zm-7.1719 11.1719c0-3.9609 3.211-7.1719 7.1719-7.1719s7.1719 3.211 7.1719 7.1719-3.211 7.1719-7.1719 7.1719-7.1719-3.211-7.1719-7.1719z"></path><path d="m30.9587 56.4068c0-5.7475 4.6593-10.4068 10.4068-10.4068s10.4068 4.6593 10.4068 10.4068-4.6593 10.4067-10.4068 10.4067-10.4068-4.6592-10.4068-10.4067zm10.4068-6.4068c-3.5383 0-6.4068 2.8684-6.4068 6.4068 0 3.5383 2.8685 6.4067 6.4068 6.4067 3.5384 0 6.4068-2.8684 6.4068-6.4067 0-3.5384-2.8684-6.4068-6.4068-6.4068z"></path><path d="m56.9102 58.8822c0-4.9934 4.0479-9.0414 9.0413-9.0414s9.0413 4.048 9.0413 9.0414c0 4.9933-4.0479 9.0413-9.0413 9.0413s-9.0413-4.048-9.0413-9.0413zm9.0413-5.0414c-2.7843 0-5.0413 2.2571-5.0413 5.0414 0 2.7842 2.257 5.0413 5.0413 5.0413 2.7842 0 5.0413-2.2571 5.0413-5.0413 0-2.7843-2.2571-5.0414-5.0413-5.0414z"></path><path d="m65.1177 8.2959c-15.5376 0-29.3844 9.1908-39.2285 19.4713-4.9468 5.1661-8.9605 10.6848-11.7489 15.6283-2.7351 4.8487-4.45719 9.4336-4.45719 12.6632 0 8.1228 7.02449 14.5997 16.84229 18.9377 4.3254 1.9112 9.3379 3.4806 14.8462 4.6458-.3858 3.0729-1.0776 5.628-1.7617 8.1551l-.0013.0048c-.0529.1951-.1056.39-.1582.585-.7961 2.9522-1.5578 5.9488-1.5578 9.4799 0 7.264 2.9754 12.881 7.8399 16.631 4.8031 3.702 11.2986 5.476 18.2675 5.476s13.4645-1.774 18.2675-5.476c4.8645-3.75 7.8399-9.367 7.8399-16.631 0-2.554-.6544-5.0478-1.2455-7.2998-.1783-.6796-.3509-1.3372-.498-1.9678-.6356-2.7252-.9787-5.4526-.1114-8.7051 5.7071-1.1349 10.8924-2.727 15.3465-4.7728 9.936-4.5631 16.679-11.636 16.679-21.255 0-1.6997-.511-3.6542-1.327-5.6858-.827-2.0599-2.021-4.3291-3.51-6.6959-2.979-4.7341-7.212-9.9711-12.286-14.8525-10.0814-9.6991-23.8484-18.3364-38.0373-18.3364zm-51.4346 47.7628c0-2.1396 1.2683-5.9596 3.9411-10.698 2.6195-4.6438 6.4311-9.8947 11.1541-14.827 9.4954-9.9163 22.3658-18.2378 36.3394-18.2378 12.6653 0 25.4785 7.8045 35.2643 17.219 4.859 4.6753 8.881 9.663 11.673 14.1004 1.397 2.2189 2.468 4.272 3.184 6.056.728 1.8122 1.039 3.2231 1.039 4.1952 0 7.3704-5.081 13.364-14.348 17.6201-9.2479 4.2472-22.2234 6.513-36.8123 6.513-14.5536 0-27.6222-2.5291-36.9757-6.6619-9.5217-4.2072-14.4589-9.7007-14.4589-15.279zm70.3165 24.5822c-5.8987.9046-12.2606 1.3587-18.8819 1.3587-6.9664 0-13.6489-.562-19.8096-1.6083-.4289 3.2556-1.1647 5.9702-1.8278 8.4168l-.1679.6205c-.7922 2.9379-1.4198 5.4848-1.4198 8.4384 0 6.05 2.4211 10.487 6.2818 13.462 3.9222 3.024 9.4804 4.645 15.8256 4.645s11.9034-1.621 15.8256-4.645c3.8607-2.975 6.2818-7.412 6.2818-13.462 0-1.9917-.4695-3.7891-1.0236-5.91l-.0003-.0012c-.2-.7656-.4111-1.5735-.615-2.4479-.6069-2.602-1.0408-5.5002-.4689-8.867z"></path></g></svg> 