<?xml version="1.0" encoding="UTF-8"?> <svg xmlns="http://www.w3.org/2000/svg" fill="none" height="512" viewBox="0 0 128 128" width="512"><path clip-rule="evenodd" d="m64.2452 8.92578c.7319 0 1.4054.39978 1.7558 1.04232 2.6336 4.8284 6.1289 13.3545 8.1994 23.4397 1.4892 7.254 2.2569 15.39 1.3938 23.5811 6.2652-6.8723 17.5326-14.759 35.2168-18.3243.693-.1398 1.408.0967 1.881.622s.634 1.2613.423 1.936c-1.588 5.073-5.193 13.0095-10.897 20.5773-3.9245 5.2074-8.8937 10.307-14.9484 14.1629 2.1572.0452 4.4436.1903 6.76.4743 6.4584.7919 13.4444 2.6986 18.4464 6.8117.498.4088.768 1.032.726 1.6743-.042.6424-.39 1.2254-.936 1.5666-3.218 2.0113-8.755 4.6294-15.084 6.0732-4.147.946-8.7314 1.4094-13.2677.803 2.8708 4.0749 5.4468 9.9481 5.1754 17.1411-.0335.889-.6504 1.649-1.5135 1.865-2.3313.583-6.6616.074-11.2771-2.436-3.3234-1.808-6.8613-4.681-10.0539-9.052v16.148c0 1.104-.8954 2-2 2-1.1045 0-2-.896-2-2v-16.148c-3.1926 4.371-6.7304 7.244-10.0538 9.052-4.6156 2.51-8.9459 3.019-11.2772 2.436-.8632-.216-1.48-.976-1.5135-1.865-.2715-7.193 2.3045-13.0661 5.1754-17.141-4.5364.6064-9.1208.143-13.2677-.803-6.3292-1.4438-11.8661-4.0619-15.0842-6.0732-.5458-.3412-.8941-.9242-.9358-1.5666-.0417-.6423.2284-1.2655.7256-1.6743 5.0024-4.1131 11.9879-6.0198 18.4468-6.8117 2.3164-.2841 4.6028-.4291 6.7599-.4743-6.0546-3.856-11.0239-8.9556-14.9484-14.163-5.7036-7.5677-9.3087-15.5043-10.8967-20.5772-.2112-.6747-.0506-1.4107.4225-1.936s1.1884-.7618 1.8814-.6221c17.684 3.5653 28.9515 11.4521 35.2166 18.3244-.863-8.1912-.0953-16.3272 1.3939-23.5812 2.0706-10.0852 5.5658-18.6113 8.1994-23.4397.3505-.64254 1.0239-1.04232 1.7558-1.04232zm-6.0369 25.28642c-1.9913 9.6995-2.5848 20.8.3473 31.2577.2858 1.0192-.2721 2.0846-1.2726 2.4303-1.0005.3456-2.0971-.1481-2.5014-1.1264-2.2202-5.3715-12.2254-17.9191-34.3886-23.4026 1.8018 4.5106 4.8148 10.3704 9.0736 16.0213 5.4154 7.1854 12.7372 13.892 21.9925 17.1699.9671.3426 1.5182 1.3613 1.2756 2.3582s-1.2002 1.6485-2.2165 1.5083c-3.5279-.4866-9.4456-.7725-15.5706-.0215-5.0264.6163-9.9981 1.908-13.9044 4.2042 2.9139 1.4836 6.8356 3.0662 11.1549 4.0516 5.8681 1.3386 12.2443 1.5251 17.7981-.8816.9319-.4038 2.0184-.045 2.5267.8342.5083.8793.2769 1.9999-.5381 2.6059-2.7543 2.048-8.2395 8.3717-8.5864 17.3563 1.5828-.087 4.0433-.612 6.8818-2.156 3.9552-2.151 8.5361-6.237 12.1703-13.6265.3364-.684 1.0324-1.1174 1.7947-1.1174s1.4583.4334 1.7947 1.1174c3.6343 7.3895 8.2151 11.4755 12.1704 13.6265 2.8384 1.544 5.2988 2.069 6.8817 2.156-.3469-8.9847-5.8322-15.3084-8.5865-17.3564-.8149-.606-1.0463-1.7266-.5381-2.6059.5083-.8792 1.5949-1.238 2.5268-.8341 5.5537 2.4066 11.93 2.2202 17.7981.8815 4.3197-.9853 8.2407-2.568 11.1547-4.0516-3.906-2.2962-8.8778-3.5878-13.9042-4.2042-6.125-.751-12.0427-.4651-15.5706.0215-1.0163.1402-1.9739-.5114-2.2165-1.5083s.3084-2.0156 1.2755-2.3582c9.2554-3.2779 16.5772-9.9844 21.9925-17.1699 4.2593-5.6508 7.2723-11.5107 9.0733-16.0212-22.1628 5.4834-32.168 18.0311-34.3882 23.4026-.4043.9782-1.5009 1.472-2.5014 1.1263-1.0005-.3456-1.5584-1.411-1.2727-2.4302 2.9321-10.4577 2.3387-21.5582.3474-31.2577-1.5446-7.5233-3.9121-14.1161-6.0369-18.7857-2.1248 4.6696-4.4923 11.2624-6.0369 18.7857z" fill="rgb(0,0,0)" fill-rule="evenodd"></path></svg> 