<?xml version="1.0" encoding="UTF-8"?> <svg xmlns="http://www.w3.org/2000/svg" fill="none" height="512" viewBox="0 0 128 128" width="512"><g fill="rgb(0,0,0)"><path d="m88.8686 31.2883c.7811-.7811.7811-2.0474 0-2.8285-.781-.781-2.0473-.781-2.8284 0l-5.4462 5.4463c-.7811.781-.7811 2.0474 0 2.8284.781.7811 2.0473.7811 2.8284 0z"></path><path d="m76.3883 43.9821c.7732-.7888.7607-2.0551-.0281-2.8283-.7887-.7733-2.055-.7607-2.8283.028l-5.3393 5.4464c-.7733.7888-.7607 2.055.028 2.8283.7888.7733 2.055.7607 2.8283-.028z"></path><path d="m97.5009 35.2841c-.6181-.9154-1.8613-1.1564-2.7767-.5382-.9154.6181-1.1564 1.8613-.5382 2.7767 1.2656 1.8743 2.0045 4.1316 2.0045 6.5675 0 6.4907-5.2618 11.7525-11.7525 11.7525-2.3353 0-4.5058-.679-6.3322-1.8498-.9299-.596-2.167-.3254-2.7631.6045-.5961.93-.3254 2.167.6045 2.7631 2.4513 1.5713 5.3677 2.4822 8.4908 2.4822 8.6999 0 15.753-7.0526 15.753-15.7525 0-3.2585-.992-6.2914-2.6901-8.806z"></path><path clip-rule="evenodd" d="m52.903 14.1533-11.0548 10.8002-.0089.0089c-6.0775 6.0879-7.7836 15.0653-5.9984 24.3649 1.7877 9.3124 7.0953 19.1758 15.4096 27.476 8.3143 8.3003 18.1868 13.5912 27.5022 15.3631 9.2978 1.7686 18.268.05 24.3453-6.0304l10.697-10.4508c.124-.1177.246-.2372.367-.3585 6.01-6.0204 7.637-14.9384 5.8-24.1811-1.841-9.2582-7.179-19.0856-15.489-27.3818-8.31-8.2961-18.1465-13.6175-27.4078-15.44201-9.2411-1.82049-18.1521-.18145-24.1622 5.83151zm-13.1338 34.4199c1.6176 8.4266 6.4847 17.5899 14.3074 25.3993 7.8227 7.8095 16.9941 12.661 25.4235 14.2644 8.4422 1.6058 15.9134-.0649 20.7769-4.9362l.008-.0088 1.929-1.8847c-3.8412.7016-7.9977.5925-12.2232-.2399-9.2613-1.8245-19.0978-7.1459-27.408-15.4421-8.3102-8.2961-13.6483-18.1235-15.4884-27.3817-.8797-4.4257-.9652-8.7769-.1556-12.7713l-2.2772 2.2248c-4.8565 4.8715-6.5116 12.3417-4.8924 20.7762zm71.5708 23.9187c4.77-4.7855 6.366-12.1759 4.698-20.5665-1.665-8.3802-6.564-17.5172-14.391-25.3307-7.8266-7.8136-16.9719-12.6969-25.3549-14.3483-8.3986-1.6546-15.7902-.0433-20.5673 4.742-4.7771 4.7852-6.3759 12.1795-4.7072 20.5753 1.6657 8.3802 6.5645 17.5172 14.3912 25.3307 7.8268 7.8135 16.9721 12.6969 25.3551 14.3483 8.2199 1.6193 15.4751.1103 20.2591-4.4409z" fill-rule="evenodd"></path><path d="m35.6303 72.1878c-.8115-.7493-2.0769-.6988-2.8262.1127s-.6988 2.0769.1127 2.8262l2.7764 2.5635c.8115.7493 2.0768.6988 2.8262-.1127.7493-.8116.6988-2.0769-.1127-2.8262z"></path><path d="m45.5149 81.4694c-.6398-.9004-1.8884-1.1117-2.7888-.4719s-1.1117 1.8883-.472 2.7888l2.8833 4.058c.6398.9004 1.8884 1.1117 2.7888.4719s1.1117-1.8884.472-2.7888z"></path><path d="m40.5034 91.5856c.6159.9169.372 2.1595-.5449 2.7754-1.5716 1.0558-3.4662 1.6699-5.4978 1.665-5.427-.013-9.8159-4.4231-9.8028-9.8501.0047-1.9471.5774-3.7661 1.5616-5.2934.5983-.9285 1.836-1.1962 2.7645-.5979s1.1962 1.8361.5978 2.7645c-.5821.9034-.9212 1.9771-.9239 3.1364-.0078 3.2179 2.5945 5.8328 5.8124 5.8406 1.2091.0029 2.3275-.3605 3.2577-.9854.9169-.6159 2.1595-.372 2.7754.5449z"></path><path d="m34.007 60.7539c.8955-.6466 1.0973-1.8968.4508-2.7923-.6466-.8956-1.8968-1.0974-2.7923-.4508-3.1788 2.2951-6.2572 5.0833-9.09 8.3158-6.3184 7.2096-10.3145 15.3752-11.5924 22.8231-1.26683 7.3837.1091 14.4123 5.0632 18.7933l9.552 9.552.0495.044c4.9958 4.378 12.1683 4.83 19.3465 2.598 7.2159-2.244 14.7867-7.277 21.105-14.486 2.4828-2.833 4.6023-5.808 6.339-8.8236.5512-.9571.2221-2.18-.735-2.7312-.9572-.5512-2.1801-.2222-2.7313.735-1.6029 2.7833-3.5681 5.5443-5.8809 8.1828-5.9129 6.747-12.8813 11.312-19.2846 13.304-6.4122 1.994-11.9182 1.334-15.4749-1.746l-2.7423-2.743c3.1351.259 6.4943-.197 9.8547-1.242 7.2159-2.244 14.7867-7.277 21.1051-14.4866 1.4557-1.6611 2.7864-3.3707 3.988-5.1084.6283-.9085.4011-2.1543-.5074-2.7825-.9085-.6283-2.1542-.4011-2.7825.5074-1.1142 1.6112-2.3507 3.2003-3.7064 4.7472-5.9129 6.7469-12.8813 11.3119-19.2845 13.3029-6.4409 2.003-11.9674 1.328-15.5225-1.787-3.555-3.116-4.9489-8.5059-3.8083-15.1539 1.134-6.6091 4.7453-14.1162 10.6582-20.8631 2.6393-3.0116 5.4951-5.595 8.4233-7.7091z"></path></g></svg> 