<?xml version="1.0" encoding="UTF-8"?> <!-- Generator: Adobe Illustrator 17.1.0, SVG Export Plug-In . SVG Version: 6.00 Build 0) --> <svg xmlns="http://www.w3.org/2000/svg" xmlns:xlink="http://www.w3.org/1999/xlink" version="1.1" id="Capa_1" x="0px" y="0px" viewBox="0 0 441.957 441.957" style="enable-background:new 0 0 441.957 441.957;" xml:space="preserve"> <g> <path d="M373.196,296.728c2.805,0,5.441-1.092,7.425-3.076c4.094-4.094,4.094-10.754-0.001-14.849 c-1.982-1.983-4.619-3.075-7.424-3.075c-2.805,0-5.441,1.092-7.425,3.076c-4.094,4.094-4.094,10.754,0.001,14.849 C367.755,295.636,370.391,296.728,373.196,296.728z"></path> <path d="M252.988,56.525c-2.814,0-5.457,1.099-7.425,3.076c-4.094,4.094-4.094,10.754-0.017,14.831 c1.984,1.994,4.627,3.093,7.441,3.093c2.805,0,5.441-1.092,7.425-3.076c4.094-4.094,4.094-10.754-0.001-14.849 C258.429,57.617,255.793,56.525,252.988,56.525z"></path> <path d="M331.493,290.768c2.805,0,5.441-1.092,7.407-3.059c1.991-1.98,3.089-4.619,3.093-7.428c0.004-2.81-1.089-5.451-3.076-7.439 c-1.982-1.983-4.619-3.075-7.424-3.075s-5.441,1.092-7.425,3.076c-1.986,1.986-3.079,4.628-3.075,7.438 c0.004,2.809,1.102,5.447,3.076,7.411C326.051,289.676,328.688,290.768,331.493,290.768z"></path> <path d="M397.158,354.41c30.481-40.146,46.266-89.392,44.692-140.308c-1.744-56.406-24.691-109.457-64.615-149.381 S284.26,1.85,227.854,0.106c-50.906-1.559-100.168,14.216-140.318,44.7c-1.142-1.427-2.662-2.55-4.44-3.19 c-3.341-1.206-7.09-0.529-9.816,1.743c-0.914,0.762-1.828,1.524-2.731,2.302C70.36,45.824,70.176,45.994,70,46.17L46.142,70.028 c-0.176,0.177-0.346,0.359-0.509,0.549c-7.874,9.149-15.091,19.008-21.452,29.301c-1.349,2.183-1.807,4.801-1.28,7.313 c0.756,3.6,1.597,7.204,2.497,10.78C4.169,158.287-4.155,205.228,1.954,250.632c6.499,48.297,28.193,92.085,62.739,126.631 c34.546,34.545,78.334,56.24,126.63,62.739c9.722,1.308,19.512,1.954,29.295,1.954c35.896,0,71.653-8.731,103.331-25.408 c3.586,0.903,7.202,1.747,10.815,2.506c0.681,0.144,1.37,0.214,2.056,0.214c1.843,0,3.665-0.51,5.256-1.493 c10.292-6.358,20.15-13.576,29.303-21.452c0.19-0.163,0.372-0.333,0.549-0.509l23.858-23.857c0.177-0.178,0.348-0.361,0.511-0.552 c0.758-0.881,1.502-1.772,2.245-2.664l0.089-0.105c2.274-2.727,2.932-6.455,1.728-9.796 C399.718,357.06,398.59,355.547,397.158,354.41z M78.836,363.121C21.873,306.158,5.031,220.175,34.195,146.639 c19.631,54.477,55.823,109.637,103.654,157.468c47.831,47.831,102.991,84.022,157.468,103.654 C221.781,436.926,135.799,420.084,78.836,363.121z M358.053,381.404c-7.27,6.235-15.026,12.015-23.104,17.221 c-4.038-0.913-8.061-1.926-12.01-3.021c-0.019-0.006-0.038-0.01-0.057-0.016c-0.003-0.001-0.005-0.001-0.008-0.002 c-58.248-16.164-118.935-53.675-170.882-105.622c-51.947-51.945-89.457-112.632-105.621-170.879l0-0.002 c-0.004-0.014-0.007-0.026-0.011-0.04c-1.098-3.959-2.113-7.993-3.028-12.037c5.208-8.079,10.987-15.835,17.22-23.104 l13.271-13.271c0.477,1.866,0.973,3.729,1.488,5.584c17.07,61.519,56.403,125.33,110.751,179.68 c29.212,29.212,60.934,53.997,94.284,73.666c4.756,2.805,10.887,1.224,13.693-3.533c2.806-4.757,1.224-10.888-3.533-13.693 c-31.898-18.813-62.28-42.56-90.301-70.582c-51.949-51.948-89.459-112.637-105.622-170.885c-0.466-1.681-0.913-3.368-1.345-5.059 C172.516,0.41,289.9,5.673,363.092,78.864s78.454,190.576,13.054,269.856c-1.69-0.432-3.377-0.878-5.057-1.344 c-16.364-4.542-33.148-10.85-49.884-18.749c-4.995-2.359-10.955-0.221-13.311,4.774c-2.358,4.995-0.22,10.954,4.774,13.312 c17.761,8.384,35.617,15.09,53.074,19.935c1.854,0.515,3.716,1.011,5.581,1.487L358.053,381.404z"></path> </g> <g> </g> <g> </g> <g> </g> <g> </g> <g> </g> <g> </g> <g> </g> <g> </g> <g> </g> <g> </g> <g> </g> <g> </g> <g> </g> <g> </g> <g> </g> </svg> 