<?xml version="1.0" encoding="UTF-8"?> <svg xmlns="http://www.w3.org/2000/svg" fill="none" height="512" viewBox="0 0 128 128" width="512"><g fill="rgb(0,0,0)"><path d="m78.1936 30.6995c-1.3232-8.0539-8.2187-14.9673-17.5076-14.0723-1.0995.1059-2.0767-.6995-2.1826-1.799s.6995-2.0766 1.799-2.1826c11.7802-1.135 20.2422 7.6902 21.8382 17.4054.8054 4.9024-.0998 10.1415-3.2351 14.5824-2.81 3.9802-7.3082 7.1755-13.6385 8.9565 1.5903 5.042.6295 11.5665-2.5777 16.6065-1.903 2.9904-4.6513 5.5585-8.2607 7.0332-3.6204 1.4791-7.9681 1.801-12.9616.5206-4.3334-1.1111-7.4841.0974-9.2875 2.2856-1.8534 2.2488-2.626 5.9478-1.2501 10.4194.3248 1.0558-.2677 2.1749-1.3234 2.4998-1.0557.3248-2.1749-.2677-2.4997-1.3234-1.6703-5.4283-.9197-10.6137 1.9864-14.1398 2.9561-3.5868 7.8014-5.0436 13.3678-3.6163 4.2717 1.0954 7.7297.7647 10.4553-.3488 2.7367-1.1181 4.8748-3.0829 6.3988-5.4778 3.1228-4.9073 3.4473-11.2148 1.4527-14.8889-.3011-.5546-.3228-1.2187-.0585-1.7918.2642-.573.7834-.9877 1.4006-1.1188 6.7745-1.4388 11.0708-4.442 13.5284-7.923 2.4652-3.4916 3.21-7.6447 2.5558-11.6269z"></path><path d="m23.3752 29.7795c5.2179-5.792 13.0644-8.0577 19.8469-7.2273 1.0964.1342 1.8763 1.1318 1.7421 2.2282s-1.1318 1.8764-2.2282 1.7421c-5.6556-.6924-12.1512 1.2303-16.3889 5.9343-3.8727 4.2987-6.1115 11.2144-3.6477 21.3171 2.5581-1.0226 5.3374-1.4301 8.14-1.0071 1.0922.1649 1.8439 1.1839 1.6791 2.2761-.1649 1.0922-1.1839 1.844-2.2761 1.6791-5.6547-.8535-11.7436 3.0303-14.3461 8.8073-1.2724 2.8246-1.6515 6.0025-.7461 9.1526.9031 3.1421 3.1354 6.4319 7.3931 9.3886.9073.6301 1.132 1.8763.502 2.7836-.63.9072-1.8763 1.132-2.7835.5019-4.8806-3.3893-7.7569-7.3974-8.956-11.5692-1.1967-4.1638-.6715-8.3155.9435-11.9005 1.4654-3.2528 3.8795-6.1243 6.8218-8.1567-3.1015-11.6211-.7832-20.3031 4.3041-25.9501z"></path><path clip-rule="evenodd" d="m27.0911 101.313c-.9537.558-1.2749 1.783-.7176 2.736l6.6494 11.378c.5573.953 1.7822 1.274 2.7359.717l78.7502-46.0252c.954-.5574 1.275-1.7823.718-2.7359l-6.649-11.3773c-.558-.9536-1.783-1.2749-2.736-.7175zm8.376 10.368-4.631-7.923 52.5725-30.726 4.631 7.9238zm56.026-32.7435-4.631-7.9238 19.2709-11.263 4.631 7.9238z" fill-rule="evenodd"></path></g></svg> 