<?xml version="1.0" encoding="UTF-8"?> <svg xmlns="http://www.w3.org/2000/svg" fill="none" height="512" viewBox="0 0 128 128" width="512"><g fill="rgb(0,0,0)"><path d="m52.3 10.411c.8405-.71683 2.1028-.61661 2.8196.2238 1.6687 1.9565 3.7493 5.3714 4.7265 9.438.9872 4.1083.8671 8.9962-2.0885 13.6407-.593.9318-1.8292 1.2065-2.7611.6135-.9318-.593-1.2065-1.8292-.6135-2.7611 2.2365-3.5145 2.374-7.2286 1.5738-10.5585-.8101-3.3714-2.5618-6.2306-3.8806-7.7769-.7168-.8404-.6166-2.1028.2238-2.8195z"></path><path d="m75.7 10.411c.8404.7167.9406 1.9791.2238 2.8195-1.3188 1.5463-3.0704 4.4055-3.8806 7.7769-.8002 3.3299-.6627 7.044 1.5738 10.5585.5931.9319.3184 2.1681-.6135 2.7611s-2.1681.3183-2.7611-.6135c-2.9556-4.6445-3.0757-9.5324-2.0885-13.6407.9772-4.0666 3.0578-7.4815 4.7265-9.438.7168-.84041 1.9792-.94063 2.8196-.2238z"></path><path d="m74.615 39.8992c-.9407-.5788-2.1726-.2855-2.7515.6552-.5788.9408-.2855 2.1727.6553 2.7515 2.4875 1.5307 6.3164 4.615 9.5036 8.7828 3.1869 4.1673 5.6153 9.2605 5.6153 14.8557 0 14.5204-9.5931 24.2041-15.3101 28.7176-.867.6844-1.0149 1.9421-.3305 2.809.6845.867 1.9421 1.0149 2.8091.3305 6.0269-4.7581 16.8315-15.472 16.8315-31.8571 0-6.7671-2.9286-12.6966-6.4379-17.2856-3.5089-4.5884-7.7154-7.9939-10.5848-9.7596z"></path><path d="m37.2834 10.5707c-.9232-.6065-2.1632-.3499-2.7698.5733-.6065.9231-.3499 2.1632.5733 2.7697 1.6632 1.0929 4.1535 3.1208 6.1123 5.5663 2.0027 2.5002 3.1639 5.0737 2.8898 7.3579-.058.483-.3428 1.1919-1.0531 2.192-.6957.9795-1.6838 2.0802-2.9275 3.3382-1.059 1.0712-2.2541 2.2077-3.5535 3.4435-1.5511 1.4774-3.8928 3.7221-5.5558 5.4442-6.6124 6.8471-13.503 15.9133-13.503 27.8521 0 12.108 8.5562 21.4364 17.0261 28.1108 4.2824 3.3743 8.6791 6.1763 12.2011 8.3933 1.5179.955 3.4422 2.166 4.5137 2.89 1.2619.852 1.9821 1.43 2.2889 1.784 2.6021 3.002 2.007 6.144 1.5534 7.116-.4671 1.001-.0343 2.191.9666 2.658 1.001.467 2.1911.034 2.6582-.967.9885-2.118 1.6707-7.012-2.1555-11.427-.6976-.805-1.8415-1.647-3.0725-2.479-1.1297-.763-3.1159-2.013-4.6215-2.96-3.5186-2.215-7.756-4.9186-11.8567-8.15-8.2962-6.5376-15.5018-14.8253-15.5018-24.9691 0-10.3131 5.9351-18.3994 12.3803-25.0734 1.6013-1.6582 3.8818-3.845 5.4273-5.3169 1.2962-1.2327 2.543-2.4184 3.6492-3.5373 1.2915-1.3063 2.4596-2.5887 3.3442-3.8342.8699-1.2249 1.5896-2.5829 1.7634-4.0316.4677-3.8972-1.5132-7.5561-3.7393-10.3353-2.27-2.8338-5.0955-5.1322-7.0378-6.4085z"></path><path d="m93.486 11.144c.6065.9231.3499 2.1632-.5732 2.7697-1.6633 1.0929-4.1535 3.1208-6.1124 5.5663-2.0027 2.5002-3.1639 5.0737-2.8898 7.3579.058.483.3428 1.1919 1.0531 2.192.6957.9795 1.6838 2.0802 2.9275 3.3382 1.0591 1.0712 2.2542 2.2078 3.5537 3.4437 1.5511 1.4773 3.8926 3.7219 5.5557 5.444 6.6124 6.8471 13.5034 15.9133 13.5034 27.8521 0 12.108-8.557 21.4364-17.0265 28.1108-4.2824 3.3743-8.6792 6.1763-12.2012 8.3933-1.5179.955-3.4421 2.166-4.5137 2.89-1.2619.852-1.9821 1.43-2.2888 1.784-2.6022 3.002-2.0071 6.144-1.5535 7.116.4671 1.001.0343 2.191-.9666 2.658-1.001.467-2.1911.034-2.6581-.967-.9886-2.118-1.6707-7.012 2.1554-11.427.6977-.805 1.8415-1.647 3.0725-2.479 1.1295-.763 3.1162-2.013 4.6215-2.96 3.5186-2.215 7.7561-4.9187 11.8567-8.15 8.2963-6.5376 15.5023-14.8253 15.5023-24.9691 0-10.3131-5.936-18.3994-12.3808-25.0734-1.6013-1.6582-3.8817-3.8449-5.4271-5.3168-1.2963-1.2328-2.5431-2.4184-3.6494-3.5374-1.2915-1.3063-2.4596-2.5887-3.3442-3.8342-.8699-1.2249-1.5895-2.5829-1.7634-4.0316-.4676-3.8972 1.5132-7.5561 3.7394-10.3352 2.27-2.8339 5.0954-5.1323 7.0378-6.4086.9231-.6065 2.1631-.3499 2.7697.5733z"></path><path d="m33.6966 53.483c.8378-.7198 2.1005-.6242 2.8204.2136.7198.8378.6242 2.1005-.2136 2.8204-1.7268 1.4836-5.3034 6.0234-5.3034 11.6939 0 7.385 3.4839 12.2435 5.4813 14.4453.7422.8181.6806 2.083-.1375 2.8251-.8181.7422-2.083.6806-2.8251-.1375-2.3872-2.6315-6.5187-8.4065-6.5187-17.1329 0-7.2186 4.4234-12.7747 6.6966-14.7279z"></path></g></svg> 