<?xml version="1.0" encoding="UTF-8"?> <svg xmlns="http://www.w3.org/2000/svg" id="Mental_Health_Outline" height="512" viewBox="0 0 128 128" width="512" data-name="Mental Health Outline"><path d="m94.559 126.25h-35.195a3.408 3.408 0 0 1 -3.364-2.822c-1.243-7.108-2.784-12.238-4.021-13.389-2.089-1.94-6.991-1.423-10.93-1.008-1.328.14-2.582.273-3.7.318-9.657.494-10.232-5.734-10.786-11.761a36.536 36.536 0 0 0 -1.093-6.941 8.376 8.376 0 0 0 -4.125-5.165c-1.614-1.063-3.443-2.268-3.283-5.319.077-1.476 1.24-2.764 2.712-4.392 2.269-2.512 5.376-5.952 5.389-11.39.007-1.411-.14-3.294-.282-5.115-.114-1.47-.222-2.86-.259-4.053-.4-12.793 6.975-24.19 19.721-30.485a1.25 1.25 0 1 1 1.108 2.242c-11.851 5.849-18.701 16.379-18.334 28.165.035 1.136.141 2.5.253 3.937.146 1.871.3 3.807.289 5.318-.015 6.394-3.637 10.4-6.034 13.056-1 1.11-2.04 2.258-2.07 2.848-.082 1.559.563 2.048 2.161 3.1a10.847 10.847 0 0 1 5.149 6.548 38.91 38.91 0 0 1 1.183 7.415c.566 6.155.917 9.875 8.182 9.493 1.055-.043 2.27-.171 3.556-.307 4.674-.493 9.972-1.053 12.894 1.664 2.167 2.015 3.8 9.154 4.782 14.788a.91.91 0 0 0 .9.753h35.2a.911.911 0 0 0 .737-.367.889.889 0 0 0 .146-.8c-1.186-4.077-3.234-11.878-3.643-18.307-.252-3.965.9-9.811 3.6-13.309 8.314-10.785 11.917-19.429 12.05-28.9a1.231 1.231 0 0 1 1.268-1.232 1.25 1.25 0 0 1 1.232 1.268c-.139 9.922-4.016 19.3-12.569 30.393-2.3 2.977-3.3 8.212-3.085 11.626.393 6.19 2.392 13.788 3.548 17.768a3.411 3.411 0 0 1 -3.283 4.362z"></path><path d="m34.317 92.675h-7.356a1.25 1.25 0 0 1 0-2.5h7.356a1.25 1.25 0 0 1 0 2.5z"></path><circle cx="33.397" cy="66.296" r="2.15"></circle><path d="m70.78 35.385 2.758-2.757a1.25 1.25 0 0 0 -1.768-1.768l-2.757 2.757-2.758-2.757a1.25 1.25 0 0 0 -1.767 1.768l2.757 2.757-2.757 2.757a1.249 1.249 0 1 0 1.767 1.767l2.758-2.757 2.757 2.757a1.25 1.25 0 0 0 1.768-1.767z"></path><path d="m85.931 30.5a1.251 1.251 0 0 0 -1.768 0l-2.757 2.757-2.758-2.757a1.25 1.25 0 1 0 -1.767 1.768l2.757 2.757-2.757 2.757a1.25 1.25 0 1 0 1.767 1.768l2.758-2.758 2.757 2.758a1.25 1.25 0 0 0 1.768-1.768l-2.758-2.757 2.758-2.757a1.251 1.251 0 0 0 0-1.768z"></path><path d="m95.567 34.667 2.757-2.758a1.25 1.25 0 0 0 -1.768-1.767l-2.756 2.758-2.757-2.757a1.25 1.25 0 0 0 -1.768 1.767l2.758 2.758-2.758 2.757a1.25 1.25 0 1 0 1.768 1.767l2.757-2.758 2.757 2.757a1.25 1.25 0 1 0 1.768-1.767z"></path><path d="m81.406 60.417a25.75 25.75 0 1 1 25.75-25.75 25.779 25.779 0 0 1 -25.75 25.75zm0-49a23.25 23.25 0 1 0 23.25 23.25 23.276 23.276 0 0 0 -23.25-23.25z"></path><path d="m53.322 53.014a1.246 1.246 0 0 1 -1.056-.581 34.722 34.722 0 0 1 -2.086-33.033 1.25 1.25 0 0 1 2.264 1.061 32.2 32.2 0 0 0 1.933 30.639 1.25 1.25 0 0 1 -1.055 1.919z"></path><path d="m80.373 68.439h-.039a34.685 34.685 0 0 1 -4.129-.372 1.25 1.25 0 1 1 .373-2.472 32.414 32.414 0 0 0 3.832.346 1.25 1.25 0 0 1 -.037 2.5zm-7.891-1.192a1.29 1.29 0 0 1 -.334-.045 34.376 34.376 0 0 1 -3.923-1.348 1.249 1.249 0 1 1 .953-2.31 32.093 32.093 0 0 0 3.637 1.248 1.25 1.25 0 0 1 -.333 2.455zm-7.376-3.047a1.242 1.242 0 0 1 -.612-.161 34.187 34.187 0 0 1 -3.484-2.25 1.25 1.25 0 0 1 1.48-2.014 31.97 31.97 0 0 0 3.23 2.086 1.25 1.25 0 0 1 -.614 2.339zm-6.429-4.72a1.248 1.248 0 0 1 -.856-.338q-.4-.38-.8-.775c-.713-.712-1.4-1.465-2.051-2.236a1.25 1.25 0 0 1 1.914-1.608c.6.716 1.242 1.415 1.9 2.077q.366.367.742.719a1.25 1.25 0 0 1 -.856 2.161z"></path><path d="m55.151 22.419a1.252 1.252 0 0 1 -1.189-.864l-1.362-4.212-4.212 1.365a1.25 1.25 0 0 1 -.771-2.379l4.345-1.408a2.358 2.358 0 0 1 2.972 1.517l1.408 4.345a1.25 1.25 0 0 1 -.8 1.575 1.264 1.264 0 0 1 -.391.061z"></path><path d="m107.964 56.348a1.251 1.251 0 0 1 -1-1.995 32.2 32.2 0 0 0 4.2-30.406 1.25 1.25 0 1 1 2.336-.892 34.724 34.724 0 0 1 -4.53 32.788 1.248 1.248 0 0 1 -1.006.505z"></path><path d="m110.485 20.738a1.249 1.249 0 0 1 -1.1-.652c-.449-.824-.938-1.636-1.452-2.413-.191-.287-.387-.571-.585-.853a1.25 1.25 0 1 1 2.04-1.445q.32.451.628.915c.555.839 1.081 1.713 1.565 2.6a1.249 1.249 0 0 1 -1.1 1.847zm-4.618-6.507a1.249 1.249 0 0 1 -.928-.411 31.693 31.693 0 0 0 -2.749-2.686 1.25 1.25 0 0 1 1.635-1.891 34 34 0 0 1 2.968 2.9 1.249 1.249 0 0 1 -.926 2.088zm-6.036-5.217a1.242 1.242 0 0 1 -.7-.213 32.05 32.05 0 0 0 -3.316-1.947 1.25 1.25 0 0 1 1.134-2.229 34.176 34.176 0 0 1 3.576 2.1 1.25 1.25 0 0 1 -.7 2.287zm-7.111-3.62a1.247 1.247 0 0 1 -.429-.077 32.313 32.313 0 0 0 -3.686-1.1 1.25 1.25 0 1 1 .571-2.434 34.6 34.6 0 0 1 3.973 1.187 1.25 1.25 0 0 1 -.429 2.424z"></path><path d="m106.062 59.893a2.361 2.361 0 0 1 -2.339-2.094l-.516-4.539a1.25 1.25 0 1 1 2.484-.281l.5 4.4 4.4-.5a1.25 1.25 0 0 1 .282 2.484l-4.539.516a2.463 2.463 0 0 1 -.272.014z"></path></svg> 