<?xml version="1.0" encoding="UTF-8"?> <svg xmlns="http://www.w3.org/2000/svg" id="Icons" viewBox="0 0 60 60" width="512" height="512"><path d="M8,17a1,1,0,0,0-2,0v1a1,1,0,0,0,2,0Z"></path><path d="M9,21h1a1,1,0,0,0,0-2H9a1,1,0,0,0,0,2Z"></path><path d="M7,24a1,1,0,0,0,1-1V22a1,1,0,0,0-2,0v1A1,1,0,0,0,7,24Z"></path><path d="M5,19H4a1,1,0,0,0,0,2H5a1,1,0,0,0,0-2Z"></path><path d="M23,16a1,1,0,0,0,1-1V14a1,1,0,0,0-2,0v1A1,1,0,0,0,23,16Z"></path><path d="M25,16a1,1,0,0,0,0,2h1a1,1,0,0,0,0-2Z"></path><path d="M22,20a1,1,0,0,0,2,0V19a1,1,0,0,0-2,0Z"></path><path d="M21,16H20a1,1,0,0,0,0,2h1a1,1,0,0,0,0-2Z"></path><path d="M4.243,53.478,5,53.8V58a2,2,0,0,0,2,2H18a2,2,0,0,0,2-2c0-4.064-.186-3.434.819-4.932A6.923,6.923,0,0,0,22,49.18V34a2.988,2.988,0,0,0-4-2.816,2.989,2.989,0,0,0-4-3,3,3,0,1,0-6,0A2.987,2.987,0,0,0,4,31v6.184A2.987,2.987,0,0,0,0,40v7.043A6.993,6.993,0,0,0,4.243,53.478ZM2,40a1,1,0,0,1,2,0v3.111a2.006,2.006,0,0,0,1.631,1.965,4.082,4.082,0,0,1,3.4,3.167,1,1,0,0,0,1.94-.486A6.142,6.142,0,0,0,6,43.111V31a1,1,0,0,1,2,0v9a1,1,0,0,0,2,0V28a1,1,0,0,1,2,0V40a1,1,0,0,0,2,0V31a1,1,0,0,1,2,0v9a1,1,0,0,0,2,0V34a1.013,1.013,0,0,1,1-1,1,1,0,0,1,1,1V49.18c0,2.873-2,3.225-2,5.73V58H7V54.659c.674.289.749.341,1,.341a1,1,0,0,0,.394-1.919L5.03,51.64A5,5,0,0,1,2,47.043Z"></path><path d="M52,18.059V16a2,2,0,0,0-2-2V12a1.993,1.993,0,0,0-1-1.722V6h7a3,3,0,0,0,0-6H34a7.008,7.008,0,0,0-7,7,2,2,0,0,0,2,2h2a2,2,0,0,0,2-2,1,1,0,0,1,1-1h9v4.278A1.993,1.993,0,0,0,42,12v2a2,2,0,0,0-2,2v2.06a8.985,8.985,0,0,0-7.969,9.631,2.256,2.256,0,0,0-.031.493,2.988,2.988,0,0,0-4,3A2.987,2.987,0,0,0,24,34V49.18c0,3.446,2,4.149,2,5.73V58a2,2,0,0,0,2,2H57a3,3,0,0,0,3-3V27A9.01,9.01,0,0,0,52,18.059ZM31,7H29a5.006,5.006,0,0,1,5-5H56a1,1,0,0,1,0,2H34A3,3,0,0,0,31,7ZM47,6v4H45V6Zm-3,6h4v2H44Zm-2,4h8v2H42ZM28,58V54.91c0-2.5-2-2.838-2-5.73V34a1,1,0,0,1,1.7-.7.981.981,0,0,1,.3.7v6a1,1,0,0,0,2,0V31a1,1,0,0,1,2,0v9a1,1,0,0,0,2,0V28a1,1,0,0,1,2,0V40a1,1,0,0,0,2,0V31a1,1,0,0,1,2,0c0,10.693,0,7.965-.006,12.111a6.143,6.143,0,0,0-4.964,4.646,1,1,0,0,0,1.94.486,4.082,4.082,0,0,1,3.4-3.167A2.006,2.006,0,0,0,42,43.111V40a1,1,0,0,1,2,0v7.043a5,5,0,0,1-3.03,4.6l-3.364,1.441a1,1,0,1,0,.788,1.838l.606-.26V58ZM58,48H45.929c.1-.742.071-.641.071-8a2.987,2.987,0,0,0-4-2.816V35H58ZM57,58H41V53.8l.757-.324A7,7,0,0,0,45.345,50H58v7A1,1,0,0,1,57,58Zm1-25H42V31a2.987,2.987,0,0,0-4-2.816A2.992,2.992,0,0,0,34.277,25.1,6.951,6.951,0,0,1,41,20H51a7.008,7.008,0,0,1,7,7Z"></path><path d="M35,14a3,3,0,1,0-3,3A3,3,0,0,0,35,14Zm-4,0a1,1,0,1,1,1,1A1,1,0,0,1,31,14Z"></path><path d="M11,14a3,3,0,1,0,3-3A3,3,0,0,0,11,14Zm4,0a1,1,0,1,1-1-1A1,1,0,0,1,15,14Z"></path><path d="M23,30a3,3,0,1,0-3-3A3,3,0,0,0,23,30Zm0-4a1,1,0,1,1-1,1A1,1,0,0,1,23,26Z"></path></svg> 