<svg id="Capa_1" enable-background="new 0 0 511.991 511.991" height="512" viewBox="0 0 511.991 511.991" width="512" xmlns="http://www.w3.org/2000/svg"><g><path d="m489.38 184.465c0-60.32-27.335-109.684-79.049-142.753-41.453-26.509-98.438-41.712-156.345-41.712-48.471 0-93.543 13.234-126.915 37.266-37.23 26.808-58.504 65.439-61.521 111.714-.705 10.799-3.962 17.683-6.835 23.756-1.58 3.339-3.072 6.493-3.845 9.812-2.173 9.332 2.98 17.493 7.526 24.693 1.801 2.853 3.503 5.548 4.548 7.981.722 1.679.603 3.657-.316 5.293-6.641 11.822-14.919 20.933-28.574 31.444-6.161 4.743-15.471 11.91-15.443 24.85.03 13.307 8.408 22.626 24.902 27.698 3.201.984 4.432 1.943 4.812 2.31-.46 2.51-6.239 8.38-12.037 12.162-.817.53-1.524 1.215-2.08 2.015-3.333 4.799-4.964 14.592 4.203 21.901 2.499 1.992 4.542 3.81 6.15 5.339-6.772 8.718-5.025 18.409-1.437 23.667 1.077 1.579 2.741 2.691 4.607 3.103 1.405.309 5.641 1.547 8.733 3.603-3.256 5.709-8.654 15.283-5.129 30.181 4.663 18.941 19.093 30.521 42.89 34.416 10.651 1.742 28.722-.795 49.643-3.733 3.628-.51 7.31-1.026 11.001-1.527 36.405-4.925 53.614 24.392 66.778 56.818 4.298 10.587 14.641 17.23 25.662 17.23 2.271 0 4.572-.282 6.854-.87l42.934-11.067c4.011-1.034 6.425-5.124 5.391-9.135-1.033-4.011-5.118-6.425-9.135-5.391l-42.934 11.067c-6.111 1.577-12.503-1.64-14.873-7.478-8.895-21.909-29.725-73.224-82.691-66.039-3.716.503-7.421 1.023-11.073 1.536-18.059 2.537-36.73 5.16-45.134 3.785-17.798-2.914-27.568-10.285-30.747-23.198-2.042-8.198.488-14.178 3.966-19.827 3.92-7.008.65-15.288-4.627-18.94-3.519-2.437-7.438-4.021-10.303-4.966-.118-1.776.77-4.172 4.541-6.89 1.645-1.187 2.74-2.987 3.034-4.994.295-2.007-.236-4.047-1.47-5.655.051-.466-6.861-7.404-14.358-13.884 6.214-4.415 18.073-14.413 16.533-25.468-.644-4.625-3.821-10.879-15.294-14.408-12.56-3.862-14.3-8.72-14.311-13.394-.01-4.767 2.819-7.716 9.593-12.931 10.706-8.242 22.939-18.963 32.501-35.983 3.191-5.682 3.572-12.62 1.02-18.562-1.513-3.521-3.614-6.849-5.647-10.067-3.122-4.945-6.351-10.059-5.6-13.283.409-1.756 1.515-4.093 2.795-6.799 3.104-6.56 7.354-15.542 8.245-29.194 6.079-93.228 91.503-134.957 173.467-134.957 55.12 0 109.16 14.342 148.264 39.349 47.188 30.176 72.13 75.169 72.13 130.116 0 68.1-8.952 96.001-68.215 149.634-17.04 15.42-15.072 50.546 6.014 107.383 1.27 3.421 1.039 7.081-.647 10.308-1.678 3.21-4.534 5.477-8.043 6.381l-72.365 18.653c-4.011 1.034-6.425 5.124-5.391 9.135 1.034 4.01 5.12 6.429 9.135 5.391l72.365-18.653c7.563-1.949 13.975-7.037 17.593-13.957 3.626-6.937 4.143-15.128 1.417-22.474-17.669-47.628-21.318-80.813-10.013-91.045 62.577-56.633 73.15-89.81 73.15-160.756z"/><path d="m445.638 165.686c3.683-14.44 1.522-29.45-6.084-42.266-6.855-11.551-17.395-20.071-29.967-24.334-4.931-19.803-20.33-35.464-40.353-40.571-13.451-3.429-27.489-1.737-39.602 4.597-8.792-13.368-22.262-23.051-37.958-27.055-20.59-5.252-42.401.038-58.29 13.823-3.323-1.687-6.824-3.003-10.462-3.931-12.975-3.31-26.5-1.438-38.085 5.27-10.091 5.842-17.737 14.783-21.917 25.508-8.932 1.541-17.42 5.143-24.793 10.552-3.34 2.449-4.062 7.144-1.611 10.483 2.451 3.34 7.145 4.063 10.483 1.61 6.509-4.774 14.176-7.658 22.174-8.341 3.115-.266 5.739-2.437 6.583-5.447 5.223-18.62 24.72-29.877 43.459-25.1 3.963 1.011 7.693 2.673 11.087 4.941 3.027 2.022 7.069 1.581 9.586-1.05 12.359-12.913 30.778-18.197 48.078-13.784 14.105 3.598 25.869 13.173 32.273 26.27.974 1.992 2.779 3.451 4.932 3.984 2.155.536 4.432.088 6.224-1.219 9.871-7.194 22.31-9.594 34.131-6.577 15.794 4.028 27.653 17.04 30.214 33.147.476 2.989 2.701 5.4 5.644 6.112l.318.072c10.539 2.7 19.398 9.337 24.951 18.694 5.562 9.369 7.142 20.344 4.448 30.902-2.403 9.423-8.113 17.692-16.078 23.283-3.134 2.199-4.107 6.406-2.26 9.759 6.563 11.906 7.981 25.649 3.997 38.695-1.182 3.866-2.833 7.573-4.908 11.018-2.137 3.548-.993 8.157 2.555 10.295 1.211.729 2.545 1.076 3.863 1.076 2.543 0 5.023-1.294 6.432-3.631 2.708-4.497 4.863-9.333 6.404-14.375 4.551-14.901 3.676-30.506-2.394-44.579 8.251-7.353 14.173-17.038 16.926-27.831z"/><path d="m115.262 211.539c6.831 11.011 17.378 19.051 29.699 22.64 15.046 4.38 31.1 1.839 44.042-6.979 5.377-3.663 12.479-3.172 16.886 1.164 11.388 11.206 25.631 19.227 41.192 23.195 1.02.26 2.062.506 3.117.734 7.619 10.202 18.478 17.485 30.895 20.651 14.781 3.771 30.532 1.229 43.367-6.767 8.988 8.562 20.134 14.273 32.595 16.646 4.001.762 8.028 1.141 12.043 1.141 9.047 0 18.024-1.922 26.455-5.708 3.778-1.697 5.466-6.136 3.769-9.915-1.697-3.778-6.138-5.467-9.915-3.769-9.35 4.202-19.568 5.418-29.545 3.517-11.363-2.164-21.297-7.925-28.727-16.658-2.646-3.108-7.287-3.533-10.451-.954-10.146 8.271-23.227 11.164-35.884 7.933-9.841-2.509-18.342-8.554-23.938-17.019-1.126-1.704-2.898-2.875-4.907-3.242-1.767-.323-3.507-.701-5.169-1.125-12.99-3.313-24.877-10.005-34.375-19.352-9.497-9.346-24.574-10.551-35.852-2.869-9.227 6.284-20.673 8.1-31.402 4.973-18.014-5.247-29.526-23.804-26.208-42.247 1.196-6.646 4.146-12.826 8.533-17.874 1.887-2.172 2.366-5.232 1.231-7.877-3.824-8.912-4.577-18.593-2.178-27.997 1.023-4.014-1.4-8.098-5.414-9.121-4.014-1.021-8.097 1.4-9.121 5.414-2.844 11.151-2.389 22.593 1.289 33.358-4.583 6.336-7.704 13.664-9.103 21.44-2.273 12.629.24 25.65 7.076 36.667z"/><path d="m186.448 121.117c-3.747-1.761-8.216-.15-9.977 3.599l-28.188 60.002c-.032.067-.062.135-.092.203-1.448 3.337-.744 7.177 1.793 9.782 1.718 1.765 4.024 2.703 6.382 2.703 1.124 0 2.259-.213 3.348-.652.055-.021.11-.045.165-.068l60.95-26.263c3.804-1.639 5.559-6.052 3.92-9.855-1.639-3.805-6.052-5.56-9.855-3.92l-10.432 4.495-19.228-19.799 4.815-10.249c1.759-3.749.148-8.217-3.601-9.978zm3.271 46.378-21.029 9.061 9.725-20.701z"/><path d="m397.274 199.533c2.432-5.644 2.52-11.895.248-17.604-2.271-5.709-6.629-10.192-12.271-12.622l-17.972-7.743c-3.806-1.64-8.218.115-9.855 3.92l-12.272 28.486c-.001.001-.001.003-.002.004l-14.382 33.381c-.789 1.832-.816 3.903-.075 5.755.741 1.853 2.19 3.333 4.026 4.114.001 0 16.558 7.046 21.111 9.008 3.296 1.42 6.728 2.092 10.107 2.092 9.932 0 19.404-5.806 23.577-15.49 3.306-7.674 2.556-16.091-1.291-22.848 3.889-2.393 7.111-5.95 9.051-10.453zm-29.043-21.225 11.085 4.776c1.963.845 3.479 2.404 4.269 4.39s.76 4.161-.086 6.124c-1.746 4.053-6.464 5.924-10.516 4.183-1.33-.573-3.846-1.649-6.585-2.817l-4.505-1.941zm7.508 48.59c-2.32 5.384-8.587 7.878-13.975 5.559-2.604-1.122-9.12-3.901-14.241-6.083l8.427-19.559c1.454.619 2.996 1.277 4.475 1.908l9.755 4.202c5.385 2.32 7.879 8.589 5.559 13.973z"/><path d="m261.438 141.805c10.25-2.619 18.866-9.072 24.262-18.172 10.278-16.662 6.012-43.246-13.505-52.263-3.737-1.792-8.215-.217-10.006 3.518-1.792 3.734-.217 8.215 3.518 10.006 10.138 4.411 13.645 20.69 7.091 31.088-3.353 5.653-8.705 9.663-15.072 11.29-13.147 3.355-26.572-4.604-29.93-17.748-1.221-4.778-.992-9.745.663-14.363 1.397-3.899-.632-8.193-4.531-9.59-3.901-1.398-8.192.633-9.59 4.531-2.667 7.446-3.039 15.446-1.075 23.135 5.599 20.99 26.723 33.902 48.175 28.568z"/><path d="m245.885 204.611c5.892 10.042 16.181 15.344 27.778 15.344 7.18 0 14.862-2.032 22.313-6.23 20.482-11.541 27.696-30.915 17.952-48.21l-8.845-15.696c-.978-1.735-2.605-3.011-4.524-3.544-1.916-.532-3.97-.282-5.704.698 0 .001-21.295 12.053-27.614 15.613-7.704 4.341-27.754 15.734-27.754 15.734-1.729.982-2.998 2.612-3.525 4.53s-.272 3.968.711 5.697c.268.474 6.616 11.639 9.212 16.064zm28.719-28.957c4.059-2.287 14.289-8.073 21.1-11.927l5.156 9.15c6.583 11.684-2.01 22.01-12.247 27.778-10.347 5.829-23.569 6.966-29.79-3.636-1.253-2.136-3.464-5.99-5.395-9.368 6.542-3.713 16.319-9.259 21.176-11.997z"/><path d="m319.174 141.096 17.195 14.189c1.397 1.153 3.088 1.715 4.77 1.715 2.161 0 4.306-.93 5.789-2.727 2.636-3.194 2.184-7.922-1.012-10.559l-11.41-9.416 7.29-8.835 10.143 8.37c1.397 1.153 3.088 1.715 4.77 1.715 2.161 0 4.306-.93 5.789-2.727 2.636-3.194 2.184-7.922-1.012-10.559l-10.143-8.37 7.29-8.835 11.411 9.416c3.193 2.636 7.921 2.184 10.559-1.012 2.636-3.195 2.184-7.922-1.012-10.559l-17.196-14.189c-3.192-2.635-7.921-2.183-10.559 1.012l-33.675 40.811c-2.634 3.196-2.182 7.923 1.013 10.56z"/></g></svg>