<svg id="svg5" height="512" viewBox="0 0 21 21" width="512" xmlns="http://www.w3.org/2000/svg" xmlns:svg="http://www.w3.org/2000/svg"><g id="layer27" transform="translate(78.5 -201.5)"><path id="icon-depressed" d="m-75.25 201.5a.50004851.50004851 0 0 0 -.412109.2168s-.632903.91621-1.269532 2.01367c-.318314.54873-.63841 1.14434-.884765 1.70508s-.433594 1.06838-.433594 1.56445c0 .5231.135479 1.01614.373047 1.44531-.410207 1.13994-.623047 2.34194-.623047 3.55469 0 5.79306 4.706938 10.5 10.5 10.5s10.5-4.70694 10.5-10.5-4.706938-10.5-10.5-10.5c-2.083496 0-4.113387.62108-5.837891 1.77539-.534084-.88406-1-1.55859-1-1.55859a.50004851.50004851 0 0 0 -.412109-.2168zm7.25 1c5.252622 0 9.5 4.24738 9.5 9.5s-4.247378 9.5-9.5 9.5-9.5-4.24738-9.5-9.5c0-.90121.129232-1.79574.380859-2.6582.5135.4109 1.16373.6582 1.869141.6582 1.650928 0 2.999998-1.34907 3-3 0-.49606-.187238-1.00371-.433594-1.56445-.186218-.42386-.414476-.86652-.652344-1.29493 1.571566-1.0669 3.429808-1.64062 5.335938-1.64062zm-7.25.43555c.228099.34299.410309.59345.818359 1.29687.306686.52868.61159 1.09927.833985 1.60547.222394.5062.347656.96782.347656 1.16211-.000002 1.11049-.889511 2-2 2-1.110491 0-1.999999-.88951-2-2 0-.19429.125262-.65591.347656-1.16211.222395-.5062.5273-1.07679.833985-1.60547.40805-.70342.59026-.95388.818359-1.29687zm3.25 7.81445c-.960573 0-1.75.78942-1.75 1.75a.5.5 0 0 0 .5.5.5.5 0 0 0 .5-.5c0-.42014.329862-.75.75-.75s.75.32986.75.75a.5.5 0 0 0 .5.5.5.5 0 0 0 .5-.5c0-.96058-.789427-1.75-1.75-1.75zm7.75 0c-.960573 0-1.75.78942-1.75 1.75a.5.5 0 0 0 .5.5.5.5 0 0 0 .5-.5c0-.42014.329862-.75.75-.75s.75.32986.75.75a.5.5 0 0 0 .5.5.5.5 0 0 0 .5-.5c0-.96058-.789427-1.75-1.75-1.75zm-3.759766 4.79688c-1.400824.007-2.753875.51339-3.816406 1.42578a.499998.499998 0 0 0 -.05273.70507.499998.499998 0 0 0 .705078.0527c.88233-.75765 2.003425-1.17769 3.166016-1.18359 1.168083.003 2.29543.42264 3.18164 1.18359a.499998.499998 0 0 0 .705078-.0527.499998.499998 0 0 0 -.05273-.70507c-1.06676-.91599-2.425972-1.42248-3.832031-1.42578a.500048.500048 0 0 0 -.0039 0z" stroke-linejoin="round"/></g></svg>