<?xml version="1.0" encoding="UTF-8"?> <svg xmlns="http://www.w3.org/2000/svg" id="Layer_1" viewBox="0 0 500 500"><path clip-rule="evenodd" d="m226.17 265.44-29.743-29.749 135.812-135.817 29.743 29.749zm135.811-29.749-43.697-43.697-29.749 29.743 43.702 43.703zm-165.554-106.069 43.697 43.708 29.749-29.749-43.703-43.707zm179.555-4.663-39.075-39.086c-2.572-2.566-6.757-2.568-9.332 0l-48.371 48.372-48.366-48.372c-2.577-2.565-6.761-2.565-9.338 0l-39.075 39.086c-2.577 2.571-2.577 6.749 0 9.326l48.366 48.372-48.366 48.371c-2.577 2.577-2.577 6.755 0 9.332l39.075 39.08c2.584 2.579 6.762 2.576 9.338 0l48.366-48.372 48.371 48.372c2.58 2.58 6.756 2.577 9.332 0l39.075-39.08c2.577-2.577 2.577-6.755 0-9.332l-48.372-48.371 48.372-48.372c2.577-2.577 2.577-6.755 0-9.326zm5.131 272.629c3.789-68.293 56.459-89.761 55.687-209.503-.245-37.485-14.223-70.606-40.43-95.785-31.706-30.456-80.919-48.389-128.391-46.782-46.426 1.56-86.938 20.937-111.158 53.157-12.312 16.379-14.433 32.887-16.683 50.37-2.519 19.517-5.113 39.694-21.989 59.737-.076.076-.152.17-.222.245l-52.234 55.963c-3.974 4.268-3.124 10.987 1.794 14.118l31.467 20.025c3.541 2.244 6.165 5.16 8.029 8.899l7.766 15.52 6.258 3.757 16.683-22.176c2.649-3.524 7.914-3.513 10.553 0l15.806 21.03 15.818-21.03c2.636-3.515 7.901-3.521 10.547 0l21.094 28.042c2.18 2.916 1.601 7.047-1.315 9.238-2.888 2.174-7.038 1.616-9.238-1.309l-15.812-21.03-15.824 21.03c-2.627 3.505-7.911 3.502-10.542 0l-15.818-21.03-15.812 21.03c-.9 1.201-1.356 1.171-2.472 2.296 2.736 5.461 4.538 9.102 3.693 15.83l-4.096 32.84c-1.785 14.216 10.429 26.005 24.571 23.748l67.882-10.857c4.943-.8 9.7.654 13.381 4.085 3.535 3.307 5.318 7.748 5.025 12.551l1.519 30.397c.076 1.449 1.268 2.589 2.723 2.589h141.725c1.617 0 2.841-1.318 2.723-2.933-1.306-18.014-3.618-37.79-2.708-54.062zm34.616-65.651c16.28-33.149 34.739-70.716 34.271-143.928-.449-70.24-45.043-121.808-109.663-144.378-23.514-8.21-48.693-12.108-72.809-11.307-50.428 1.695-94.628 22.988-121.262 58.416-14.404 19.166-16.858 38.204-19.225 56.616-2.367 18.389-4.604 35.762-18.88 52.795l-52.121 55.84c-9.596 10.283-7.506 26.699 4.365 34.248l31.467 20.025c1.514.97 2.507 2.057 3.313 3.67l8.619 17.244c.561 1.122 1.426 2.063 2.507 2.706l5.756 3.459c-2.064 2.193-2.668 5.027-1.326 7.713l3.629 7.258c.882 1.765 1.145 3.337.912 5.282l-4.114 32.84c-2.866 22.918 16.965 42.067 39.77 38.414l67.865-10.857c1.828-.297 3.326 1.185 3.15 2.939l1.525 31.723c.421 8.479 7.41 15.123 15.9 15.123h141.725c9.313 0 16.588-7.847 15.876-17.139-1.306-17.047-3.514-37.648-2.694-52.31 1.436-25.657 10.709-44.532 21.444-66.392z" fill-rule="evenodd"></path></svg> 