<svg id="svg8" height="64" viewBox="0 0 16.933333 16.933334" width="64" xmlns="http://www.w3.org/2000/svg" xmlns:cc="http://creativecommons.org/ns#" xmlns:dc="http://purl.org/dc/elements/1.1/" xmlns:inkscape="http://www.inkscape.org/namespaces/inkscape" xmlns:rdf="http://www.w3.org/1999/02/22-rdf-syntax-ns#" xmlns:sodipodi="http://sodipodi.sourceforge.net/DTD/sodipodi-0.dtd" xmlns:svg="http://www.w3.org/2000/svg"><pattern id="EMFhbasepattern" height="6" patternUnits="userSpaceOnUse" width="6"/><pattern id="EMFhbasepattern-8" height="6" patternUnits="userSpaceOnUse" width="6"/><g id="layer1" transform="translate(0 -280.067)"><g id="g1054" fill="none" stroke="#000" stroke-linecap="round" stroke-linejoin="round" stroke-width=".529" transform="translate(3.175 5.292)"><path id="path1015" d="m11.90615 282.97701c0 3.80998-2.9633113 6.87912-6.6251176 6.87912-3.6618061 0-6.6039511-3.06914-6.6039511-6.87912 0-3.7888 2.942145-6.87911 6.6039511-6.87911 3.6618063 0 6.6251176 3.09031 6.6251176 6.87911z"/><path id="path1017" d="m.79539681 280.85692c.46454819-.92912 1.20360179-1.66818 2.11158199-2.11162"/><path id="path1019" d="m3.7041021 281.91869c0 .59266-.3598307 1.05832-.7831609 1.05832-.4444968 0-.8043275-.46566-.8043275-1.05832 0-.5715.3598307-1.05833.8043275-1.05833.4233302 0 .7831609.48683.7831609 1.05833z"/><path id="path1021" d="m2.9103834 284.56866c0 .27298-.2539981.52497-.5291627.52497-.2963312 0-.529163-.25199-.529163-.52497 0-.29399.529163-.79797.529163-.79797s.5291627.50398.5291627.79797z"/><path id="path1023" d="m9.7878979 280.8569c-.4479236-.92911-1.1944628-1.66816-2.111639-2.1116"/><path id="path1025" d="m6.8791137 281.91863c0 .5715.3598307 1.05833.8043273 1.05833.4233304 0 .7831607-.48683.7831607-1.05833 0-.59266-.3598303-1.05832-.7831607-1.05832-.4444966 0-.8043273.46566-.8043273 1.05832z"/><path id="path1027" d="m7.672848 284.56866c0 .27298.2328317.52497.529163.52497.2751647 0 .5291627-.25199.5291627-.52497 0-.29398-.5291627-.79796-.5291627-.79796s-.529163.50398-.529163.79796z"/><path id="path1029" d="m5.2810324 285.36883c-1.0159924 0-1.8626527.82549-1.8414863 1.86265v.23283c.4656632-.48683 1.1218252-.76199 1.8414863-.76199.7196614 0 1.3758233.27516 1.8414865.76199 0-.0847 0-.16933 0-.23283 0-1.03716-.8254939-1.86265-1.8414865-1.86265z"/></g></g></svg>