<svg id="Capa_1" enable-background="new 0 0 512 512" height="512" viewBox="0 0 512 512" width="512" xmlns="http://www.w3.org/2000/svg"><g><circle cx="264.006" cy="150" r="10"/><circle cx="184.006" cy="150" r="10"/><path d="m224.006 300c60.654 0 110-49.346 110-110s-49.346-110-110-110-110 49.346-110 110 49.345 110 110 110zm0-200c49.626 0 90 40.374 90 90s-40.374 90-90 90-90-40.374-90-90 40.374-90 90-90z"/><path d="m184.006 240c5.522 0 10-4.477 10-10 0-16.542 13.458-30 30-30s30 13.458 30 30c0 5.523 4.478 10 10 10s10-4.477 10-10c0-27.57-22.43-50-50-50s-50 22.43-50 50c0 5.523 4.477 10 10 10z"/><circle cx="97.006" cy="63" r="10"/><path d="m425.217 217.069c-7.229-7.23-11.211-16.843-11.211-27.069 0-104.767-85.233-190-190-190-34.138 0-67.62 9.16-96.826 26.491-4.75 2.818-6.315 8.954-3.497 13.703 2.817 4.749 8.953 6.315 13.702 3.497 26.12-15.499 56.073-23.691 86.621-23.691 93.738 0 170 76.262 170 170 0 15.529 6.031 30.13 16.985 41.128 45.149 47.199 43.831 45.827 44.063 46.063 3.555 3.554 3.043 7.731 2.658 9.362-.385 1.632-1.797 5.599-6.477 7.159l-30.299 9.77c-2.692.868-4.891 2.835-6.051 5.415-1.161 2.58-1.175 5.53-.039 8.12 0 0 10.858 24.746 10.934 24.896 1.227 2.453 1.398 5.227.483 7.811-.914 2.583-2.792 4.629-5.283 5.762l-8.61 3.91c-2.987 1.356-5.118 4.091-5.704 7.319s.448 6.538 2.768 8.857l3.36 3.359c3.897 3.898 3.897 10.241 0 14.138l-5.859 5.86c-1.876 1.875-2.93 4.419-2.93 7.071 0 16.542-13.458 30-30 30h-40c-30.134 0-54.536 26.785-59.196 56h-139.506c7.183-70.696-16.284-115.242-39.015-158.396-20.787-39.464-42.282-80.271-42.282-143.604 0-30.549 8.192-60.501 23.69-86.62 2.818-4.75 1.253-10.884-3.496-13.703-4.753-2.818-10.886-1.252-13.703 3.497-17.331 29.205-26.491 62.687-26.491 96.826 0 68.278 22.667 111.31 44.587 152.925 23.479 44.573 45.654 86.674 35.514 157.661-.41 2.87.445 5.776 2.345 7.966 1.899 2.19 4.656 3.448 7.555 3.448h160c5.522 0 10-4.477 10-10 0-21.272 17.473-46 40-46h40c26.113 0 47.614-20.12 49.814-45.672l3.117-3.117c9.488-9.489 11.279-23.806 5.37-35.117 5.964-3.567 10.453-9.038 12.811-15.696 2.714-7.665 2.241-15.887-1.326-23.183l-6.182-14.095 19.857-6.403c9.936-3.312 17.304-11.375 19.71-21.569 2.396-10.151-.554-20.613-7.894-28.012-53.216-55.632-42.598-44.583-44.067-46.067z"/></g></svg>