<svg id="Layer_1" enable-background="new 0 0 500 500" viewBox="0 0 500 500" xmlns="http://www.w3.org/2000/svg"><path clip-rule="evenodd" d="m273.29 226.901c12.966 29.696 5.913 65.843-17.542 89.935-16.643 17.097-39.523 27.074-63.138 27.102-14.719 0-29.334-3.862-42.954-11.412-3.185-1.771-4.342-5.791-2.571-8.975 1.765-3.185 5.791-4.342 8.975-2.571 37.018 20.539 71.739 5.651 90.228-13.346 37.553-38.581 21.02-107.704-34.757-106.297-21.194.52-40.056 12.487-49.23 31.256-15.331 31.34 5.343 67.122 38.367 61.338 10.355-1.812 19.453-8.929 24.957-19.517 9.046-17.396 4.084-29.521-2.922-34.604-5.183-3.775-14.042-5.323-22.047 2.6-5.16 6.381-6.469 12.855-4.137 20.364 1.081 3.477-.865 7.182-4.342 8.263-3.483 1.081-7.176-.865-8.263-4.347-3.705-11.897-1.432-22.965 6.732-32.893.123-.158.269-.31.409-.45 11.126-11.272 27.335-13.013 39.419-4.213 12.113 8.824 18.944 28.13 6.86 51.369-7.427 14.264-19.955 23.899-34.383 26.436-18.792 3.284-36.72-3.699-47.986-18.681-12.926-17.203-14.667-40.752-4.529-61.466 11.359-23.198 34.64-38.011 60.771-38.642 27.998-.657 51.19 13.8 62.083 38.751zm158.338-55.483c-26.038 10.425-58.931 11.044-86.377 2.542-1.677-.947-3.378-1.852-5.096-2.717 2.986-1.326 5.96-2.787 8.917-4.371 25.874-7.193 55.652-6.118 82.573 3.623.409.152.818.298 1.239.438-.421.152-.848.322-1.256.485zm-50.698 59.036c-20.656-10.331-37.713-27.294-47.302-46.513 2.022.771 4.09 1.496 6.188 2.174 17.384 10.248 32.782 26.534 41.114 44.339zm-64.207 72.469c2.004-12.131 2.951-25.062 2.857-39.349-.175-26.628-10.091-50.148-28.703-68.017-22.59-21.708-57.686-34.476-91.577-33.342-33.033 1.11-61.846 14.86-79.037 37.742-8.625 11.465-10.126 23.175-11.728 35.58-1.852 14.38-3.769 29.258-16.326 44.164-.07.088-.146.175-.216.257l-37.807 40.495c-2.092 2.253-1.656 5.771.953 7.421l22.772 14.497c2.834 1.811 4.955 4.149 6.463 7.164l5.376 10.758 7.766 4.663c1.747 1.046 2.904 2.834 3.15 4.85.387 3.106-1.098 4.692-2.91 6.504 1.927 3.855 2.831 6.856 2.273 11.324l-2.968 23.759c-1.136 9.092 6.629 16.604 15.678 15.158l49.119-7.854c4.161-.672 8.152.543 11.219 3.418 2.945 2.758 4.435 6.445 4.225 10.43l1.093 21.889c.006.088.07.14.146.14h67.187c-6.93-7.409-11.178-17.349-11.178-28.258 0-22.328 17.729-40.576 39.852-41.435-18.136-34.742 4.008-76.76 42.321-81.958zm50.908 55.886c0 9.182-2.844 17.731-8.128 25.214l-.228.322-60.38-60.391c7.391-5.428 16.259-8.356 25.518-8.356 23.829 0 43.218 19.382 43.218 43.211zm33.453 67.509c0 15.578-12.692 28.258-28.276 28.258h-41.792v-56.535h41.792c15.584.001 28.276 12.681 28.276 28.277zm-119.883-67.509c0 9.42 3.091 18.559 8.73 26.038h51.188l-51.55-51.556c-5.259 7.153-8.368 15.976-8.368 25.518zm-33.453 67.497c0-15.584 12.686-28.264 28.27-28.264h41.798v56.535h-41.833c-15.572-.012-28.235-12.687-28.235-28.271zm14.357-314.677c17.793 8.321 34.073 23.724 44.322 41.102.689 2.092 1.42 4.166 2.209 6.211-19.225-9.6-36.188-26.651-46.531-47.313zm59.036-50.692c.17-.426.327-.836.485-1.262.14.415.292.83.438 1.245 9.741 26.914 10.805 56.681 3.617 82.561-1.572 2.957-3.033 5.943-4.371 8.923-.853-1.718-1.759-3.413-2.717-5.101-8.496-27.441-7.877-60.328 2.548-86.366zm43.217 52.679c14.165-14.159 30.374-25.261 46.665-32.08-6.825 16.297-17.922 32.507-32.08 46.671-10.746 10.74-22.673 19.716-34.926 26.406-3.068.888-6.089 1.876-9.052 2.974 1.099-2.957 2.092-5.984 2.98-9.057 6.692-12.237 15.667-24.169 26.413-34.914zm92.22 51.257c-6.896-3.279-13.791-4.378-20.446-6.784-19.593-7.094-40.612-9.98-60.882-8.783 25.006-20.501 44.901-48.304 52.871-76.729 1.382-4.929-3.215-9.521-8.14-8.14-28.388 7.962-56.267 27.879-76.735 52.877 1.198-20.276-1.683-41.295-8.777-60.894-2.379-6.582-3.608-13.81-6.778-20.44-2.434-5.09-9.707-4.977-11.996.152-2.932 6.568-4.295 13.619-6.802 19.891-8.21 20.493-11.015 44.217-8.666 67.041-10.279-10.483-22.439-19.137-35.393-24.671-4.937-2.12-9.426-5.21-14.977-7.339-5.237-2.01-10.464 3.073-8.578 8.368 2.08 5.84 5.281 10.229 7.69 15.357 12.546 26.792 35.171 48.623 60.555 59.059l-10.787 11.003c-25.103-23.356-63.179-37.041-99.881-35.826-37.041 1.25-69.542 16.922-89.147 43.001-10.717 14.258-12.517 28.276-14.264 41.833-1.677 13.025-3.26 25.325-13.223 37.234l-37.678 40.366c-7.726 8.28-6.052 21.493 3.512 27.569l22.772 14.492c.83.526 1.297 1.046 1.736 1.928l6.241 12.476c1.086 2.177 3.013 3.017 4.984 4.195-.876 1.817-.906 3.979.035 5.843l2.635 5.265c.473.953.608 1.724.473 2.782l-2.974 23.759c-2.228 17.795 13.156 32.666 30.865 29.825l49.242-7.818 1.145 23.332c.362 7.111 6.211 12.68 13.329 12.68h194.269c22.871 0 41.476-18.599 41.476-41.47 0-22.316-17.735-40.565-39.852-41.424 4.184-7.781 6.393-17.251 6.393-26.073 0-29.188-22.269-53.262-50.709-56.131 1.864-12.178 2.752-25.068 2.664-39.192-.164-26.301-8.742-49.961-24.916-69.098l10.933-11.155c10.477 25.308 32.261 47.834 58.983 60.356 4.263 1.997 13.535 8.07 17.553 8.07 4.617 0 7.831-4.64 6.171-8.97-2.096-5.467-5.222-10.037-7.339-14.976-5.534-12.937-14.182-25.109-24.682-35.388 22.651 2.357 46.348-.373 67.053-8.66 6.313-2.527 13.194-3.825 19.897-6.808 5.116-2.276 5.222-9.561.145-11.985z" fill-rule="evenodd"/></svg>