<?xml version="1.0" encoding="UTF-8"?> <svg xmlns="http://www.w3.org/2000/svg" id="Capa_1" height="512" viewBox="0 0 512.001 512.001" width="512"><g><path d="m249.989 182.728c0 4.142 3.358 7.5 7.5 7.5 4.143 0 7.5-3.358 7.5-7.5v-114.315c0-4.592 1.814-8.886 5.105-12.089 3.29-3.202 7.624-4.89 12.238-4.77 9.035.248 16.386 8.038 16.386 17.365v18.105c0 4.142 3.357 7.5 7.5 7.5s7.5-3.358 7.5-7.5v-18.104c0-17.375-13.896-31.891-30.976-32.359-6.371-.181-12.491 1.503-17.754 4.801v-9.496c0-8.677-3.426-16.788-9.645-22.84-6.219-6.05-14.425-9.258-23.11-9.013-17.08.468-30.976 14.984-30.976 32.359v8.989c-5.262-3.297-11.376-4.974-17.754-4.801-17.08.468-30.975 14.984-30.975 32.359v8.99c-5.262-3.298-11.378-4.981-17.755-4.802-17.079.468-30.975 14.984-30.975 32.359v127.486c0 4.142 3.358 7.5 7.5 7.5s7.5-3.358 7.5-7.5v-127.485c0-9.328 7.351-17.118 16.386-17.365 4.603-.128 8.948 1.568 12.239 4.77 3.292 3.203 5.105 7.497 5.105 12.089v77.768c0 4.142 3.358 7.5 7.5 7.5s7.5-3.358 7.5-7.5v-113.809c0-9.328 7.351-17.118 16.386-17.365 4.596-.125 8.947 1.568 12.238 4.769 3.292 3.204 5.105 7.497 5.105 12.089v114.315c0 4.142 3.358 7.5 7.5 7.5s7.5-3.358 7.5-7.5v-150.356c0-9.328 7.351-17.118 16.387-17.365 4.592-.126 8.947 1.568 12.238 4.769 3.292 3.204 5.105 7.497 5.105 12.089v150.863z"></path><path d="m407.436 258.702c-2.503-8.925-8.68-16.45-16.946-20.644s-17.985-4.734-26.666-1.482l-50.104 18.77v-135.634c0-4.142-3.357-7.5-7.5-7.5s-7.5 3.358-7.5 7.5v139.24c0 4.098 2.011 7.938 5.378 10.273 3.368 2.334 7.668 2.872 11.507 1.433l53.482-20.035c4.829-1.809 10.02-1.52 14.618.812 4.598 2.333 7.897 6.351 9.289 11.317.638 2.272-.255 4.676-2.222 5.981l-101.289 67.248c-4.898 3.251-7.822 8.701-7.822 14.58v146.188c0 .139-.112.251-.251.251h-23.82c-4.142 0-7.5 3.358-7.5 7.5s3.358 7.5 7.5 7.5h23.82c8.409 0 15.251-6.842 15.251-15.251v-146.188c0-.839.418-1.618 1.118-2.083l101.29-67.248c7.404-4.916 10.767-13.969 8.367-22.528z"></path><path d="m224.9 497.001h-67.977c-.138 0-.251-.113-.251-.251v-146.358c0-5.692-2.78-11.043-7.436-14.316l-20.818-14.636c-6.024-4.234-9.62-11.159-9.62-18.522v-37.278c0-4.142-3.358-7.5-7.5-7.5s-7.5 3.358-7.5 7.5v37.278c0 12.242 5.979 23.754 15.993 30.793l20.818 14.636c.665.468 1.062 1.232 1.062 2.045v146.358c0 8.41 6.842 15.251 15.251 15.251h67.978c4.142 0 7.5-3.358 7.5-7.5s-3.358-7.5-7.5-7.5z"></path><path d="m253.266 448.918-23.33-23.331 23.33-23.331c2.929-2.929 2.929-7.678 0-10.606-2.929-2.929-7.678-2.929-10.607 0l-23.33 23.331-23.33-23.331c-2.928-2.929-7.677-2.929-10.606 0s-2.929 7.678 0 10.606l23.33 23.331-23.33 23.331c-2.929 2.929-2.929 7.678 0 10.606 1.464 1.464 3.384 2.197 5.303 2.197 1.92 0 3.839-.732 5.303-2.197l23.33-23.33 23.33 23.33c1.464 1.465 3.384 2.197 5.303 2.197s3.839-.732 5.303-2.197c2.93-2.928 2.93-7.677.001-10.606z"></path></g></svg> 