<?xml version="1.0" encoding="UTF-8"?> <svg xmlns="http://www.w3.org/2000/svg" id="Capa_1" height="512" viewBox="0 0 512 512" width="512"><g><path d="m261.942 337.874 9.053 1.915v-257.827h-127.502v136.072c0 31.625 11.682 58.503 34.722 79.889 20.298 18.842 49.25 32.656 83.727 39.951zm-103.449-119.84v-121.072h97.501v177.209c-17.006-2.231-31.307-11.885-35.404-24.582l-14.275 4.607c6.105 18.916 25.976 32.663 49.68 35.083v31.811c-27.801-7.085-51.031-18.806-67.575-34.161-19.858-18.432-29.927-41.612-29.927-68.895z"></path><path d="m293.493 369.788 9.053-1.915c34.477-7.295 63.429-21.109 83.728-39.95 23.04-21.386 34.722-48.265 34.722-79.889v-136.072h-127.503zm112.502-242.826v121.072c0 27.283-10.068 50.463-29.927 68.895-16.543 15.355-39.774 27.076-67.575 34.161v-71.118c17.007 2.231 31.307 11.884 35.405 24.582l14.275-4.607c-6.105-18.916-25.976-32.663-49.681-35.083v-137.902z"></path><path d="m215.279 169.285c4.727 0 8.571 3.845 8.571 8.571h15c0-12.997-10.574-23.571-23.571-23.571s-23.571 10.574-23.571 23.571h15c0-4.726 3.845-8.571 8.571-8.571z"></path><path d="m365.684 218.077-17.427-17.426 23.107-23.106-10.605-10.607-33.715 33.713 28.032 28.034z"></path><path d="m358.248 60h15v15h-15z"></path><path d="m328.248 45h15v15h-15z"></path><path d="m184.22 430.167h-90.594v-85.604h-45.817c-2.983 0-5.658-1.172-7.155-3.134-2.147-2.815-1.668-6.805-.887-9.655l31.978-116.705v-1.009c0-49.66 17.238-97.271 48.539-134.06l-11.424-9.721c-33.394 39.249-51.88 89.91-52.113 142.763l-31.447 114.768c-2.369 8.646-1.151 16.715 3.428 22.717 4.381 5.743 11.336 9.036 19.081 9.036h30.817v85.604h90.594v66.833h152.123v-15h-137.123z"></path><path d="m420.354 58.966c-41.982-38.025-98.663-58.966-159.605-58.966-53.463 0-103.541 20.756-141.01 58.444l10.638 10.576c34.633-34.835 80.933-54.02 130.372-54.02 57.212 0 110.317 19.562 149.535 55.083 40.366 36.562 62.598 87.694 62.598 143.977 0 55.402-22.484 107.341-63.312 146.246-43.229 41.193-43.229 81.241-43.229 110.482v26.212h-29.999v15h44.999v-41.212c0-28.007 0-62.863 38.576-99.623 43.827-41.765 67.964-97.559 67.964-157.105.001-60.572-23.981-115.652-67.527-155.094z"></path></g></svg> 