<?xml version="1.0"?>
<svg xmlns="http://www.w3.org/2000/svg" id="Line" viewBox="0 0 64 64"><path d="M57.16136,22.90128C54.43619,6.31347,38.6093,1.28377,25.922,5.323,11.77572,9.98239,12.67268,24.06644,12.99609,26.84231a.98633.98633,0,0,1-.194.70594L6.85322,35.48943a1.00784,1.00784,0,0,0,.37912,1.50762l4.00892,1.86134A4.92372,4.92372,0,0,0,13.29915,45.672a4.26274,4.26274,0,0,0-.41338,4.41255,3.89865,3.89865,0,0,0,3.02835,2.05868l6.84051.74649a1.24036,1.24036,0,0,1,1.0909,1.07821,12.05616,12.05616,0,0,1-.22326,4.689,1.00614,1.00614,0,0,0,.94045,1.343c1.9385-.02745,1.39452-5.738,1.19007-6.5872,1.88441-.743,5.6103-2.68915,5.40273-6.425a1.00082,1.00082,0,0,0-1.99811.11145c.14582,2.623-3.11651,4.08216-4.44057,4.56484a3.22892,3.22892,0,0,0-1.74579-.76359l-6.84-.74648a1.8751,1.8751,0,0,1-1.47539-1.003c-.70658-1.10094.45736-2.52495.91605-3.48476a1.00078,1.00078,0,0,0-.53939-1.41185,3.39075,3.39075,0,0,1-2.28586-1.93559c-.50173-1.53157.69177-3.34746.702-3.36261a1.00728,1.00728,0,0,0-.407-1.46853l-3.84673-1.7861,5.20879-6.95336a2.976,2.976,0,0,0,.57989-2.13735c-.40988-3.51943-.78752-15.31859,11.56467-19.38713a23.96528,23.96528,0,0,1,16.67965.5027A19.04877,19.04877,0,0,1,55.18034,23.18268c.11807.17615.49536,6.23526-.81461,8.33591a66.67547,66.67547,0,0,1-5.0112,9.65449,3.06409,3.06409,0,0,0-.58038,1.642,53.253,53.253,0,0,0,1.00052,12.72788,1.00086,1.00086,0,0,0,1.95706-.41922,52.08473,52.08473,0,0,1-.95849-12.2217,1.06089,1.06089,0,0,1,.21154-.56865A50.77678,50.77678,0,0,0,57.04487,29.696,24.89765,24.89765,0,0,0,57.16136,22.90128Z"/><path d="M34.96416,9.45281A14.73511,14.73511,0,0,0,20.2455,24.17148c.80824,19.52636,28.63207,19.52068,29.43736-.00011A14.73513,14.73513,0,0,0,34.96416,9.45281Zm0,27.43628A12.73207,12.73207,0,0,1,22.24655,24.17148C22.9452,7.29984,46.9857,7.30475,47.6818,24.17157A12.73209,12.73209,0,0,1,34.96416,36.88909Z"/><path d="M35.32764,14.17306a3.22678,3.22678,0,0,0-3.82621,3.25668l.36345,7.33238a3.10485,3.10485,0,0,0,6.19857-.00058l.363-7.33139A3.11659,3.11659,0,0,0,35.32764,14.17306Zm.73769,10.4894a1.10374,1.10374,0,0,1-2.20233.00042L33.5,17.331a1.09337,1.09337,0,0,1,.3024-.81488c.34554-.42921,1.04115-.3366,1.52524-.34195A1.10714,1.10714,0,0,1,36.4283,17.331Z"/><path d="M34.96416,29.051a3.00176,3.00176,0,0,0,.0001,6.00315A3.00176,3.00176,0,0,0,34.96416,29.051Zm0,4.0021a1.00071,1.00071,0,0,1,.00007-2.001A1.00071,1.00071,0,0,1,34.96416,33.05309Z"/></svg>
