<svg id="Capa_1" enable-background="new 0 0 511.978 511.978" height="512" viewBox="0 0 511.978 511.978" width="512" xmlns="http://www.w3.org/2000/svg"><g><path d="m178.315 439.953c-12.32-9.475-24.927-5.684-37.117-2.02-4.554 1.369-9.262 2.785-14.137 3.598-18.123 3.018-39.212-.071-44.048-17.805-1.726-6.513.597-11.809 4.326-17.534 5.991-10.484 3.422-21.342-2.395-25.388-2.353-1.526-3.698-2.136-7.719-3.954-1.203-.628-3.223-1.971-3.229-3.911-.004-1.397 1.055-2.827 2.765-3.731 2.419-1.28 3.93-3.786 3.973-6.523.042-2.736-1.428-5.288-3.806-6.643-.9-.514-3.6-2.327-5.251-4.528-1.831-2.442-1.491-2.738-.061-3.986 9.805-8.551 8.192-23.081 5.695-30.318-.915-2.65-3.232-4.569-6.008-4.975l-17.411-2.539c-3.352-.488-6.604-1.752-9.404-3.653-2.753-1.868-4.396-4.97-4.396-8.295 0-2.446.885-4.794 2.491-6.61 12.071-13.647 21.283-29.945 28.16-49.823 1.093-3.156 2.074-6.411 2.917-9.676 2.031-7.867.826-16.327-3.306-23.21-2.224-3.702-4.615-9.407-3.384-15.563.988-4.94 2.615-8.33 4.5-12.254 2.691-5.604 5.742-11.956 6.639-22.711.344-4.128-2.725-7.753-6.852-8.098-4.139-.354-7.753 2.725-8.098 6.852-.666 8-2.772 12.386-5.211 17.464-2.029 4.225-4.329 9.014-5.688 15.806-2.172 10.858 1.647 20.256 5.232 26.227 2.077 3.459 2.676 7.737 1.643 11.739-.742 2.875-1.606 5.741-2.568 8.52-6.224 17.989-14.474 32.641-25.222 44.791-4.033 4.561-6.255 10.438-6.255 16.548 0 8.302 4.101 16.042 10.97 20.705 4.666 3.168 10.083 5.272 15.665 6.087l12.304 1.794c.423 3.419.246 7.691-2.274 9.89-7.684 6.701-8.461 15.782-2.08 24.291.702.937 1.456 1.806 2.224 2.603-1.879 2.957-2.915 6.354-2.904 9.868.021 7.071 4.242 13.488 11.29 17.165 1.247.654 5.309 2.487 5.309 2.487.235.992.347 3.267-1.28 6.114-3.659 6.235-9.323 14.787-5.773 28.923 6.15 22.556 30.088 33.804 60.985 28.653 5.813-.97 11.219-2.595 15.988-4.028 11.454-3.442 17.709-5.028 23.653-.456 8.942 6.88 18.228 18.54 19.296 52.866.126 4.061 3.458 7.267 7.492 7.267.078 0 .158-.001.237-.004 4.14-.129 7.392-3.589 7.263-7.729-1.259-40.581-13.415-55.272-25.14-64.293z"/><path d="m437.747 69.098c-31.374-33.305-70.619-54.872-116.646-64.104-37.8-7.582-80.051-6.515-122.185 3.089-61.572 14.033-96.022 49.017-114.08 75.894-8.548 12.725-13.396 23.409-16.732 36.88-.995 4.021 1.457 8.087 5.478 9.083 4.021.992 8.087-1.457 9.083-5.478 3.371-13.61 8.283-22.684 14.623-32.12 16.544-24.624 48.184-56.693 104.963-69.634 52.632-11.996 151.798-20.585 224.579 56.675 63.799 67.726 59.847 176.026-9.397 257.515-14.423 16.973-21.521 38.368-19.989 60.246.231 3.307.53 6.705.888 10.102.406 3.853 3.66 6.715 7.45 6.715.263 0 .528-.014.795-.042 4.119-.435 7.106-4.126 6.673-8.245-.34-3.223-.623-6.444-.843-9.577-1.257-17.943 4.588-35.518 16.456-49.485 36.101-42.483 56.685-94.011 57.958-145.091 1.257-50.466-16.171-97.494-49.074-132.423z"/><path d="m418.614 439.095c-.859-4.053-4.851-6.644-8.894-5.778-4.052.86-6.64 4.842-5.778 8.894 4.487 21.134 10.985 42.978 19.314 64.927 1.137 2.996 3.987 4.841 7.013 4.841.885 0 1.784-.157 2.66-.49 3.872-1.469 5.82-5.8 4.351-9.673-8.056-21.234-14.337-42.336-18.666-62.721z"/><path d="m292.989 136.204h14.269l-19.65 20.244c-2.099 2.162-2.699 5.37-1.525 8.146 1.174 2.774 3.895 4.578 6.907 4.578h32c4.143 0 7.5-3.357 7.5-7.5s-3.357-7.5-7.5-7.5h-14.269l19.65-20.244c2.099-2.162 2.699-5.37 1.525-8.146-1.174-2.774-3.895-4.578-6.907-4.578h-32c-4.143 0-7.5 3.357-7.5 7.5s3.358 7.5 7.5 7.5z"/><path d="m185.082 251.381c1.174 2.774 3.895 4.578 6.907 4.578h32c4.143 0 7.5-3.357 7.5-7.5s-3.357-7.5-7.5-7.5h-14.268l19.649-20.243c2.099-2.162 2.699-5.37 1.525-8.146-1.174-2.774-3.895-4.578-6.907-4.578h-32c-4.143 0-7.5 3.357-7.5 7.5s3.357 7.5 7.5 7.5h14.268l-19.649 20.243c-2.098 2.163-2.699 5.371-1.525 8.146z"/><path d="m391.595 100.677c-2.665-3.171-7.397-3.582-10.566-.914-3.171 2.665-3.58 7.396-.914 10.566 21.522 25.6 33.375 58.146 33.375 91.646 0 78.575-63.925 142.5-142.5 142.5s-142.5-63.925-142.5-142.5 63.925-142.5 142.5-142.5c30.898 0 60.291 9.722 84.999 28.115 3.324 2.473 8.021 1.785 10.495-1.538 2.473-3.322 1.784-8.021-1.538-10.495-27.316-20.334-59.806-31.082-93.956-31.082-86.846 0-157.5 70.654-157.5 157.5s70.654 157.5 157.5 157.5 157.5-70.654 157.5-157.5c-.001-37.025-13.103-73-36.895-101.298z"/><path d="m232.678 323.617c12.353 3.888 25.242 5.858 38.312 5.858 28.607 0 55.643-9.263 78.185-26.786 1.698-1.32 2.748-3.307 2.882-5.454s-.661-4.249-2.182-5.771l-168.375-168.373c-1.522-1.521-3.63-2.312-5.771-2.182-2.147.134-4.134 1.184-5.454 2.883-17.523 22.542-26.786 49.578-26.786 78.184 0 42.256 20.886 81.691 55.868 105.49 3.427 2.331 8.091 1.44 10.42-1.982 2.33-3.425 1.442-8.09-1.982-10.42-30.874-21.003-49.306-55.803-49.306-93.088 0-22.37 6.417-43.648 18.639-62.043l103.098 103.098-25.699 27.304c-2.05 2.18-2.609 5.368-1.423 8.115s3.893 4.525 6.885 4.525h60.182l12.861 12.861c-18.393 12.222-39.672 18.639-62.043 18.639-11.54 0-22.914-1.738-33.808-5.167-3.955-1.24-8.162.952-9.406 4.902-1.243 3.952.953 8.163 4.903 9.407zm44.67-55.641 13.49-14.333 14.333 14.333z"/><path d="m365.782 283.056c.155 0 .311-.005.467-.015 2.147-.134 4.134-1.184 5.454-2.882 17.523-22.542 26.786-49.577 26.786-78.184 0-70.304-57.196-127.5-127.5-127.5-28.606 0-55.642 9.262-78.183 26.784-1.699 1.321-2.749 3.308-2.883 5.455s.661 4.249 2.182 5.771l168.374 168.375c1.411 1.41 3.32 2.196 5.303 2.196zm-94.793-193.58c62.033 0 112.5 50.467 112.5 112.5 0 22.371-6.417 43.649-18.638 62.042l-43.159-43.159 23.758-25.242c2.051-2.18 2.61-5.368 1.424-8.115s-3.893-4.525-6.885-4.525h-56.18l-74.862-74.862c18.394-12.222 39.672-18.639 62.042-18.639zm27.821 108.5h23.821l-11.55 12.271z"/></g></svg>