<?xml version="1.0" encoding="UTF-8"?> <svg xmlns="http://www.w3.org/2000/svg" id="Capa_1" height="512" viewBox="0 0 511.979 511.979" width="512"><g><path d="m459.255 213.709-70.706 70.728c-6.452 6.449-10.903 14.565-12.871 23.473l-11.792 53.392c-.894 4.045 1.661 8.048 5.706 8.941 4.044.89 8.047-1.662 8.941-5.706l11.792-53.392c1.35-6.109 4.402-11.675 8.827-16.098l36.657-36.632c.658-.658 1.427-.753 1.825-.749.4.003 1.168.108 1.818.776 10.32 10.616 11.116 27.289 1.874 38.837l-18.507 21.23c-1.202 1.379-1.859 3.149-1.847 4.979l.321 47.99c.204 30.518-16.28 58.61-43.019 73.315-15.342 8.429-30.758 16.957-43.75 24.096-10.551 5.769-20.517 11.218-29.651 20.353-2.929 2.929-2.929 7.678 0 10.606 1.464 1.464 3.384 2.197 5.303 2.197s3.839-.732 5.303-2.197c4.245-4.245 8.809-7.59 13.748-10.667l11.043 10.74c1.458 1.418 3.344 2.124 5.229 2.124 1.954 0 3.907-.759 5.377-2.271 2.888-2.969 2.822-7.718-.147-10.605l-7.928-7.711c11.266-6.196 27.331-15.073 42.703-23.521 31.569-17.361 51.03-50.529 50.79-86.559l-.302-45.152 16.739-19.203c.062-.071.122-.143.181-.216 14.094-17.45 12.932-42.738-2.704-58.822-.67-.689-1.397-1.299-2.153-1.861l21.807-21.812c2.929-2.929 2.928-7.678-.001-10.606-2.928-2.927-7.677-2.926-10.606.003z"></path><path d="m499.335 133.685c-6.603-6.604-17.214-6.884-24.158-.641l-47.6 42.801v-7.049c0-9.52-7.645-17.274-17.116-17.481.602-11.203-5.867-23.402-15.061-29.531l46.147-68.713c4.216-6.277 5.671-13.808 4.099-21.204s-5.965-13.683-12.371-17.703c-6.467-4.057-14.408-5.269-21.792-3.32-7.382 1.948-13.693 6.92-17.315 13.641l-9.484 17.596c-1.965 3.646-.603 8.195 3.043 10.161 3.648 1.966 8.196.603 10.161-3.043l9.484-17.597c1.685-3.126 4.505-5.348 7.939-6.254 3.436-.906 6.984-.365 9.991 1.522 2.937 1.843 4.951 4.726 5.672 8.116.721 3.391.053 6.844-1.879 9.722l-47.997 71.467c-1.664-.248-3.366-.379-5.099-.379-1.843 0-3.669.145-5.469.434-1.358-2.576-3.04-4.936-4.965-7.059l15.794-29.305c1.965-3.646.603-8.195-3.044-10.16-3.644-1.965-8.195-.603-10.16 3.043l-14.934 27.708c-4.107-1.712-8.579-2.661-13.223-2.661-3.006 0-6.007.399-8.907 1.174-6.317-9.4-16.903-15.174-28.593-15.174-6.434 0-12.647 1.789-18.009 5.075-6.315-9.21-16.929-15.075-28.489-15.075s-22.174 5.866-28.491 15.075c-5.362-3.287-11.575-5.075-18.009-5.075-11.69 0-22.276 5.773-28.593 15.174-2.899-.775-5.901-1.174-8.907-1.174-12.973 0-24.661 7.299-30.531 18.434-1.8-.289-3.626-.434-5.469-.434-18.664-.1-35.25 16.09-34.461 35.519-9.472.206-17.117 7.96-17.117 17.481v7.049l-47.599-42.801c-6.943-6.243-17.554-5.963-24.158.641-8.167 8.167-12.665 19.025-12.665 30.575s4.498 22.409 12.665 30.575l51.28 51.291c-.756.562-1.483 1.172-2.153 1.861-15.635 16.084-16.797 41.372-2.704 58.822.122.163 16.586 19.027 16.92 19.418l-.302 45.152c-.095 14.267 2.838 28.086 8.718 41.077 1.254 2.77 3.982 4.409 6.837 4.409 1.034 0 2.085-.215 3.088-.669 3.773-1.708 5.448-6.152 3.74-9.925-4.979-11.001-7.464-22.707-7.383-34.791l.321-47.991c.012-1.829-.645-3.6-1.847-4.979l-18.507-21.23c-9.242-11.548-8.446-28.221 1.874-38.837.65-.669 1.419-.774 1.819-.777.387 0 1.167.091 1.826.749l36.656 36.631c4.425 4.422 7.478 9.989 8.828 16.098l11.792 53.392c.894 4.045 4.895 6.599 8.941 5.706 4.044-.894 6.599-4.896 5.706-8.941l-11.793-53.393c-1.968-8.907-6.418-17.024-12.871-23.472l-100.18-100.207c-11.011-11.011-11.011-28.927 0-39.938.963-.963 2.509-1.003 3.522-.093l122.869 110.482c6.719 6.042 12.198 13.191 16.287 21.249l38.848 76.573c9.987 19.811 24.301 39.397 40.58 55.13l-64.087 63.642c-2.257-1.424-4.679-2.849-7.387-4.343-11.034-6.088-25.866-14.265-40.178-22.137-6.238-3.431-12.013-7.65-17.165-12.543-3.003-2.852-7.75-2.731-10.603.274-2.852 3.003-2.73 7.75.274 10.603 6.083 5.777 12.901 10.76 20.265 14.81 14.306 7.868 29.131 16.041 40.161 22.127 1.297.716 2.512 1.41 3.672 2.094l-7.114 7.065c-2.939 2.919-2.956 7.667-.037 10.606 1.466 1.477 3.394 2.215 5.322 2.215 1.911 0 3.822-.726 5.285-2.178l94.874-94.215c15.597-15.597 28.566-33.479 38.545-53.15l38.848-76.573c4.088-8.058 9.568-15.207 16.286-21.249l122.87-110.483c1.011-.911 2.559-.869 3.521.094 11.011 11.011 11.011 28.927 0 39.938l-4.709 4.71c-2.929 2.929-2.928 7.678.001 10.606 2.929 2.929 7.678 2.929 10.606-.001l4.709-4.71c16.858-16.858 16.858-44.29-.001-61.149zm-363.335-2.889c2.471 0 4.888.462 7.184 1.373 1.985.789 4.212.692 6.121-.264 1.91-.955 3.322-2.679 3.882-4.74 2.3-8.46 10.037-14.369 18.813-14.369 3.153 0 6.167.734 8.958 2.182 1.881.977 4.087 1.11 6.072.37 1.986-.74 3.565-2.286 4.349-4.254 2.974-7.471 10.086-12.298 18.121-12.298 5.719 0 11.132 2.505 14.851 6.873 1.79 2.102 4.589 3.05 7.291 2.469 2.699-.582 4.861-2.601 5.625-5.254 2.391-8.294 10.094-14.087 18.732-14.087s16.341 5.793 18.732 14.087c.765 2.654 2.926 4.672 5.625 5.254 2.701.582 5.501-.366 7.291-2.469 3.719-4.368 9.132-6.873 14.851-6.873 8.034 0 15.147 4.827 18.121 12.298.784 1.968 2.363 3.514 4.349 4.254s4.191.606 6.072-.37c2.791-1.448 5.805-2.182 8.958-2.182 8.776 0 16.513 5.909 18.813 14.369.56 2.061 1.972 3.785 3.882 4.74 1.91.956 4.137 1.051 6.121.264 2.295-.911 4.712-1.373 7.184-1.373 10.444-.087 20.091 9.37 19.462 20.5h-278.921c-.744-10.379 8.417-20.546 19.461-20.5zm-34.078 35.5h308.155c1.378 0 2.5 1.122 2.5 2.5v12.5h-184.79c-4.142 0-7.5 3.358-7.5 7.5s3.358 7.5 7.5 7.5h177.047l-16.682 15h-264.304l-16.682-15h85.621c4.142 0 7.5-3.358 7.5-7.5s-3.358-7.5-7.5-7.5h-93.365v-12.5c0-1.379 1.122-2.5 2.5-2.5zm156.148 228.731-2.048 2.034c-14.818-14.184-28.374-32.624-37.848-51.345l-5.076-10.005c4.259.383 8.541.584 12.824.584h60.155c4.283 0 8.565-.201 12.824-.584l-5.076 10.005c-9.261 18.257-21.297 34.854-35.755 49.311zm94.238-151.5c-8.1 7.283-14.706 15.902-19.634 25.616l-25.574 50.41c-6.912 1.154-13.967 1.743-21.022 1.743h-60.155c-7.056 0-14.11-.588-21.022-1.743l-25.574-50.41c-4.928-9.714-11.534-18.333-19.634-25.617l-19.163-17.231h230.941z"></path></g></svg> 