<?xml version="1.0" encoding="UTF-8"?> <svg xmlns="http://www.w3.org/2000/svg" viewBox="0 0 64 64" width="512" height="512"><g id="_07_Stress" data-name="07 Stress"><g><path d="M39,64a8.013,8.013,0,0,1-5.919-2.629,1,1,0,0,1,1.482-1.344A6.007,6.007,0,0,0,39,62a1,1,0,0,1,0,2Z"></path><path d="M47,34a8.99,8.99,0,0,0-7.786,13.5.931.931,0,0,0,.108.14A4.963,4.963,0,0,0,38,51a1,1,0,0,0,2,0,3,3,0,0,1,3-3,1,1,0,0,0,0-2,4.944,4.944,0,0,0-2.073.464A6.986,6.986,0,0,1,47,36a1,1,0,0,0,0-2Z"></path><path d="M24.786,47.5A8.99,8.99,0,0,0,17,34a1,1,0,0,0,0,2,6.986,6.986,0,0,1,6.073,10.464A4.947,4.947,0,0,0,21,46a1,1,0,0,0,0,2,3,3,0,0,1,3,3,1,1,0,0,0,2,0,4.963,4.963,0,0,0-1.322-3.359A.931.931,0,0,0,24.786,47.5Z"></path><path d="M11,55a1,1,0,0,1-1-1,7.008,7.008,0,0,1,7-7,1,1,0,0,1,0,2,5.006,5.006,0,0,0-5,5A1,1,0,0,1,11,55Z"></path><path d="M53,55a1,1,0,0,1-1-1,5.006,5.006,0,0,0-5-5,1,1,0,0,1,0-2,7.008,7.008,0,0,1,7,7A1,1,0,0,1,53,55Z"></path><path d="M32,37a1,1,0,0,0-1,1V56a6.006,6.006,0,0,1-6,6H23.975A4.954,4.954,0,0,0,25,59a5.006,5.006,0,0,0-5-5,1,1,0,0,0,0,2,3,3,0,0,1,0,6C9.666,62,6,54.458,6,48a9.446,9.446,0,0,1,.517-3.025,6.006,6.006,0,0,0,.729.7A1,1,0,1,0,8.5,44.121,4,4,0,0,1,11,37a3.471,3.471,0,0,1,.359.024A6,6,0,0,0,17,41a1,1,0,0,0,0-2,4,4,0,1,1,3.107-6.518,1,1,0,1,0,1.553-1.261,6,6,0,0,0-1.246-1.145,11.066,11.066,0,0,1,3.569-2.138,1,1,0,1,0-.711-1.869,12.67,12.67,0,0,0-4.813,3.116A5.983,5.983,0,0,0,11,35a5.983,5.983,0,0,0-5.723,7.782A11.476,11.476,0,0,0,4,48c0,7.964,4.947,16,16,16h5a8.009,8.009,0,0,0,8-8V38A1,1,0,0,0,32,37Z"></path><path d="M44.666,7.787a1,1,0,0,0-1.333,1.49A5,5,0,0,1,40,18H27a1,1,0,1,0,0,2h7.523l-1.451,3.628a1,1,0,0,0,.222,1.079L35.586,27,31.5,31.086l.487-2.921A1,1,0,0,0,31.6,27.2l-3.158-2.368,1.826-2.192a1,1,0,0,0-1.536-1.28l-2.5,3A1,1,0,0,0,26.4,25.8l3.514,2.635-.9,5.4a1,1,0,0,0,1.693.872l7-7a1,1,0,0,0,0-1.414l-2.534-2.534L36.677,20H40A7,7,0,0,0,44.666,7.787Z"></path><path d="M24,20A7,7,0,0,1,22.8,6.109a9.989,9.989,0,0,1,18.634.584,1,1,0,0,1-1.888.662,7.989,7.989,0,0,0-15.084,0,1,1,0,0,1-.864.666A5,5,0,0,0,24,18a1,1,0,0,1,0,2Z"></path><path d="M58.9,42.57l-.075-.174A5.973,5.973,0,0,0,53,35a5.984,5.984,0,0,0-8.2-5.574.809.809,0,0,0-.061-.1,12.5,12.5,0,0,0-4.367-3.017,1,1,0,0,0-.784,1.841,10.425,10.425,0,0,1,3.478,2.335,6.015,6.015,0,0,0-.724.738,1,1,0,1,0,1.553,1.261A4,4,0,1,1,47,39a1,1,0,0,0,0,2,6,6,0,0,0,5.641-3.976A3.471,3.471,0,0,1,53,37a4,4,0,0,1,2.5,7.121,1,1,0,0,0,1.252,1.559,6.144,6.144,0,0,0,.828-.816A12.255,12.255,0,0,1,58,48c0,6.458-3.667,14-14,14a3,3,0,0,1,0-6,1,1,0,0,0,0-2,5,5,0,0,0,0,10c11.053,0,16-8.036,16-16A13.691,13.691,0,0,0,58.9,42.57Z"></path></g></g></svg> 