<svg id="Layer_1" enable-background="new 0 0 450 450" height="512" viewBox="0 0 450 450" width="512" xmlns="http://www.w3.org/2000/svg"><g><g><path d="m370.4 445.8h-173.2c-2.8 0-5-2.2-5-5v-75.6h-102.3c-2.8 0-5-2.2-5-5v-70.7c-18.2-5.2-28.4-12.7-31.1-22.8-4.6-16.8 13.1-34.7 28.8-50.4l1.9-1.9c5.1-5.2 3.8-9.1-1.7-20-4.7-9.3-10.6-20.9-8-36.3 21.9-130.9 114.7-151.7 168-152.4 52.8-.7 101.6 30.2 130.7 82.6 15.2 27.3 23.5 57.9 24 88.4.6 32.6-8 63.6-24.7 89.7-28.3 44.6 2.1 171.9 2.4 173.2.4 1.5 0 3.1-.9 4.3-1 1.2-2.4 1.9-3.9 1.9zm-168.2-10h161.8c-6-26.9-26.8-132 .3-174.7 30.5-47.5 30.6-113.4.4-167.8-27-48.6-71.8-77.5-120.2-77.5-.5 0-1.1 0-1.6 0-50.2.7-137.6 20.3-158.5 144-2.1 12.2 2.8 21.7 7.1 30.1 5 9.8 10.6 20.8-.1 31.6l-1.9 1.9c-13.1 13.1-29.3 29.5-26.2 40.7 1.9 6.8 11.5 12.6 27.7 16.8 2.2.6 3.8 2.6 3.8 4.8v69.5h102.4c2.8 0 5 2.2 5 5z"/></g><g><g><path d="m154 205.3c-1 0-2-.3-2.8-.9-2.3-1.6-2.9-4.7-1.3-7l31.8-46.4-28.2-48.9c-1.1-1.9-.8-4.3.7-5.9s3.9-2.1 5.8-1.1l56.2 27.4 18.4-52.3c.7-2 2.6-3.3 4.7-3.3s4 1.3 4.7 3.3l18.4 52.3 56.2-27.4c2-1 4.4-.5 5.8 1.1 1.5 1.6 1.8 4 .7 5.9l-28.4 48.9 31.8 46.4c1.6 2.3 1 5.4-1.3 7s-5.4 1-7-1.3l-33.6-49c-1.1-1.6-1.2-3.7-.2-5.3l21.6-37.5-46.4 22.7c-1.3.6-2.8.7-4.1.1-1.3-.5-2.3-1.6-2.8-3l-15.5-44.1-15.5 44.1c-.5 1.3-1.5 2.4-2.8 3-1.3.5-2.8.5-4.1-.1l-46.5-22.7 21.6 37.5c1 1.7.9 3.7-.2 5.3l-33.6 49c-1 1.4-2.5 2.2-4.1 2.2z"/></g><g><g><path d="m287.3 252.7h-21.3c-2.8 0-5-2.2-5-5v-57.7c0-2.8 2.2-5 5-5h21.3c2.8 0 5 2.2 5 5v57.6c0 2.8-2.3 5.1-5 5.1zm-16.3-10h11.3v-47.7h-11.3z"/></g><g><path d="m287.3 286.4h-21.3c-2.8 0-5-2.2-5-5v-17.7c0-2.8 2.2-5 5-5h21.3c2.8 0 5 2.2 5 5v17.7c0 2.7-2.3 5-5 5zm-16.3-10h11.3v-7.7h-11.3z"/></g><g><path d="m203.2 286.4c-.5 0-1.1-.1-1.6-.3-2.2-.7-3.6-2.9-3.4-5.2l2.8-30.8h-9.9c-1.5 0-3-.7-3.9-1.9s-1.3-2.8-1-4.2l12.8-55.1c.5-2.3 2.5-3.9 4.9-3.9h26.8c1.6 0 3.1.8 4 2.1s1.2 3 .7 4.5l-11 34h10.6c1.8 0 3.5 1 4.4 2.6s.8 3.5-.1 5.1l-31.9 50.7c-.9 1.5-2.5 2.4-4.2 2.4zm-5.8-46.3h9.1c1.4 0 2.7.6 3.7 1.6.9 1 1.4 2.4 1.3 3.8l-1.4 15.4 15.9-25.4h-8.3c-1.6 0-3.1-.8-4-2.1s-1.2-3-.7-4.5l11-34h-16z"/></g></g></g></g></svg>