<?xml version="1.0" encoding="UTF-8"?> <svg xmlns="http://www.w3.org/2000/svg" height="512" viewBox="0 0 64 64" width="512"><g id="outline"><path d="m54.471 38.371c3.236-5.317 4.17-11.817 2.561-17.832-2.678-10.004-11.779-16.991-22.135-16.991h-1.476c-12.428 0-22.539 10.111-22.539 22.539v2.99l-4.191 6.441c-.489.751-.628 1.677-.381 2.539s.855 1.573 1.668 1.951l3.01 1.399 1.191 6.788c.606 3.45 3.588 5.954 7.091 5.954h5.518c.723 0 1.354.514 1.5 1.221l.891 4.286c.097.464.506.796.979.796h21.251c.301 0 .586-.136.775-.369.19-.233.265-.54.204-.834l-1.36-6.546c-.538-2.588-.078-5.259 1.297-7.519zm-5.855 5.773c-1.639 2.694-2.188 5.878-1.547 8.965l1.11 5.343h-19.207l-.725-3.489c-.339-1.63-1.794-2.814-3.459-2.814h-5.518c-2.529 0-4.683-1.808-5.12-4.299l-1.282-7.301c-.057-.322-.268-.596-.563-.734l-3.482-1.62c-.292-.135-.501-.38-.59-.689-.088-.309-.04-.627.135-.896l4.354-6.69c.105-.162.162-.352.162-.545v-3.287c0-11.325 9.214-20.539 20.539-20.539h1.476c9.451 0 17.759 6.377 20.202 15.507 1.468 5.49.616 11.422-2.338 16.275zm-32.943-14c-.436-.339-.514-.968-.175-1.403.339-.437.967-.514 1.403-.175 1.207.939 3.266.939 4.473 0 .436-.339 1.062-.262 1.403.175.339.436.261 1.064-.175 1.403-.953.742-2.184 1.15-3.465 1.15s-2.511-.408-3.464-1.15zm2.573 3.497c-.494.972-2.959 5.909-2.959 7.636 0 2.123 1.728 3.851 3.851 3.851s3.851-1.728 3.851-3.851c0-1.727-2.465-6.664-2.959-7.636-.343-.671-1.442-.671-1.784 0zm.892 9.486c-1.021 0-1.851-.83-1.851-1.851 0-.638.854-2.767 1.851-4.899.997 2.133 1.851 4.262 1.851 4.899-.001 1.021-.831 1.851-1.851 1.851zm26.193-24.085c.232-.727.353-1.49.351-2.257-.009-3.823-3.118-7.094-6.932-7.292-2.226-.115-4.254.745-5.671 2.224-1.17-1.048-2.701-1.656-4.298-1.656-3.557 0-6.45 2.894-6.45 6.45 0 .882.206 1.747.557 2.551-1.154.45-1.977 1.566-1.977 2.878 0 1.706 1.389 3.094 3.095 3.094h20.238c1.706 0 3.094-1.388 3.094-3.094-.001-1.325-.836-2.457-2.007-2.898zm-16.551-6.982c1.197 0 2.302.467 3.126 1.291-.26.494-.472 1.02-.618 1.579h-.499c-2.367 0-4.349 1.683-4.812 3.915h-.958c-.439-.699-.689-1.508-.689-2.334 0-2.455 1.996-4.451 4.45-4.451zm15.463 10.973h-20.238c-.604 0-1.095-.491-1.095-1.094s.491-1.095 1.095-1.095h2.87c.553 0 1-.448 1-1 0-1.607 1.308-2.915 2.914-2.915h1.318c.499 0 .922-.368.99-.863.383-2.753 2.762-4.726 5.549-4.578 2.77.144 5.028 2.521 5.035 5.3.002.899-.225 1.789-.656 2.573-.171.31-.165.687.015.991.181.305.508.491.861.491h.342c.604 0 1.094.491 1.094 1.095s-.49 1.095-1.094 1.095z"></path></g></svg> 