<svg id="Layer_1" enable-background="new 0 0 500 500" viewBox="0 0 500 500" xmlns="http://www.w3.org/2000/svg"><path clip-rule="evenodd" d="m277.503 45.418-15.532 34.324c-1.961 4.341 1.247 9.32 6.007 9.32h6.901l-24.875 41.558-24.875-41.558h6.889c4.767 0 7.976-4.977 6.013-9.32l-15.531-34.324zm-55.716 30.443h-8.298c-5.119 0-8.299 5.597-5.668 9.992l36.515 61.005c2.564 4.275 8.77 4.28 11.325 0l36.515-61.005c2.631-4.384-.542-9.992-5.657-9.992h-8.303l15.532-34.324c1.958-4.346-1.253-9.32-6.019-9.32h-75.456c-4.768 0-7.974 4.979-6.013 9.32zm-105.152-10.763-11.371-17.39h21.48l17.834 30.169h-12.078c-5.035 0-8.188 5.406-5.791 9.782l16.893 30.713-39.472-43.066h6.989c5.219 0 8.375-5.838 5.516-10.208zm54.361 102.691c2.271 2.477 6.009 2.837 8.712.9 2.717-1.946 3.547-5.615 1.934-8.543l-37.988-69.069h12.493c5.092 0 8.285-5.569 5.68-9.957l-25.635-43.37c-1.186-2.004-3.354-3.237-5.68-3.237h-37.443c-5.231 0-8.384 5.822-5.528 10.209l11.371 17.39h-9.787c-5.72 0-8.729 6.841-4.862 11.056zm184.423-89.912 17.834-30.169h21.48l-11.365 17.39c-2.871 4.381.29 10.208 5.522 10.208h6.977l-39.472 43.066 16.899-30.713c2.407-4.381-.785-9.782-5.785-9.782zm-35.125 90.812c2.703 1.938 6.439 1.574 8.707-.9l86.739-94.622c3.846-4.2.897-11.056-4.868-11.056h-9.782l11.365-17.39c2.862-4.378-.298-10.209-5.528-10.209h-37.437c-2.331 0-4.488 1.233-5.674 3.237l-25.646 43.37c-2.587 4.379.567 9.957 5.68 9.957h12.493l-37.988 69.069c-1.607 2.929-.772 6.599 1.939 8.544zm100.805 275.592c-4.347 5.434-11.669 9.297-18.915 10.126 5.797-6.72 9.303-15.45 9.303-24.998 0-.9-.181-1.794-.544-2.624l-46.361-107.027c-3.266-7.509-4.727-14.515-4.727-22.707v-7.982h13.259c17.407 0 23.514 18.629 25.337 26.634l26.184 115.173c1.314 5.767-1.199 10.471-3.536 13.405zm-342.188 0c-2.337-2.934-4.856-7.637-3.547-13.405l26.19-115.173c1.817-8.005 7.935-26.634 25.331-26.634h13.259v7.982c0 8.192-1.461 15.199-4.721 22.707l-46.357 107.027c-.362.83-.543 1.724-.543 2.624 0 9.548 3.506 18.278 9.291 24.998-7.234-.83-14.562-4.692-18.903-10.126zm74.433-147.23c0 10.091-1.794 18.71-5.814 27.961l-45.783 105.695c.678 13.276 11.693 23.876 25.138 23.876 10.676 0 20.218-6.796 23.765-16.911.029-.059.047-.117.076-.17l41.809-119.205c2.256-6.416 3.214-12.055 3.214-18.851v-25.033c0-9.011 1.443-16.776 4.675-25.185l9.805-25.5c1.156-2.991-1.005-6.147-4.219-6.147h-28.317c-1.864 0-3.325.935-4.108 2.629l-14.994 32.495c-3.629 7.853-5.247 15.216-5.247 23.864zm154.241-92.665h-13.592c-12.451 0-21.007 12.455-16.537 24.081l9.805 25.501c2.664 6.918 3.798 13.031 3.798 20.446v25.033c0 14.327 3.873 23.003 8.414 35.937-29.469 21.283-69.48 21.289-98.946 0 4.527-12.909 8.42-21.648 8.42-35.937v-25.033c0-7.415 1.134-13.527 3.792-20.446l9.811-25.501c4.459-11.612-4.097-24.081-16.543-24.081h-13.592c32.336-30.072 82.833-30.077 115.17 0zm-111.585 143.894c32.792 21.637 75.207 21.652 107.997 0l32.892 93.763c2.052 5.162 3.687 8.386 7.31 12.54h-188.401c2.936-3.361 5.883-8.127 7.316-12.54zm145.418-95.575-15-32.495c-.783-1.695-2.238-2.629-4.102-2.629h-28.323c-3.205 0-5.371 3.166-4.219 6.153l9.805 25.494c3.237 8.409 4.681 16.174 4.681 25.185v25.033c0 6.796.958 12.435 3.202 18.851l41.821 119.217c.029.053.047.105.064.158 3.547 10.115 13.101 16.911 23.765 16.911 13.446 0 24.46-10.6 25.138-23.876l-45.777-105.683c-4.026-9.256-5.82-17.881-5.82-27.972v-20.482c.001-8.648-1.606-16.005-5.235-23.865zm96.089 175.243c1.928 8.496-.24 17.215-6.095 24.565-7.404 9.273-20.014 15.269-32.109 15.269h-298.602c-12.102 0-24.7-5.995-32.109-15.269-5.861-7.345-8.023-16.069-6.101-24.565l26.19-115.173c5.253-23.11 19.54-36.907 38.204-36.907h13.27c.088-10.349 2.086-19.23 6.451-28.691l14.988-32.495c2.413-5.218 7-8.806 12.44-9.922 18.705-22.988 46.227-36.118 75.97-36.118 29.731 0 57.265 13.13 75.964 36.118 5.44 1.116 10.033 4.704 12.435 9.922l15 32.495c4.365 9.461 6.363 18.342 6.44 28.691h13.27c18.675 0 32.957 13.796 38.21 36.907z" fill-rule="evenodd"/></svg>