<?xml version="1.0" encoding="UTF-8"?> <svg xmlns="http://www.w3.org/2000/svg" id="Layer_1" viewBox="0 0 512 512" data-name="Layer 1"><path d="m310.29 195.509c0 6.047 2.686 11.708 7.368 15.533 2.994 2.445 3.438 6.855.992 9.849-1.383 1.694-3.396 2.572-5.425 2.572-1.558 0-3.125-.517-4.424-1.579-7.951-6.495-12.511-16.108-12.511-26.375s4.56-19.879 12.51-26.375c2.994-2.445 7.404-2.002 9.85.992s2.002 7.404-.992 9.85c-4.683 3.826-7.368 9.487-7.368 15.534zm-73.526-123.467c1.383 1.321 2.165 3.15 2.165 5.062v236.81c0 1.912-.782 3.741-2.165 5.062-7.889 7.535-18.319 11.496-28.852 11.496-6.117 0-12.266-1.335-17.975-4.082-8.11-3.902-14.547-10.282-18.636-17.929-17.398-4.089-30.883-13.929-38.015-27.798-3.074-5.979-4.838-12.432-5.292-19.11-12.565-6.292-21.868-17.678-26.243-32.213-4.803-15.96-2.885-33.567 5.08-47.376-3.137-8.326-3.364-17.619-.334-26.388 3.569-10.333 11.465-18.738 21.438-23.037.052-7.196 1.568-14.192 4.579-20.612 6.914-14.739 20.655-25.105 38.783-29.363 4.089-7.651 10.528-14.034 18.641-17.937 15.539-7.475 34.357-4.496 46.826 7.415zm-11.835 238.671v-22.059c-4.381 3.678-9.747 6.369-16.06 7.446-.398.068-.795.101-1.186.101-3.349 0-6.31-2.411-6.892-5.824-.65-3.811 1.912-7.427 5.723-8.078 11.96-2.041 18.414-13.97 18.414-24.159v-177.835c-8.19-6.329-19.468-7.609-28.922-3.061-10.316 4.963-16.567 15.958-15.555 27.361s9.102 21.126 20.13 24.196c3.725 1.036 5.904 4.896 4.867 8.62-1.036 3.725-4.897 5.906-8.62 4.867-16.613-4.623-28.799-19.269-30.323-36.445-.213-2.4-.205-4.786-.004-7.138-9.869 3.983-17.288 10.585-21.315 19.169-5.126 10.93-4.288 23.875 2.361 36.451 1.807 3.417.501 7.653-2.916 9.46-1.043.552-2.163.813-3.266.813-2.511 0-4.938-1.355-6.194-3.729-2.346-4.437-4.105-8.987-5.314-13.558-4.666 3-8.294 7.519-10.131 12.837-3.071 8.89-.928 18.624 5.591 25.404 2.056 2.137 4.45 3.875 7.118 5.164 3.481 1.682 4.939 5.867 3.257 9.348-1.208 2.5-3.706 3.956-6.308 3.956-1.022 0-2.059-.224-3.041-.699-3.929-1.898-7.471-4.426-10.554-7.505-3.278 9.187-3.578 19.712-.635 29.49 2.621 8.708 7.538 15.848 14.108 20.676.798-3.539 1.926-7.087 3.421-10.609 1.511-3.559 5.623-5.218 9.179-3.708 3.559 1.511 5.219 5.62 3.708 9.179-4.964 11.692-4.906 23.56.164 33.418 4.121 8.014 11.35 14.233 20.766 18.046-.2-2.351-.208-4.735.004-7.133 1.524-17.175 13.71-31.821 30.323-36.444 3.724-1.038 7.583 1.143 8.62 4.867s-1.143 7.584-4.867 8.62c-11.029 3.069-19.119 12.792-20.13 24.195-1.012 11.403 5.239 22.399 15.555 27.362 9.452 4.548 20.731 3.268 28.922-3.061zm-35.659-141.58c-2.993-2.445-7.403-2.002-9.85.992-2.446 2.994-2.002 7.403.992 9.85 4.682 3.826 7.368 9.487 7.368 15.534s-2.686 11.708-7.368 15.533c-2.994 2.446-3.438 6.856-.992 9.85 1.384 1.694 3.396 2.571 5.425 2.571 1.558 0 3.125-.517 4.425-1.579 7.951-6.496 12.51-16.109 12.51-26.375s-4.56-19.88-12.51-26.375zm292.083 119.343c4.569 6.916 8.885 13.449 7.551 23.638-1.643 12.549-14.072 15.334-23.148 17.368-6.59 1.477-13.403 3.003-15.375 7.026-.927 1.893-.17 9.405 1.688 13.142 4.153 8.355 3.108 14.264 1.5 17.75-1.111 2.406-3.283 5.377-7.526 7.585 3.137 2.132 5.536 5.355 6.692 9.197 2.002 6.65.078 13.867-5.148 19.403-.006.7.088 2.083.634 4.488 2.894 12.719 6.856 30.14-8.95 43.113-9.155 7.514-23.319 6.977-38.253 5.688-.106-.009-.212-.021-.317-.035-4.834-.641-9.758-1.509-14.519-2.349-16.397-2.892-31.884-5.624-46.535-.51-12.976 4.529-22.537 31.176-28.864 48.81l-.206.573c-.998 2.78-3.634 4.635-6.588 4.635h-190.253c-2.098 0-4.085-.941-5.415-2.564s-1.861-3.757-1.448-5.814c9.24-46.008 7.828-86.707-4.695-130.325l-50.238 55.462c-1.366 1.509-3.267 2.301-5.191 2.301-1.231 0-2.471-.324-3.588-.992-2.864-1.712-4.122-5.208-3.005-8.353l20.685-58.217h-31.943c-2.503 0-4.815-1.336-6.065-3.505s-1.247-4.839.008-7.004l42.631-73.575c-15.277-38.359-23.591-72.713-15.481-114.001 10.615-54.025 42.675-99.283 90.274-127.436 31.708-18.754 68.644-29.102 106.815-29.924 37.691-.806 75.369 7.622 108.989 24.389 12.207 6.087 23.585 13.172 33.955 21.087l22.655-39.099c1.252-2.161 3.56-3.491 6.057-3.491h42.196c2.501 0 4.812 1.334 6.062 3.5s1.25 4.834 0 7l-19.217 33.286h35.327c2.769 0 5.277 1.632 6.399 4.163 1.123 2.531.647 5.485-1.211 7.537l-46.375 51.197c4.034 9.215 7.054 18.786 8.984 28.518 5.229 26.371 2.616 52.816.31 76.149-.248 2.513-.494 5-.727 7.458.495 7.361 10.676 31.833 29.088 60.015.624.967 1.213 1.858 1.78 2.717zm-94.812-205.012h29.712c2.274 0 4.407 1.105 5.719 2.963s1.639 4.238.877 6.381l-12.282 34.567 17.813-19.665c.013-.015.027-.03.04-.044l38.897-42.942h-31.666c-2.501 0-4.812-1.334-6.062-3.5s-1.25-4.834 0-7l19.217-33.286h-26.038l-36.229 62.526zm-309.19 271.378-12.282 34.567 56.75-62.651h-31.667c-2.501 0-4.812-1.334-6.062-3.5s-1.25-4.834 0-7l19.218-33.286h-26.038l-36.229 62.527h29.713c2.274 0 4.407 1.105 5.719 2.963s1.639 4.237.877 6.381zm392.32-58.648c-.594-.898-1.21-1.831-1.841-2.809-17.863-27.341-31.06-55.801-31.359-67.641-.007-.278.002-.557.028-.834.249-2.634.512-5.301.779-7.999 2.318-23.458 4.715-47.713-.11-72.049-1.326-6.684-3.235-13.286-5.678-19.731l-34.053 37.594c-.207.229-.43.435-.66.631 4.186 15.509 2.15 32.369-5.538 45.698 3.137 8.326 3.364 17.619.334 26.388-3.569 10.333-11.464 18.737-21.437 23.036-.052 7.196-1.568 14.192-4.58 20.612-6.913 14.738-20.655 25.104-38.783 29.362-4.089 7.651-10.528 14.034-18.641 17.938-5.708 2.746-11.859 4.082-17.975 4.082-10.534 0-20.962-3.96-28.852-11.496-1.383-1.321-2.165-3.15-2.165-5.062v-236.81c0-1.912.782-3.741 2.165-5.062 12.47-11.91 31.288-14.889 46.826-7.414 8.11 3.902 14.547 10.282 18.637 17.93 18.247 4.286 32.052 14.778 38.911 29.636 2.537 5.495 3.998 11.308 4.411 17.278 7.646 3.832 14.085 9.544 18.935 16.715l17.311-48.722h-31.943c-2.503 0-4.815-1.336-6.065-3.505-1.25-2.168-1.247-4.839.008-7.004l14.614-25.222c-10.039-7.819-21.156-14.792-33.13-20.764-31.597-15.758-67.025-23.678-102.439-22.92-35.772.77-70.348 10.444-99.99 27.977-44.116 26.093-73.829 68.03-83.664 118.085-7.365 37.501.212 69.31 14.25 104.86h37.457c2.501 0 4.812 1.334 6.062 3.5s1.25 4.834 0 7l-19.218 33.286h35.328c2.769 0 5.277 1.632 6.399 4.163 1.123 2.531.647 5.485-1.211 7.537l-29.639 32.72c9.538 30.149 19.663 75.658 9.015 136.822h176.894c7.534-20.824 17.882-46.924 35.967-53.236 18.099-6.318 36.137-3.135 53.58-.059 4.773.842 9.284 1.638 13.77 2.237 13.52 1.16 23.455 1.16 28.007-2.576 8.677-7.122 7.241-15.731 4.18-29.187-.72-3.167-2.852-12.544 2.977-17.354 2.348-2.576 2.037-4.764 1.783-5.606-.119-.395-.606-1.702-1.891-1.974-.396-.083-.783-.202-1.158-.352-5.022-2.016-9.269-4.088-12.622-6.16l-.101-.062c-2.143-1.313-3.417-3.675-3.339-6.188s1.498-4.79 3.719-5.966c3.432-1.819 7.359-2.718 10.825-3.511.812-.186 1.603-.366 2.352-.553 2.383-.596 3.505-1.406 3.742-1.919.265-.576.286-2.414-1.324-5.651-2.5-5.026-5.571-17.677-1.723-25.534 4.93-10.056 15.995-12.535 24.886-14.527 8.267-1.853 12.009-3.09 12.328-5.524.631-4.82-1.077-7.637-5.35-14.104zm-91.331-65.323c3.071-8.89.928-18.625-5.591-25.404-2.056-2.138-4.45-3.875-7.116-5.163-3.481-1.682-4.94-5.867-3.259-9.348 1.682-3.481 5.869-4.941 9.348-3.259 3.928 1.897 7.472 4.425 10.555 7.505 3.278-9.187 3.578-19.713.635-29.491-2.616-8.694-7.523-15.825-14.079-20.653-1.201 5.287-3.178 10.591-5.937 15.809-1.256 2.375-3.684 3.729-6.194 3.729-1.104 0-2.223-.262-3.266-.813-3.417-1.807-4.723-6.042-2.916-9.46 6.606-12.495 7.476-25.373 2.449-36.262-4-8.664-11.459-15.34-21.403-19.356.201 2.352.209 4.738-.004 7.137-1.524 17.175-13.709 31.821-30.322 36.444-3.726 1.038-7.584-1.143-8.621-4.867-1.037-3.725 1.143-7.584 4.867-8.621 11.028-3.069 19.118-12.792 20.13-24.195s-5.238-22.399-15.554-27.361c-9.451-4.546-20.73-3.268-28.922 3.061v22.059c4.381-3.678 9.747-6.369 16.059-7.446 3.813-.649 7.428 1.913 8.078 5.723.65 3.811-1.912 7.427-5.723 8.078-11.96 2.04-18.414 13.97-18.414 24.159v177.836c8.19 6.329 19.468 7.609 28.922 3.061 10.316-4.962 16.566-15.958 15.554-27.361s-9.102-21.126-20.13-24.195c-3.725-1.037-5.904-4.896-4.867-8.62 1.037-3.725 4.898-5.904 8.621-4.867 16.612 4.623 28.798 19.269 30.322 36.445.213 2.4.205 4.786.004 7.139 9.869-3.983 17.289-10.585 21.315-19.169 5.127-10.93 4.289-23.875-2.361-36.451-1.807-3.417-.501-7.653 2.916-9.46s7.653-.502 9.46 2.916c2.346 4.437 4.105 8.987 5.314 13.557 4.666-3 8.294-7.519 10.131-12.836z"></path></svg> 