<svg id="Capa_1" enable-background="new 0 0 512 512" height="512" viewBox="0 0 512 512" width="512" xmlns="http://www.w3.org/2000/svg"><g><path d="m328.248 45h15v15h-15z"/><path d="m358.248 60h15v15h-15z"/><path d="m120.471 194.008-14.726 2.855c6.434 33.175 24.245 63.87 50.155 86.43 23.322 20.308 50.898 32.337 75.656 33.004 8.308.228 15.897-.896 22.664-3.237 15.067 5.791 29.781 8.854 42.859 8.854 1.273 0 2.534-.029 3.775-.087 35.399-1.667 63.355-26.158 71.231-62.397 9.452-4.735 17.309-10.877 23.04-18.289 10.061-13.014 14.591-28.755 13.505-45.979 13.362-5.562 23.349-13.119 30.437-19.104l-9.678-11.461c-5.995 5.063-13.509 10.752-23.122 15.243-1.357-5.611-3.266-11.333-5.725-17.124-9.858-23.213-27.847-45.78-50.652-63.545-23.854-18.583-51.373-30.397-77.484-33.266-17.524-1.926-31.894 3.772-39.572 15.17-26.176-7.327-48.957-4.321-64.765 9.105-17.678 15.014-23.301 40.982-14.673 67.771 3.224 10.011 7.465 19.602 12.646 28.665-.366.934-.709 1.883-1.029 2.85-7.174 21.688-1.042 47.594 16.823 71.076 11.665 15.333 28.373 29.566 47.593 40.642-38.279-2.576-95.982-40.261-108.958-107.176zm179.68 112.834c-8.73.413-18.538-.924-28.862-3.854 6.812-6.279 11.712-14.628 14.24-24.723.807-3.219 1.335-6.638 1.603-10.212.169.03.342.061.512.09 24.397 4.271 47.644 3.355 66.955-2.048-8.784 24.215-28.912 39.546-54.448 40.747zm83.109-74.877c-2.49 3.221-5.515 6.143-9.006 8.747.243-12.383-1.758-25.158-5.91-37.851 6.547.042 12.954-.463 19.178-1.55 2.131-.372 4.201-.804 6.216-1.289-.004 12.05-3.509 22.929-10.478 31.943zm-112.491-151.151c23.387 2.569 48.213 13.29 69.905 30.188 20.826 16.224 37.186 36.671 46.063 57.575 2.374 5.589 4.143 11.076 5.308 16.408-2.275.598-4.643 1.119-7.104 1.549-7.245 1.265-14.799 1.625-22.643 1.09-2.064-4.415-4.391-8.797-6.975-13.122-19.009-31.831-51.678-60.266-94.473-82.23-4.325-2.22-8.596-4.193-12.805-5.924 5.072-4.582 13.017-6.601 22.724-5.534zm-28.864 19.218c3.952 1.615 7.989 3.478 12.097 5.586 40.293 20.68 70.877 47.159 88.444 76.575.53.889 1.049 1.778 1.555 2.671-15.252-3.491-31.448-10.025-48.474-19.574-39.256-22.019-54.701-47.912-53.622-65.258zm-74.23 53.321c-6.731-20.903-2.859-40.729 10.105-51.74 11.633-9.881 29.021-12.005 49.604-6.512-1.91 11.755 1.503 25.192 9.876 38.458 10.386 16.455 27.997 31.952 50.929 44.813 22.45 12.592 43.78 20.35 63.781 23.225 6.248 16.096 8.555 32.374 6.664 47.56-18.204 7.032-42.417 8.761-68.406 4.212-1.14-.2-2.279-.411-3.413-.633-2.858-27.096-17.204-58.431-37.423-77.933-16.541-15.955-35.311-21.95-52.833-16.88-8.433 2.438-15.787 7.206-21.521 13.76-2.862-5.87-5.318-11.982-7.363-18.33zm103.454 95.57c-19.765-5.773-38.208-14.927-54.129-26.946-13.738-10.372-25.068-22.425-33.9-36.034 4.198-6.701 10.332-11.5 17.627-13.609 15.576-4.505 29.4 4.727 38.252 13.267 16.062 15.491 28.364 41.007 32.15 63.322zm-77.354 2.536c-12.185-16.017-17.93-32.974-16.48-47.9 8.643 11.311 18.927 21.526 30.668 30.39 18.806 14.197 40.807 24.722 64.336 30.857-.132 3.495-.564 6.792-1.321 9.814-1.703 6.802-5.991 16.602-16.779 22.244-3.527-1.519-7.077-3.2-10.63-5.042-20.32-10.531-38.003-24.866-49.794-40.363z"/><path d="m184.22 430.167h-90.594v-85.604h-45.817c-2.983 0-5.658-1.172-7.155-3.134-2.147-2.815-1.668-6.805-.887-9.655l31.978-116.705v-1.009c0-49.66 17.238-97.271 48.539-134.06l-11.424-9.721c-33.394 39.249-51.88 89.91-52.113 142.763l-31.447 114.768c-2.369 8.646-1.151 16.715 3.428 22.717 4.381 5.743 11.336 9.036 19.081 9.036h30.817v85.604h90.594v66.833h152.123v-15h-137.123z"/><path d="m420.354 58.966c-41.982-38.025-98.663-58.966-159.605-58.966-53.463 0-103.541 20.756-141.01 58.444l10.638 10.576c34.633-34.835 80.933-54.02 130.372-54.02 57.212 0 110.317 19.562 149.535 55.083 40.366 36.562 62.598 87.694 62.598 143.977 0 55.402-22.484 107.341-63.312 146.246-43.229 41.193-43.229 81.241-43.229 110.482v26.212h-29.999v15h44.999v-41.212c0-28.007 0-62.863 38.576-99.623 43.827-41.765 67.964-97.559 67.964-157.105.001-60.572-23.981-115.652-67.527-155.094z"/></g></svg>