<?xml version="1.0" encoding="iso-8859-1"?>
<!-- Generator: Adobe Illustrator 19.0.0, SVG Export Plug-In . SVG Version: 6.00 Build 0)  -->
<svg xmlns="http://www.w3.org/2000/svg" xmlns:xlink="http://www.w3.org/1999/xlink" version="1.1" id="Layer_1" x="0px" y="0px" viewBox="0 0 512 512" style="enable-background:new 0 0 512 512;" xml:space="preserve" width="512" height="512">
<g>
	<path d="M500.427,276.822c0,0-24.656-67.508-38.778-106.062c-1.424-3.889-5.729-5.891-9.622-4.462   c-3.889,1.424-5.887,5.732-4.462,9.622c14.12,38.548,38.772,106.047,38.771,106.043c0.747,2.051-0.142,3.657-0.559,4.253   s-1.622,1.981-3.805,1.981H415.92c-1.881,0-3.563-1.122-4.286-2.857l-21.979-52.768c-1.305-3.132-4.546-4.994-7.913-4.551   c-3.363,0.448-6.008,3.098-6.447,6.462L360.24,349.582c-2.289,17.502-2.308,35.25-0.055,52.75l10.314,80.142   c0.479,3.726-0.623,7.331-3.104,10.152c-2.48,2.82-5.916,4.374-9.673,4.374H154.277c-3.757,0-7.192-1.554-9.673-4.375   c-2.481-2.82-3.583-6.426-3.104-10.151l10.313-80.141c2.253-17.504,2.235-35.251-0.054-52.751l-15.055-115.098   c-0.439-3.364-3.084-6.015-6.447-6.462c-3.358-0.447-6.608,1.418-7.913,4.551l-21.979,52.768c-0.723,1.736-2.405,2.857-4.286,2.857   H30.027c-2.183,0-3.388-1.386-3.805-1.981c-0.416-0.595-1.305-2.202-0.558-4.252l46.719-128.123   c5.98-16.399,19.596-28.965,36.422-33.611l62.987-17.397c23.486-6.487,39.89-28.035,39.89-52.401V28.044   c0-7.192,5.852-13.044,13.044-13.044h62.547c7.192,0,13.044,5.852,13.044,13.044v22.388c0,24.366,16.403,45.914,39.89,52.401   l25.196,6.959c3.996,1.104,8.124-1.24,9.227-5.232c1.103-3.993-1.24-8.124-5.232-9.227l-25.196-6.959   c-17.007-4.697-28.884-20.3-28.884-37.942V28.044C315.317,12.58,302.737,0,287.273,0h-62.547c-15.464,0-28.044,12.58-28.044,28.044   v22.388c0,17.643-11.877,33.245-28.884,37.942l-62.986,17.397c-21.491,5.936-38.883,21.984-46.521,42.932L11.573,276.826   c-2.194,6.018-1.313,12.743,2.359,17.99c3.673,5.249,9.689,8.382,16.095,8.382H96.08c7.957,0,15.074-4.746,18.134-12.09   l11.241-26.988l11.433,87.407c2.121,16.219,2.138,32.668,0.05,48.891l-10.313,80.141c-1.023,7.947,1.425,15.956,6.717,21.973   c5.292,6.018,12.923,9.469,20.937,9.469h203.445c8.013,0,15.645-3.451,20.937-9.468s7.74-14.025,6.718-21.973l-10.314-80.143   c-2.088-16.22-2.07-32.668,0.051-48.89l11.432-87.406l11.242,26.988c3.06,7.344,10.178,12.089,18.133,12.089h66.053   c6.405,0,12.422-3.133,16.094-8.381C501.739,289.569,502.622,282.844,500.427,276.822z"/>
	<path d="M371.94,125.233l-15.879-6.477c-8.236-3.361-17.668-0.341-22.423,7.177L263.5,236.813V101c0-4.143-3.357-7.5-7.5-7.5   c-4.143,0-7.5,3.357-7.5,7.5v344c0,4.143,3.357,7.5,7.5,7.5c4.143,0,7.5-3.357,7.5-7.5V266.291l104.155-83.74   c0.968-0.777,2.278-0.955,3.415-0.465l24.549,10.578c7.033,3.03,15.301,1.332,20.568-4.227l61.748-65.155   c3.901-4.116,5.54-9.889,4.384-15.44s-4.964-10.19-10.186-12.407l-51.566-21.891c-8.213-3.488-17.911-0.039-22.077,7.853   L376.154,123.7C375.347,125.226,373.536,125.883,371.94,125.233z M389.418,130.704L411.755,88.4c0.557-1.055,1.853-1.516,2.95-1.05   l51.566,21.891c0.971,0.412,1.271,1.217,1.363,1.659c0.092,0.442,0.139,1.299-0.586,2.063L405.3,178.119   c-0.958,1.013-2.46,1.322-3.744,0.77l-24.55-10.578c-6.255-2.696-13.439-1.719-18.748,2.55l-71.812,57.735l59.869-94.644   c0.628-0.993,1.704-1.555,2.82-1.555c0.422,0,0.85,0.08,1.262,0.248l15.879,6.477C375.045,142.702,384.996,139.082,389.418,130.704   z"/>
</g>















</svg>
