<?xml version="1.0" encoding="UTF-8"?> <svg xmlns="http://www.w3.org/2000/svg" height="512" viewBox="0 0 64 64" width="512"><g id="outline"><path d="m16.068 29.413c.339.436.261 1.064-.175 1.403-.755.588-1.729.912-2.74.912-1.013 0-1.986-.324-2.741-.912-.436-.34-.514-.968-.174-1.404s.97-.513 1.404-.174c.81.631 2.211.632 3.023 0 .436-.339 1.063-.261 1.403.175zm44.591 7.176c-.205.713-.708 1.302-1.381 1.615l-2.125.988-.866 4.932c-.474 2.695-2.803 4.651-5.539 4.651h-4.115c-.419 0-.785.298-.871.708l-.664 3.196c-.096.464-.505.796-.979.796h-24.238c-.474 0-.883-.333-.979-.796l-.664-3.196c-.085-.411-.452-.708-.871-.708h-4.115c-2.736 0-5.065-1.956-5.539-4.65l-.866-4.933-2.125-.988c-.673-.313-1.176-.902-1.381-1.615-.205-.714-.09-1.48.315-2.103l3.085-4.741v-2.155c0-9.41 7.656-17.065 17.066-17.065h1.101c2.508 0 4.917.547 7.103 1.531 2.237-1.004 4.612-1.531 7.08-1.531h1.101c9.41 0 17.066 7.656 17.066 17.065v2.155l3.085 4.741c.406.622.52 1.389.316 2.103zm-25.735 4.337 3.092-5.082c2.167-3.562 2.792-7.915 1.715-11.942-1.137-4.248-4.007-7.679-7.721-9.624-3.81 1.988-6.624 5.461-7.738 9.624-1.078 4.027-.453 8.38 1.715 11.942l3.092 5.082c1.256 2.065 1.677 4.505 1.186 6.871l-.765 3.679h5.003l-.765-3.679c-.491-2.366-.07-4.806 1.186-6.871zm-14.229 10.55h6.763l.849-4.086c.388-1.868.056-3.794-.937-5.424l-3.092-5.082c-2.45-4.026-3.156-8.946-1.938-13.499 1.12-4.188 3.76-7.762 7.361-10.084-1.519-.501-3.131-.777-4.793-.777h-1.101c-8.308 0-15.066 6.758-15.066 15.065v2.452c0 .194-.056.383-.162.545l-3.247 4.99c-.122.187-.095.369-.069.46s.101.26.302.354l2.597 1.208c.296.138.506.412.563.734l.957 5.446c.305 1.736 1.807 2.997 3.569 2.997h4.115c1.362 0 2.552.968 2.829 2.301zm37.972-15.899-3.247-4.99c-.105-.162-.162-.352-.162-.545v-2.452c0-8.307-6.758-15.065-15.066-15.065h-1.101c-1.647 0-3.246.269-4.783.776 3.529 2.279 6.214 5.82 7.355 10.086 1.218 4.552.512 9.472-1.938 13.499l-3.092 5.082c-.992 1.63-1.325 3.556-.937 5.424l.849 4.086h6.759l.499-2.4c.277-1.333 1.467-2.301 2.829-2.301h4.115c1.763 0 3.264-1.26 3.569-2.997l.957-5.445c.057-.322.267-.596.563-.734l2.597-1.208c.202-.094.276-.262.302-.354s.054-.276-.068-.462zm-6.309-6.339c-.811.631-2.211.632-3.023 0-.436-.339-1.064-.262-1.403.175-.339.436-.261 1.064.175 1.403.755.588 1.729.912 2.74.912 1.013 0 1.986-.324 2.741-.912.436-.34.514-.968.174-1.404-.341-.436-.969-.513-1.404-.174z"></path></g></svg> 