<?xml version="1.0" encoding="UTF-8"?> <svg xmlns="http://www.w3.org/2000/svg" id="Icons" viewBox="0 0 60 60" width="512" height="512"><path d="M48.731,16.329A11.035,11.035,0,0,0,40.833,13h-.018a11.1,11.1,0,0,0-7.936,3.331L30,19.28l-2.9-2.951a11.068,11.068,0,0,0-15.827,0,11.526,11.526,0,0,0,0,16.06L29.287,50.7l0,0a1,1,0,0,0,1.42,0l0,0,18.018-18.31a11.5,11.5,0,0,0,0-16.062ZM47.306,30.988,31,47.558V33.189A4.75,4.75,0,0,0,33.667,34C36.277,34,42,32.573,42,28.334a1,1,0,0,0-1-1,8.511,8.511,0,0,1-4.665-1.513,4.836,4.836,0,0,0-3.467-.761l-.012,0A4.7,4.7,0,0,0,30,26.7a4.693,4.693,0,0,0-2.855-1.638l-.012,0a4.83,4.83,0,0,0-3.471.764A8.509,8.509,0,0,1,19,27.334a1,1,0,0,0-1,1C18,32.573,23.723,34,26.333,34A4.75,4.75,0,0,0,29,33.189V47.558L12.694,30.988a9.514,9.514,0,0,1-.005-13.252,9.07,9.07,0,0,1,12.979,0l2.905,2.953A1.985,1.985,0,0,0,30,21.279h0a1.99,1.99,0,0,0,1.427-.6l2.877-2.944A9.106,9.106,0,0,1,40.815,15h.015a9.055,9.055,0,0,1,6.476,2.731,9.5,9.5,0,0,1,0,13.257ZM31.073,28.917a2.588,2.588,0,0,1,2.1-1.882,2.847,2.847,0,0,1,2.049.449A10.847,10.847,0,0,0,39.8,29.253C38.908,31.2,35.294,32,33.667,32a2.71,2.71,0,0,1-2.144-1.012A2.387,2.387,0,0,1,31.073,28.917Zm-2.6,2.071A2.71,2.71,0,0,1,26.333,32c-1.627,0-5.241-.8-6.132-2.747a10.837,10.837,0,0,0,4.571-1.766,2.845,2.845,0,0,1,2.053-.452,2.59,2.59,0,0,1,2.1,1.891A2.382,2.382,0,0,1,28.477,30.988Z"></path><path d="M18.954,17.008a7.445,7.445,0,0,0-1.153.143,1,1,0,0,0,.2,1.98.978.978,0,0,0,.2-.021,5.616,5.616,0,0,1,.847-.1,1,1,0,0,0-.092-2Z"></path><path d="M15.541,19.111a1,1,0,0,0-1.414.016,7.5,7.5,0,0,0-.007,10.458,1,1,0,1,0,1.426-1.4,5.5,5.5,0,0,1,.011-7.658A1,1,0,0,0,15.541,19.111Z"></path><path d="M46.413,52.688A28,28,0,0,1,8,12.68V14a1,1,0,0,0,2,0V10A1,1,0,0,0,9,9H5a1,1,0,0,0,0,2H6.793A30,30,0,0,0,47.587,54.307a1,1,0,1,0-1.174-1.619Z"></path><path d="M30,0A29.784,29.784,0,0,0,12.413,5.693a1,1,0,1,0,1.174,1.62A28,28,0,0,1,52,47.32V46a1,1,0,0,0-2,0v4a1,1,0,0,0,1,1h4a1,1,0,0,0,0-2H53.207A29.992,29.992,0,0,0,30,0Z"></path></svg> 