<?xml version="1.0" encoding="UTF-8"?> <svg xmlns="http://www.w3.org/2000/svg" id="Layer_1" data-name="Layer 1" viewBox="0 0 64 64" width="512" height="512"><path d="M57,37.1v-.22A7.89,7.89,0,0,0,49.13,29H24.88a7.87,7.87,0,0,0-7.64,6L9.16,27.52A.48.48,0,0,1,9,27.16V23.5a3.47,3.47,0,0,0-4.84-3.21A3.67,3.67,0,0,0,2,23.71V58.5A3.48,3.48,0,0,0,3,61a3.44,3.44,0,0,0,3.82.73A3.66,3.66,0,0,0,9,58.3V52.5a.5.5,0,0,1,.5-.5h45a.5.5,0,0,1,.5.5v6A3.48,3.48,0,0,0,58.47,62a3.31,3.31,0,0,0,1.37-.29A3.66,3.66,0,0,0,62,58.3V43A6,6,0,0,0,57,37.1Zm-38-.22A5.89,5.89,0,0,1,24.88,31H49.13A5.89,5.89,0,0,1,55,36.88V44H19ZM60,58.3a1.71,1.71,0,0,1-.94,1.58,1.46,1.46,0,0,1-1.62-.31A1.5,1.5,0,0,1,57,58.5v-6A2.51,2.51,0,0,0,54.5,50H9.5A2.51,2.51,0,0,0,7,52.5v5.8a1.71,1.71,0,0,1-.94,1.58,1.46,1.46,0,0,1-1.62-.31A1.5,1.5,0,0,1,4,58.5V23.71a1.69,1.69,0,0,1,.94-1.58,1.44,1.44,0,0,1,1.62.31A1.5,1.5,0,0,1,7,23.5v3.66A2.5,2.5,0,0,0,7.8,29L17,37.51V45a1,1,0,0,0,1,1H56a1,1,0,0,0,1-1V39.15A4,4,0,0,1,60,43Z"></path><path d="M21,13A11,11,0,1,0,32,2,11,11,0,0,0,21,13ZM32,4a9,9,0,1,1-9,9A9,9,0,0,1,32,4Z"></path><path d="M26,16h3v3a1,1,0,0,0,1,1h4a1,1,0,0,0,1-1V16h3a1,1,0,0,0,1-1V11a1,1,0,0,0-1-1H35V7a1,1,0,0,0-1-1H30a1,1,0,0,0-1,1v3H26a1,1,0,0,0-1,1v4A1,1,0,0,0,26,16Zm1-4h3a1,1,0,0,0,1-1V8h2v3a1,1,0,0,0,1,1h3v2H34a1,1,0,0,0-1,1v3H31V15a1,1,0,0,0-1-1H27Z"></path><path d="M16,20a5,5,0,1,0,5,5A5,5,0,0,0,16,20Zm0,8a3,3,0,1,1,3-3A3,3,0,0,1,16,28Z"></path></svg> 