<?xml version="1.0" encoding="UTF-8"?> <svg xmlns="http://www.w3.org/2000/svg" id="Icons" viewBox="0 0 60 60" width="512" height="512"><path d="M30,0A29.991,29.991,0,0,0,7.65,50H5.758a1,1,0,0,0,0,2H10a1,1,0,0,0,1-1V46.758a1,1,0,0,0-2,0v1.756a27.932,27.932,0,1,1,5.279,4.659,1,1,0,0,0-1.125,1.654A30,30,0,1,0,30,0Z"></path><path d="M21,34h5v5a3,3,0,0,0,3,3h2a3,3,0,0,0,3-3V34h5a3,3,0,0,0,3-3V29a3,3,0,0,0-3-3H34V21a3,3,0,0,0-3-3H29a3,3,0,0,0-3,3v5H21a3,3,0,0,0-3,3v2A3,3,0,0,0,21,34Zm-1-5a1,1,0,0,1,1-1h6a1,1,0,0,0,1-1V21a1,1,0,0,1,1-1h2a1,1,0,0,1,1,1v6a1,1,0,0,0,1,1h6a1,1,0,0,1,1,1v2a1,1,0,0,1-1,1H33a1,1,0,0,0-1,1v6a1,1,0,0,1-1,1H29a1,1,0,0,1-1-1V33a1,1,0,0,0-1-1H21a1,1,0,0,1-1-1Z"></path><path d="M13.736,46.264c.016.015.036.02.052.034a22.959,22.959,0,0,0,32.424,0c.016-.014.036-.019.052-.034s.02-.036.034-.052a22.959,22.959,0,0,0,0-32.424c-.014-.016-.019-.036-.034-.052s-.036-.02-.052-.034a22.959,22.959,0,0,0-32.424,0c-.016.014-.036.019-.052.034s-.02.036-.034.052a22.959,22.959,0,0,0,0,32.424C13.716,46.228,13.721,46.248,13.736,46.264ZM11,29H9.051a20.886,20.886,0,0,1,5.433-13.1l1.374,1.373a1,1,0,0,0,1.414-1.414L15.9,14.484A20.881,20.881,0,0,1,29,9.051V11a1,1,0,0,0,2,0V9.051a20.881,20.881,0,0,1,13.1,5.433l-1.373,1.374a1,1,0,1,0,1.414,1.414L45.516,15.9A20.886,20.886,0,0,1,50.949,29H49a1,1,0,0,0,0,2h1.949a20.886,20.886,0,0,1-5.433,13.1l-1.374-1.373a1,1,0,0,0-1.414,1.414L44.1,45.516A20.881,20.881,0,0,1,31,50.949V49a1,1,0,0,0-2,0v1.949a20.881,20.881,0,0,1-13.1-5.433l1.373-1.374a1,1,0,0,0-1.414-1.414L14.484,44.1A20.886,20.886,0,0,1,9.051,31H11a1,1,0,0,0,0-2Z"></path></svg> 