<?xml version="1.0" encoding="UTF-8"?> <svg xmlns="http://www.w3.org/2000/svg" fill="none" height="24" viewBox="0 0 24 24" width="24"><path clip-rule="evenodd" d="m7 4v1h-3c-1.65685 0-3 1.34315-3 3v12c0 1.6569 1.34315 3 3 3h16c1.6569 0 3-1.3431 3-3v-12c0-1.65685-1.3431-3-3-3h-3v-1c0-1.65685-1.3431-3-3-3h-4c-1.65685 0-3 1.34315-3 3zm3-2c-1.10457 0-2 .89543-2 2v1h8v-1c0-1.10457-.8954-2-2-2zm-8 6c0-1.10457.89543-2 2-2h16c1.1046 0 2 .89543 2 2v12c0 1.1046-.8954 2-2 2h-16c-1.10457 0-2-.8954-2-2zm6.5 5h2.5v-2.5c0-.2761.2239-.5.5-.5h1c.2761 0 .5.2239.5.5v2.5h2.5c.2761 0 .5.2239.5.5v1c0 .2761-.2239.5-.5.5h-2.5v2.5c0 .2761-.2239.5-.5.5h-1c-.2761 0-.5-.2239-.5-.5v-2.5h-2.5c-.27614 0-.5-.2239-.5-.5v-1c0-.2761.22386-.5.5-.5zm5.5-2.5v1.5h1.5c.8284 0 1.5.6716 1.5 1.5v1c0 .8284-.6716 1.5-1.5 1.5h-1.5v1.5c0 .8284-.6716 1.5-1.5 1.5h-1c-.8284 0-1.5-.6716-1.5-1.5v-1.5h-1.5c-.82843 0-1.5-.6716-1.5-1.5v-1c0-.8284.67157-1.5 1.5-1.5h1.5v-1.5c0-.82843.6716-1.5 1.5-1.5h1c.8284 0 1.5.67157 1.5 1.5z" fill="rgb(0,0,0)" fill-rule="evenodd"></path></svg> 