<?xml version="1.0" encoding="UTF-8"?> <svg xmlns="http://www.w3.org/2000/svg" id="Line" viewBox="0 0 32 32"><path d="m16 30.519c-.1533 0-.3066-.0469-.4375-.1406-.0649-.0469-1.6167-1.1646-3.7026-3.0303-.2495-.2192-.5137-.4536-.7788-.6978-1.7959-1.6553-4.3647-4.251-6.3994-7.2168-.2344-.3413-.1479-.8086.1938-1.0425.3428-.2344.8086-.1479 1.0425.1938 1.5483 2.2559 3.6855 4.6636 6.1802 6.9624.2559.2368.5112.4624.7568.6782 1.3867 1.2402 2.5459 2.1519 3.1445 2.6074.8018-.6108 2.6079-2.0386 4.6216-3.9658 1.3994-1.333 2.6934-2.7231 3.8486-4.1328.6465-.8052 1.1602-1.4897 1.6113-2.1489.2344-.3413.6992-.4302 1.043-.1948.3418.2339.4287.7007.1953 1.0425-.4746.6914-1.0098 1.4053-1.6846 2.2461-1.1982 1.4629-2.5352 2.8989-3.9775 4.2729-2.7842 2.6646-5.1206 4.355-5.2188 4.4253-.1309.0942-.2847.1416-.4385.1416z"></path><path d="m29.6113 13.7593c-.0635 0-.127-.0078-.1914-.0244-.4004-.105-.6396-.5151-.5352-.9155.7344-2.8027.3643-5.2148-1.1309-7.373-1.7568-2.5513-4.8975-2.7881-7.251-2.1626-.0615.021-.1064.0347-.1455.0439-.0107.0029-.0215.0054-.0332.0073-1.4551.4219-2.7656 1.187-3.7939 2.2144-.293.293-.7676.293-1.0605 0-1.7793-1.7793-4.4048-2.749-6.8579-2.5249-1.3101.1191-3.1313.6353-4.3647 2.4209-1.4961 2.1592-1.8657 4.5708-1.1313 7.374.105.4004-.1348.8105-.5356.9155-.3994.1016-.811-.1357-.9155-.5356-.8403-3.207-.3862-6.103 1.3486-8.6074 1.2197-1.7646 3.1602-2.8521 5.4634-3.061 2.644-.2383 5.4648.6963 7.5229 2.4658 1.1274-.9717 2.4849-1.6987 3.9653-2.1191.0205-.0054.04-.0103.0605-.0142l.0977-.0308c3.627-.9653 7.0254.0903 8.8652 2.7612 1.7334 2.5029 2.1875 5.3989 1.3477 8.6055-.0879.3369-.3926.5601-.7246.5601z"></path><path d="m15.8457 22.7593c-.3618 0-.6724-.2583-.7378-.6147l-1.5938-8.6777-1.3511 5.1753c-.0801.3076-.3457.5312-.6626.5581-.3081.0229-.6157-.1494-.7466-.439l-1.5205-3.3711-.4185.9277c-.1211.2686-.3887.4414-.6836.4414h-7.1312c-.4141 0-.75-.3359-.75-.75s.3359-.75.75-.75h6.647l.9028-2.002c.2422-.5371 1.125-.5371 1.3672 0l1.3311 2.9512 1.668-6.3887c.0889-.3403.3892-.5864.7534-.5601.3511.0132.6465.2681.71.6143l1.4663 7.9839.3643-1.9839c.0654-.3564.376-.6147.7378-.6147h1.6519l.9385-3.0181c.0977-.3135.3877-.5273.7158-.5273.3281 0 .6191.2139.7158.5273l1.5479 4.9795 1.4404-3.9141c.1055-.2856.373-.4795.6777-.4902.2949-.0273.585.1636.71.4414l.9023 2.0015h4.752c.4141 0 .75.3359.75.75s-.3359.75-.75.75h-5.2363c-.2949 0-.5625-.1729-.6836-.4419l-.3477-.771-1.5703 4.2676c-.1094.2954-.3906.4907-.7041.4907-.0059 0-.0127 0-.0195-.0005-.3213-.0078-.6016-.2202-.6963-.5269l-1.4883-4.7871-.3867 1.2417c-.0977.3135-.3877.5273-.7158.5273h-1.5791l-.9888 5.3853c-.0654.3564-.376.6147-.7378.6147z"></path></svg> 