<?xml version="1.0" encoding="UTF-8"?> <svg xmlns="http://www.w3.org/2000/svg" id="Capa_1" height="512" viewBox="0 0 511.999 511.999" width="512"><g><path d="m491.016 235.884h-14.527v-22.605c0-4.142-3.358-7.5-7.5-7.5s-7.5 3.358-7.5 7.5v22.6h-12v-76.397h12v18.797c0 4.142 3.358 7.5 7.5 7.5s7.5-3.358 7.5-7.5v-18.797h8.613c13.189 0 23.92-10.726 23.92-23.91v-48.358c0-13.189-10.73-23.92-23.92-23.92h-158.035c-13.184 0-23.91 10.73-23.91 23.92v26.223h-94.318v-26.228c0-13.189-10.726-23.92-23.91-23.92h-108.1c-4.142 0-7.5 3.358-7.5 7.5s3.358 7.5 7.5 7.5h108.1c4.913 0 8.91 4.001 8.91 8.92v26.228h-17.49c-13.26 0-24.048 10.788-24.048 24.048v6.995h-125.402c-4.918 0-8.92-3.997-8.92-8.91v-48.36c0-4.918 4.001-8.92 8.92-8.92h14.93c4.142 0 7.5-3.358 7.5-7.5s-3.358-7.5-7.5-7.5h-14.93c-13.189 0-23.92 10.73-23.92 23.92v48.36c0 13.184 10.73 23.91 23.92 23.91h8.607v76.405h-14.524c-11.569-.001-20.982 9.412-20.982 20.982v22.014c0 11.57 9.413 20.982 20.982 20.982h.921v90.644c0 4.142 3.358 7.5 7.5 7.5h36.268c4.142 0 7.5-3.358 7.5-7.5v-90.644h66.48v90.644c0 4.142 3.358 7.5 7.5 7.5h24.227v43.203c0 4.142 3.358 7.5 7.5 7.5h36.56c4.142 0 7.5-3.358 7.5-7.5v-26.61c0-4.142-3.358-7.5-7.5-7.5s-7.5 3.358-7.5 7.5v19.11h-21.56v-83.94h21.56v29.83c0 4.142 3.358 7.5 7.5 7.5s7.5-3.358 7.5-7.5v-29.83h66.122v91.435c0 4.142 3.358 7.5 7.5 7.5h36.559c4.142 0 7.5-3.358 7.5-7.5v-43.198h24.227c4.142 0 7.5-3.358 7.5-7.5v-90.644h66.48v90.644c0 4.142 3.358 7.5 7.5 7.5h36.268c4.142 0 7.5-3.358 7.5-7.5v-90.644h.922c11.57 0 20.983-9.413 20.983-20.982v-22.014c0-11.57-9.413-20.983-20.983-20.983zm-56.527 0h-56.807v-76.402h56.807zm-107.579 0v-25.61h8.739c.012 0 .025-.001.037-.001v25.611zm-99.599 49.515v-75.125h57.379v75.125zm-50.962-75.125h8.741v25.61h-8.777v-25.611c.012 0 .023.001.036.001zm23.741 75.125v-75.125h12.221v75.125zm99.599-75.125h12.221v75.125h-12.221zm50.997-5.3c5.489-4.411 9.011-11.173 9.011-18.747v-26.745h2.985v76.402h-11.996zm-32.529-117.76c0-4.918 3.997-8.92 8.91-8.92h158.035c4.918 0 8.92 4.001 8.92 8.92v48.358c0 4.913-4.001 8.91-8.92 8.91h-125.405v-6.997c0-13.26-10.788-24.048-24.048-24.048h-17.492zm-150.856 50.271c0-4.989 4.059-9.048 9.048-9.048h159.301c4.989 0 9.048 4.059 9.048 9.048v48.742c0 4.989-4.059 9.047-9.048 9.047h-159.301c-4.989 0-9.048-4.059-9.048-9.047zm-5.989 67.489v30.91h-11.996v-76.405h2.984v26.748c.001 7.573 3.523 14.336 9.012 18.747zm-98.802-45.495v76.403h-12.004v-76.403zm15 0h56.806v76.405h-56.806zm-62.51 119.402v-22.014c0-3.299 2.684-5.983 5.982-5.983h164.108v33.979h-164.108c-3.298 0-5.982-2.683-5.982-5.982zm43.172 104.126h-21.268v-83.144h21.268zm113.207 0h-16.727v-34.597c2.302.864 4.783 1.36 7.383 1.36h9.344zm-9.344-48.237c-3.358 0-6.09-2.732-6.09-6.09v-22.19c0-3.358 2.732-6.09 6.09-6.09h187.929c3.358 0 6.09 2.732 6.09 6.09v22.189c0 3.358-2.732 6.09-6.09 6.09h-187.929zm163.585 98.935h-21.559v-83.935h21.559zm15-50.698v-33.237h9.344c2.6 0 5.081-.496 7.383-1.36v34.597zm134.474 0h-21.268v-83.144h21.268zm21.905-104.126c0 3.299-2.684 5.982-5.983 5.982h-164.106v-33.979h164.106c3.299 0 5.983 2.684 5.983 5.983z"></path></g></svg> 