<?xml version="1.0" encoding="UTF-8"?> <svg xmlns="http://www.w3.org/2000/svg" id="Capa_1" height="512" viewBox="0 0 512 512" width="512"><g><ellipse cx="383.615" cy="310.446" rx="10" ry="10" transform="matrix(.919 -.394 .394 .919 -91.214 176.004)"></ellipse><path d="m446.422 85.801c-2.682-1.875-6.108-2.322-9.18-1.2-16.997 6.212-35.011 9.362-53.542 9.362-25.993 0-67.8-15.556-119.363-89.666-1.874-2.692-4.946-4.297-8.225-4.297h-.224c-3.279 0-6.351 1.605-8.224 4.297-51.563 74.11-93.37 89.666-119.363 89.666-18.531 0-36.545-3.15-53.542-9.362-3.072-1.122-6.5-.675-9.18 1.2-2.681 1.875-4.278 4.94-4.278 8.211v135.988c0 55.177 15.879 109.833 45.921 158.06 29.946 48.073 73.427 88.879 125.741 118.005 7.106 3.958 15.07 5.935 23.037 5.935 7.965 0 15.933-1.978 23.036-5.934 52.315-29.127 95.795-69.933 125.742-118.006 30.042-48.227 45.922-102.883 45.922-158.06v-135.988c0-3.272-1.597-6.337-4.278-8.211zm-15.76 144.199c0 51.428-14.832 102.421-42.891 147.465-28.156 45.198-69.126 83.614-118.481 111.093-8.073 4.495-18.506 4.494-26.578 0-49.356-27.479-90.325-65.894-118.481-111.093-28.061-45.044-42.893-96.037-42.893-147.465v-122.275c15.153 4.169 30.894 6.277 46.963 6.277 51.124 0 96.471-44.941 127.696-86.969 15.483 20.873 31.279 38.263 47.071 51.808 27.202 23.331 54.33 35.161 80.631 35.161 16.069 0 31.809-2.108 46.963-6.277z"></path><path d="m296.944 340.812v-43.884h43.884c5.533 0 10.019-4.486 10.019-10.019v-61.849c0-5.533-4.486-10.019-10.019-10.019h-43.884v-43.884c0-5.533-4.486-10.019-10.019-10.019h-61.85c-5.533 0-10.019 4.486-10.019 10.019v43.884h-43.884c-5.533 0-10.019 4.486-10.019 10.019v61.849c0 5.533 4.486 10.019 10.019 10.019h43.884v43.884c0 5.533 4.486 10.019 10.019 10.019h61.85c5.533 0 10.019-4.485 10.019-10.019zm-20.038-53.903v43.884h-41.812v-43.884c0-5.533-4.486-10.019-10.019-10.019h-43.884v-41.81h43.884c5.533 0 10.019-4.486 10.019-10.019v-43.884h41.812v43.884c0 5.533 4.486 10.019 10.019 10.019h43.884v41.811h-43.884c-5.534-.001-10.019 4.485-10.019 10.018z"></path><path d="m371.39 342.718c-5.037-2.286-10.976-.055-13.263 4.984-16.398 36.139-43.714 67.629-78.994 91.064-4.175 2.773-5.667 8.407-3.392 12.879 2.679 5.266 9.547 7.089 14.48 3.812 38.411-25.515 68.203-59.913 86.154-99.476 2.286-5.039.054-10.977-4.985-13.263z"></path></g></svg> 