<?xml version="1.0" encoding="UTF-8"?> <svg xmlns="http://www.w3.org/2000/svg" id="Layer_1" viewBox="0 0 512 512"><path d="m77.58 207.52c-12.19 8.42-28.86 5.36-37.28-6.8-8.42-12.19-5.33-28.86 6.83-37.28l192.37-133.54c9.5-6.58 21.88-6.21 31.15.51l191.65 133.03c19.62 13.58 12.95 44.11-10.4 48.39-6.75 1.25-13.95-.08-20.04-4.31l-177.14-122.97zm-17.54-9.41c3.23.6 6.69-.06 9.61-2.07l180.96-125.63c2.35-1.67 5.58-1.81 8.08-.09l181.11 125.72c9.33 6.46 21.97-1.62 19.9-12.87-.6-3.23-2.41-6.24-5.33-8.25l-191.68-133.06c-2.61-1.7-4.54-2.72-7.82-2.75-2.55-.03-5.16.71-7.43 2.27l-192.36 133.54c-9.42 6.52-6.21 21.15 4.96 23.19zm311.27 13.27c-17.72 0-26.65 21.52-14.12 34.04 12.56 12.56 34.07 3.63 34.07-14.09 0-11.02-8.92-19.95-19.95-19.95zm-24.01-4.06c13.27-13.27 34.75-13.27 48.02 0 9.58 9.55 12.61 24.01 7.48 36.74 2.47 1.08 4.88 2.49 7.2 4.25 20.21 15.17 22.37 84.84 21.46 102.44-.57 10.86-5.9 19.25-13.97 24.52h8.93c3.88 0 7 3.15 7 7v56.35h20.01c3.88 0 7 3.12 7 7v36.51c0 3.86-3.12 7-7 7h-397.42c-3.88 0-7-3.15-7-7v-36.51c0-3.88 3.12-7 7-7h20.01v-56.35c0-3.86 3.12-7 7-7h8.9c-8.05-5.27-13.38-13.66-13.95-24.52-.94-17.6 1.25-87.28 21.46-102.44 2.32-1.76 4.73-3.17 7.2-4.25-8.99-22.2 7.34-46.69 31.49-46.69 18.74 0 33.93 15.19 33.93 33.96 0 13.35-7.74 25.14-19.42 30.67 4.76 6.41 10.4 14.12 19.53 17.01 5.3 1.53 10.77 2.69 16.38 3.51v-48.47c0-13.66 20.27-18.26 32.88-20.24-17.4-26.7 1.73-62.5 33.9-62.5 32.14 0 51.31 35.8 33.87 62.5 12.61 1.98 32.88 6.6 32.88 20.24v48.27c5.19-.79 10.26-1.9 15.14-3.32 9.16-2.89 14.8-10.6 19.53-17.01-21.09-9.99-26.08-38.03-9.44-54.67zm47.39 48.62c-5.95 5.67-13.97 9.18-22.79 9.33-8.22 9.89-14.23 22.05-30.73 27.13-16.27 4.73-32.68 6.12-49.66 5.16-6.07-.34-8.31 8.56-1.62 10.66 2.3.71 18.57.31 19.53.25 26.19-1.08 51.36-9.16 73.25-23.5 3.23-2.13 7.57-1.22 9.67 2.01 2.13 3.23 1.22 7.57-2.01 9.69-4.82 3.15-9.75 6.01-14.83 8.62l6.15 43.26c.6 4.2-2.72 7.97-6.92 7.97h-40.22c-3 0-5.41 2.44-5.41 5.44v60.24c0 4.82 5.84 7.23 9.24 3.83.99-.99 1.59-2.35 1.59-3.83v-47.82c0-3.88 3.15-7 7-7h49.07c10.91 0 20.89-5.58 21.52-17.35.62-12.1-.4-39.32-4.73-61.71-2.66-13.72-6.32-25.23-11.17-28.86-2.08-1.57-4.46-2.79-6.93-3.52zm-32.45 55.36c-13.18 5.22-26.7 8.59-40.9 10.2v26.19c3.46-3.2 8.08-5.16 13.18-5.16h32.17zm-214.64.17-.4-.17-4.45 31.24h32.17c5.07 0 9.72 1.96 13.18 5.16v-26.2c-13.8-1.59-27.58-4.93-40.5-10.03zm-13.66-6.18c-5.07-2.61-10.03-5.47-14.83-8.62-3.23-2.13-4.14-6.46-2.04-9.69 2.13-3.23 6.46-4.14 9.69-2.01 28.09 18.4 58.62 25.23 91.73 23.39 5.41-.31 7.46-7.94 1.56-10.49-.65-.23-1.39-.34-2.15-.31-16.95.96-33.34-.43-49.63-5.16-16.47-5.07-22.48-17.18-30.73-27.13-8.84-.14-16.84-3.66-22.79-9.33-2.47.74-4.85 1.96-6.94 3.52-4.82 3.63-8.5 15.14-11.14 28.86-4.34 22.39-5.39 49.61-4.73 61.71.62 11.76 10.6 17.35 21.52 17.35h49.07c3.86 0 7 3.12 7 7v47.82c0 4.82 5.84 7.23 9.24 3.83.99-.99 1.59-2.35 1.59-3.83v-60.24c0-3-2.44-5.44-5.41-5.44h-40.25c-4.22 0-7.51-3.77-6.92-7.97zm214.55 130.36-3.66 2.98h3.66zm-24.29 2.98c-1.02-.65-1.98-1.39-2.86-2.18v2.18zm-49.33-125.29c-5.67-8.9-3.12-20.64 5.56-26.48v-29c0-3.86 3.15-7 7-7 3.88 0 7 3.15 7 7v25.85c4.65.23 9.21.23 13.66 0v-49.66c0-.43-2.3-1.47-6.04-2.83-6.35-2.32-15.45-3.97-25.71-4.9-6.12 3.71-13.32 5.87-21 5.87-7.71 0-14.88-2.15-21-5.87-10.26.94-19.39 2.55-25.71 4.9-3.77 1.36-6.07 2.41-6.07 2.83v49.72c4.48.17 9.01.14 13.66-.11v-25.79c0-3.86 3.15-7 7-7 3.88 0 7 3.15 7 7v29.91c7.74 6.15 9.67 17.21 4.34 25.57h40.31zm144.54 125.29v-49.35h-56.92v49.35zm-267.19-221.41c-12.53-12.53-34.04-3.63-34.04 14.12 0 17.72 21.51 26.65 34.04 14.09 7.79-7.78 7.79-20.42 0-28.21zm35.89 219.23c-.88.79-1.84 1.53-2.86 2.18h2.86zm-23.5 2.18-3.66-2.98v2.98zm-17.66 0v-49.35h-56.92v49.35zm160.38 0v-111.29c-35.06 0-70.16 0-105.22 0v111.29zm139.1 14h-383.42v22.51h383.41v-22.51zm-172.41-279.58c-16.61-16.61-45.13-4.79-45.13 18.71 0 23.47 28.52 35.29 45.13 18.68 10.32-10.32 10.32-27.07 0-37.39z"></path></svg> 