<?xml version="1.0" encoding="UTF-8"?> <svg xmlns="http://www.w3.org/2000/svg" id="Layer_3" data-name="Layer 3" viewBox="0 0 64 64" width="512" height="512"><path d="M44.447,17.105l-12-6a1,1,0,0,0-.894,0l-12,6a1,1,0,0,0,0,1.79L21,19.618V24h2V20.618l2,1V26a1,1,0,0,0,.445.832l.5.336a10.909,10.909,0,0,0,12.1,0l.5-.336A1,1,0,0,0,39,26V21.618L44.447,18.9a1,1,0,0,0,0-1.79ZM37,25.465l-.059.039a9.051,9.051,0,0,1-9.882,0L27,25.465V22.618L31.553,24.9a1,1,0,0,0,.894,0L37,22.618Zm-5-2.583L22.236,18,32,13.118,41.764,18Z"></path><path d="M43,32H23a3,3,0,0,0-3,3V60a3,3,0,0,0,3,3H43a1,1,0,0,0,1-1V33A1,1,0,0,0,43,32ZM42,57H26V34H42ZM23,34h1V57H23a2.966,2.966,0,0,0-1,.184V35A1,1,0,0,1,23,34Zm0,27a1,1,0,0,1,0-2H42v2Z"></path><rect x="30" y="37" width="8" height="2"></rect><rect x="28" y="41" width="12" height="2"></rect><path d="M34,47a4,4,0,1,0,4,4A4,4,0,0,0,34,47Zm0,6a2,2,0,1,1,2-2A2,2,0,0,1,34,53Z"></path><path d="M14.518,16.161a3.32,3.32,0,0,0-.252-.515L21.349,6.2A3.25,3.25,0,0,0,18.75,1a5.031,5.031,0,0,0-3.674,1.6L4.953,13.5A7.3,7.3,0,0,0,3.1,19.679L4.929,30.657,1.293,34.293a1,1,0,0,0,0,1.414l7,7a1,1,0,0,0,1.414,0l6.559-6.559A9.332,9.332,0,0,0,18.377,26.2Zm.334,18.573L9,40.586,3.414,35l3.293-3.293a1,1,0,0,0,.279-.871L5.072,19.351a5.313,5.313,0,0,1,1.347-4.486l10.123-10.9A3.022,3.022,0,0,1,18.75,3a1.25,1.25,0,0,1,1,2l-6.981,9.308A3.365,3.365,0,0,0,8,17.372a5.5,5.5,0,0,0,.21,1.5L10,25.14V27h2V25a.97.97,0,0,0-.039-.274l-1.827-6.4A3.462,3.462,0,0,1,10,17.372a1.371,1.371,0,0,1,2.651-.492l3.86,10.034a7.336,7.336,0,0,1-1.659,7.82Z"></path><path d="M59.071,30.657,60.9,19.679A7.3,7.3,0,0,0,59.047,13.5L48.924,2.6A5.031,5.031,0,0,0,45.25,1a3.249,3.249,0,0,0-2.6,5.2l7.084,9.447a3.32,3.32,0,0,0-.252.515L45.622,26.2a9.335,9.335,0,0,0,2.112,9.951l6.559,6.559a1,1,0,0,0,1.414,0l7-7a1,1,0,0,0,0-1.414ZM55,40.586l-5.852-5.852a7.334,7.334,0,0,1-1.659-7.819l3.86-10.035A1.371,1.371,0,0,1,54,17.372a3.5,3.5,0,0,1-.133.954l-1.828,6.4A.97.97,0,0,0,52,25v2h2V25.14l1.79-6.265a5.5,5.5,0,0,0,.21-1.5,3.365,3.365,0,0,0-4.769-3.064L44.249,5a1.25,1.25,0,0,1,1-2,3.022,3.022,0,0,1,2.208.963l10.123,10.9a5.313,5.313,0,0,1,1.347,4.486L57.014,30.836a1,1,0,0,0,.279.871L60.586,35Z"></path></svg> 