<?xml version="1.0" encoding="UTF-8"?> <svg xmlns="http://www.w3.org/2000/svg" id="Capa_1" viewBox="0 0 512.003 512.003"><g><path d="m236.568 306.043c6.002 3.424 12.731 5.136 19.461 5.136 6.729 0 13.458-1.712 19.46-5.136 3.598-2.052 4.851-6.633 2.799-10.23-2.052-3.599-6.633-4.852-10.23-2.799-7.42 4.232-16.638 4.232-24.058 0-3.598-2.053-8.178-.8-10.23 2.799-2.053 3.598-.8 8.179 2.798 10.23z"></path><path d="m7.494 106.504c.489 0 .987-.048 1.485-.148 10.592-2.128 20.535-6.226 29.553-12.18l114.172-75.386c3.753-2.479 8.115-3.789 12.613-3.789h148.748c2.035 0 3.69 1.656 3.69 3.691 0 13.296-10.815 24.112-24.11 24.112h-18.361c-4.142 0-7.5 3.357-7.5 7.5s3.358 7.5 7.5 7.5h18.361c12.12 0 22.97-5.543 30.15-14.226 73.17 23.513 129.669 84.018 147.94 158.793.837 3.426 3.903 5.722 7.28 5.722.589 0 1.188-.07 1.786-.216 4.023-.983 6.489-5.043 5.505-9.066-19.283-78.918-78.454-142.942-155.273-168.641 1.117-3.631 1.721-7.485 1.721-11.478 0-10.307-8.384-18.691-18.69-18.691h-148.747c-7.446 0-14.666 2.169-20.879 6.271l-114.171 75.387c-7.398 4.884-15.554 8.246-24.243 9.991-4.061.816-6.691 4.77-5.875 8.831.715 3.562 3.845 6.023 7.345 6.023z"></path><path d="m415.415 456.161-56.116 37.052c-3.753 2.479-8.115 3.789-12.613 3.789h-148.748c-2.035 0-3.69-1.656-3.69-3.691 0-13.296 10.815-24.112 24.11-24.112 2.066.041 107.69-.078 109.695.041 7.228 0 14.473-2.631 20.236-7.927l68.634-63.08c3.05-2.804 3.25-7.548.447-10.598s-7.548-3.248-10.597-.447l-68.634 63.08c-3.036 2.788-6.837 4.055-10.67 3.931-3.644-.144-7.241-1.622-10.016-4.434-5.711-5.786-5.701-15.189.024-20.963l89.072-89.839c12.239-12.345 29.227-19.425 46.609-19.425 9.766 0 19.582 2.233 28.387 6.457 8.208 3.938 13.203 5.319 22.267 6.156 4.119.399 7.778-2.652 8.159-6.777s-2.653-7.777-6.778-8.158c-7.738-.589-11.88-2.136-18.846-5.524 4.466-18.357 6.735-37.278 6.735-56.339 0-6.944-.304-13.955-.902-20.838-.359-4.127-3.994-7.184-8.122-6.822-4.126.358-7.181 3.995-6.822 8.121.561 6.453.846 13.026.846 19.539 0 17.406-2.013 34.683-5.985 51.462-6.201-1.498-12.578-2.277-18.939-2.277-21.354 0-42.226 8.698-57.261 23.864l-54.679 55.15c-1.727-.534-3.478-.992-5.246-1.354l-42.01-8.584v-33.831l7.26-5.656c10.665-8.309 18.37-19.347 22.505-31.757h5.934c19.067 0 34.579-15.514 34.579-34.582v-8.493c0-6.281-2.756-11.918-7.103-15.811 5.592-24.805 1.661-51.39-11.033-73.675-13.384-23.497-35.108-40.319-61.125-47.354-3.287-.911-6.717-1.672-10.197-2.262-4.085-.693-7.956 2.059-8.648 6.142-.692 4.084 2.058 7.955 6.141 8.647 2.976.504 5.902 1.153 8.742 1.94 22.175 5.996 40.661 20.312 52.052 40.311 10.489 18.415 13.955 40.246 9.862 60.813h-15.73v-17.382c0-9.145-4.761-17.274-12.736-21.748-7.974-4.474-17.393-4.298-25.195.468l-19.475 11.896c-10.238 6.253-21.981 9.166-33.953 8.427l-21.323-1.32c-7.66-.477-15.255 2.269-20.846 7.522-3.55 3.337-6.134 7.546-7.551 12.137h-16.977c-4.093-20.567-.627-42.399 9.862-60.813 11.391-19.998 29.877-34.314 52.097-40.323 2.79-.773 5.71-1.421 8.679-1.925 4.084-.694 6.832-4.566 6.138-8.65s-4.564-6.826-8.65-6.139c-3.471.59-6.894 1.35-10.128 2.246-26.062 7.048-47.786 23.87-61.169 47.367-12.694 22.286-16.625 48.87-11.033 73.675-4.347 3.894-7.103 9.53-7.103 15.811v8.493c0 19.068 15.512 34.582 34.579 34.582h5.933c4.135 12.41 11.84 23.448 22.506 31.757l7.239 5.639v33.849l-41.992 8.583c-10.603 2.166-20.252 7.357-27.905 15.011-.143.143-.28.291-.411.445l-28.348 33.352c-15.277-11.853-29.054-25.682-40.81-41.137-29.62-38.94-45.275-85.455-45.275-134.518 0-17.022 1.928-33.932 5.729-50.363 6.459 1.631 13.12 2.476 19.762 2.476 21.354 0 42.226-8.698 57.261-23.864l89.071-89.839c9.639-9.721 11.199-24.571 4.68-35.957h30.426c4.142 0 7.5-3.357 7.5-7.5s-3.358-7.5-7.5-7.5h-54.923c-7.691-.365-15.508 2.243-21.646 7.886l-68.634 63.08c-3.05 2.804-3.25 7.548-.447 10.598s7.547 3.249 10.597.447l68.634-63.08c3.034-2.785 6.832-4.053 10.661-3.931 3.648.142 7.248 1.62 10.025 4.434 5.711 5.786 5.701 15.189-.024 20.963l-89.072 89.839c-12.239 12.345-29.227 19.425-46.609 19.425-9.766 0-19.582-2.233-28.387-6.457-8.208-3.938-13.203-5.319-22.267-6.156-4.123-.39-7.778 2.652-8.159 6.777-.381 4.125 2.653 7.777 6.778 8.158 7.533.631 11.256 1.859 18.053 5.158-4.317 18.061-6.51 36.672-6.51 55.407 0 52.37 16.714 102.025 48.336 143.599 28.971 38.087 69.44 66.931 114.613 81.874-1.326 3.924-2.055 8.12-2.055 12.485 0 10.307 8.384 18.691 18.69 18.691h148.748c7.446 0 14.666-2.169 20.878-6.272l56.115-37.052c3.457-2.282 4.409-6.935 2.126-10.392-2.281-3.453-6.934-4.407-10.389-2.124zm-182.319-80.63v-24.923c7.153 3.871 15.047 5.808 22.943 5.808 7.887 0 15.775-1.934 22.922-5.797v24.912c-14.289 7.921-31.576 7.92-45.865 0zm109.896-122.484c3.445 0 6.248 2.804 6.248 6.249v8.493c0 10.798-8.783 19.582-19.579 19.582h-2.782c.199-2.121.324-4.259.324-6.418v-27.906zm-160.574 34.325c-10.796 0-19.579-8.784-19.579-19.582v-8.493c0-3.445 2.803-6.249 6.248-6.249h15.79v27.906c0 2.159.125 4.297.324 6.418zm17.458-6.418v-34.699c0-3.604 1.446-6.946 4.071-9.414 2.423-2.278 5.529-3.507 8.82-3.507.273 0 .549.009.825.025l21.323 1.32c15.059.937 29.823-2.731 42.699-10.597l19.476-11.896c3.108-1.898 6.86-1.97 10.038-.187 3.178 1.782 5.075 5.022 5.075 8.666v60.288c0 16.273-7.362 31.342-20.199 41.341l-15.505 12.078c-12.046 9.385-28.873 9.385-40.919 0l-15.504-12.078c-12.838-9.999-20.2-25.067-20.2-41.34zm-68.243 158.87 27.38-32.214c5.534-5.456 12.477-9.159 20.095-10.717l45.055-9.209c9.84 5.856 20.851 8.793 31.866 8.793 11.014 0 22.025-2.937 31.865-8.792l40.933 8.363-22.002 22.192c-9.639 9.721-11.199 24.571-4.68 35.957h-83.786c-11.704 0-22.217 5.175-29.39 13.35-20.318-6.396-39.657-15.803-57.336-27.723z"></path><path d="m511.854 411.522c-.816-4.061-4.764-6.687-8.831-5.876-10.592 2.129-20.535 6.227-29.553 12.181l-28.847 19.048c-3.457 2.282-4.408 6.935-2.126 10.392 1.442 2.184 3.831 3.368 6.266 3.368 1.418 0 2.854-.402 4.126-1.242l28.847-19.048c7.398-4.884 15.554-8.246 24.243-9.991 4.061-.817 6.691-4.771 5.875-8.832z"></path><path d="m369.678 160.85c-4.142 0-7.5 3.357-7.5 7.5s3.358 7.5 7.5 7.5h14.299c4.142 0 7.5-3.357 7.5-7.5s-3.358-7.5-7.5-7.5z"></path><path d="m420.602 160.85c-4.142 0-7.5 3.357-7.5 7.5s3.358 7.5 7.5 7.5h14.299c4.142 0 7.5-3.357 7.5-7.5s-3.358-7.5-7.5-7.5z"></path><path d="m409.79 135.736c0-4.143-3.358-7.5-7.5-7.5s-7.5 3.357-7.5 7.5v14.3c0 4.143 3.358 7.5 7.5 7.5s7.5-3.357 7.5-7.5z"></path><path d="m402.29 179.165c-4.142 0-7.5 3.357-7.5 7.5v14.301c0 4.143 3.358 7.5 7.5 7.5s7.5-3.357 7.5-7.5v-14.301c0-4.143-3.358-7.5-7.5-7.5z"></path><path d="m85.088 332.939c-4.142 0-7.5 3.357-7.5 7.5s3.358 7.5 7.5 7.5h14.299c4.142 0 7.5-3.357 7.5-7.5s-3.358-7.5-7.5-7.5z"></path><path d="m136.012 347.939h14.299c4.142 0 7.5-3.357 7.5-7.5s-3.358-7.5-7.5-7.5h-14.299c-4.142 0-7.5 3.357-7.5 7.5s3.358 7.5 7.5 7.5z"></path><path d="m125.199 307.824c0-4.143-3.358-7.5-7.5-7.5s-7.5 3.357-7.5 7.5v14.301c0 4.143 3.358 7.5 7.5 7.5s7.5-3.357 7.5-7.5z"></path><path d="m117.699 351.253c-4.142 0-7.5 3.357-7.5 7.5v14.3c0 4.143 3.358 7.5 7.5 7.5s7.5-3.357 7.5-7.5v-14.3c0-4.142-3.358-7.5-7.5-7.5z"></path></g><g></g><g></g><g></g><g></g><g></g><g></g><g></g><g></g><g></g><g></g><g></g><g></g><g></g><g></g><g></g></svg> 