<?xml version="1.0" encoding="UTF-8"?> <svg xmlns="http://www.w3.org/2000/svg" id="Layer_1" viewBox="0 0 512 512"><path d="m71.36 144.51v33c0 7.89 6.42 14.31 14.31 14.31h162.06c7.89 0 14.31-6.42 14.31-14.31v-33c0-7.89-6.42-14.31-14.31-14.31h-162.06c-7.89 0-14.31 6.42-14.31 14.31zm178.68 0v33c0 1.25-1.06 2.31-2.31 2.31h-162.06c-1.25 0-2.31-1.06-2.31-2.31v-33c0-1.25 1.06-2.31 2.31-2.31h162.06c1.25 0 2.31 1.06 2.31 2.31zm-190.59-59.28c0-3.31 2.69-6 6-6h77.4c3.31 0 6 2.69 6 6s-2.69 6-6 6h-77.4c-3.31 0-6-2.69-6-6zm0 153.04c0-3.31 2.69-6 6-6h188.1c3.31 0 6 2.69 6 6s-2.69 6-6 6h-188.1c-3.31 0-6-2.68-6-6zm0 42.37c0-3.31 2.69-6 6-6h199.09c3.31 0 6 2.69 6 6s-2.69 6-6 6h-199.09c-3.31 0-6-2.69-6-6zm214.5 42.36c0 3.31-2.69 6-6 6h-202.5c-3.31 0-6-2.69-6-6s2.69-6 6-6h202.5c3.31 0 6 2.69 6 6zm0 42.37c0 3.31-2.69 6-6 6h-202.5c-3.31 0-6-2.69-6-6s2.69-6 6-6h202.5c3.31 0 6 2.68 6 6zm223.05-138.66c0-29.94-11.66-58.08-32.83-79.25s-49.31-32.83-79.25-32.83c-24.28 0-47.37 7.67-66.53 21.86v-39.86h-.01c0-1.56-.6-3.09-1.74-4.24l-75.63-75.63c-1.15-1.15-2.68-1.74-4.24-1.74v-.02h-197.67c-13.29 0-24.1 10.81-24.1 24.1v354.8c0 13.29 10.81 24.1 24.1 24.1h255.2c13.29 0 24.1-10.81 24.1-24.1v-76.97c11.18 8.28 23.7 14.33 37.01 17.94l-9.81 124.21c-.71 9.03 2.45 17.85 8.91 24.84 7.57 8.19 18.94 13.08 30.42 13.08 11.47 0 22.84-4.89 30.41-13.08 6.46-6.99 9.62-15.81 8.91-24.84l-9.81-124.21c18.63-5.05 35.71-14.9 49.73-28.91 21.17-21.17 32.83-49.31 32.83-79.25zm-254.24-191.22 55.15 55.15h-55.15zm63.64 358.41c0 6.67-5.43 12.1-12.1 12.1h-255.2c-6.67 0-12.1-5.43-12.1-12.1v-354.8c0-6.67 5.43-12.1 12.1-12.1h191.67v69.63c0 3.31 2.69 6 6 6h69.63v44.13c-.24.23-.48.46-.72.7-21.17 21.17-32.82 49.31-32.82 79.25s11.66 58.08 32.82 79.25c.24.24.48.47.72.7zm100.13 81.87c-5.34 5.78-13.42 9.23-21.6 9.23-8.19 0-16.26-3.45-21.6-9.23-2.94-3.19-6.33-8.5-5.76-15.75l6.6-83.59h41.53l6.6 83.59c.56 7.25-2.83 12.57-5.77 15.75zm-1.79-111.34h-39.63l2.13-27.03c5.8.91 11.7 1.39 17.68 1.39s11.89-.47 17.68-1.39zm-19.81-37.65c-26.73 0-51.86-10.41-70.76-29.31s-29.31-44.03-29.31-70.76 10.41-51.86 29.31-70.76 44.03-29.31 70.76-29.31 51.86 10.41 70.76 29.31 29.31 44.03 29.31 70.76-10.41 51.86-29.31 70.76-44.03 29.31-70.76 29.31zm62.52-162.59c-34.48-34.48-90.57-34.48-125.05 0s-34.48 90.57 0 125.05c17.24 17.24 39.88 25.86 62.52 25.86s45.29-8.62 62.52-25.86c16.7-16.7 25.9-38.91 25.9-62.52s-9.19-45.83-25.89-62.53zm-8.48 116.56c-29.8 29.8-78.28 29.8-108.08 0s-29.8-78.28 0-108.08c14.9-14.9 34.47-22.35 54.04-22.35s39.14 7.45 54.04 22.35c14.43 14.43 22.38 33.63 22.38 54.04s-7.95 39.61-22.38 54.04zm3.2-82.79h-22.91c-3.31 0-6 2.69-6 6v51.19c0 3.31 2.69 6 6 6h22.91c3.31 0 6-2.69 6-6v-51.19c0-3.31-2.68-6-6-6zm-6 51.19h-10.91v-39.19h10.91zm-39.79-75.23h-22.91c-3.31 0-6 2.69-6 6v75.23c0 3.31 2.69 6 6 6h22.91c3.31 0 6-2.69 6-6v-75.23c0-3.31-2.69-6-6-6zm-6 75.23h-10.91v-63.23h10.91zm-39.79-31.16h-22.91c-3.31 0-6 2.69-6 6v31.16c0 3.31 2.69 6 6 6h22.91c3.31 0 6-2.69 6-6v-31.16c0-3.31-2.69-6-6-6zm-6 31.16h-10.91v-19.16h10.91z"></path></svg> 