<?xml version="1.0" encoding="UTF-8"?> <svg xmlns="http://www.w3.org/2000/svg" id="Layer_1" viewBox="0 0 64 64"><g><path d="m25.51 22.63c-.24 0-.49-.09-.68-.27-.4-.38-.43-1.01-.05-1.41l3.91-4.19c.38-.4 1.01-.43 1.41-.05s.43 1.01.05 1.41l-3.91 4.19c-.2.21-.46.32-.73.32z"></path></g><g><path d="m31.14 21.66c-.24 0-.49-.09-.68-.27-.4-.38-.43-1.01-.05-1.41l3.91-4.19c.38-.4 1.01-.43 1.41-.05s.43 1.01.05 1.41l-3.91 4.19c-.19.21-.46.32-.73.32z"></path></g><g><path d="m55.94 59.69c-.55 0-1-.45-1-1v-23.63h-43.34c-.55 0-1-.45-1-1v-23.54c0-.55.45-1 1-1h43.34v-3.21h-47.46v31.39h35.48c.55 0 1 .45 1 1v19.98c0 .55-.45 1-1 1s-1-.45-1-1v-18.97h-35.48c-.55 0-1-.45-1-1v-33.4c0-.55.45-1 1-1h49.46c.55 0 1 .45 1 1v5.21c0 .55-.45 1-1 1h-43.34v21.54h43.34c.55 0 1 .45 1 1v24.62c0 .56-.45 1.01-1 1.01z"></path></g><g><path d="m61.02 59.69h-58.04c-.55 0-1-.45-1-1s.45-1 1-1h58.04c.55 0 1 .45 1 1s-.45 1-1 1z"></path></g><g><path d="m38.93 59.69c-.55 0-1-.45-1-1v-19.98c0-.55.45-1 1-1s1 .45 1 1v19.98c0 .55-.45 1-1 1z"></path></g><g><path d="m34.97 59.69c-.55 0-1-.45-1-1v-19.98c0-.55.45-1 1-1s1 .45 1 1v19.98c0 .55-.45 1-1 1z"></path></g><g><path d="m30.85 59.69c-.55 0-1-.45-1-1v-19.98c0-.55.45-1 1-1s1 .45 1 1v19.98c0 .55-.45 1-1 1z"></path></g><g><path d="m26.63 59.69c-.55 0-1-.45-1-1v-19.98c0-.55.45-1 1-1s1 .45 1 1v19.98c0 .55-.45 1-1 1z"></path></g><g><path d="m22.68 56.03c-.55 0-1-.45-1-1v-16.32c0-.55.45-1 1-1s1 .45 1 1v16.32c0 .55-.45 1-1 1z"></path></g><g><path d="m18.55 52.24c-.55 0-1-.45-1-1v-12.53c0-.55.45-1 1-1s1 .45 1 1v12.54c0 .55-.44.99-1 .99z"></path></g><g><path d="m50.85 35.06c-.55 0-1-.45-1-1v-23.54c0-.55.45-1 1-1s1 .45 1 1v23.54c0 .55-.45 1-1 1z"></path></g><g><path d="m55.94 35.06c-.55 0-1-.45-1-1v-4.24h-43.34c-.55 0-1-.45-1-1s.45-1 1-1h44.34c.55 0 1 .45 1 1v5.24c0 .55-.45 1-1 1z"></path></g><g><path d="m25.74 59.69c-.47 0-.89-.33-.98-.81-.07-.35-.77-3.33-4.08-3.08-.33.03-.64-.11-.85-.36s-.28-.59-.19-.91c.08-.29.2-1.19-.2-1.73-.28-.38-.83-.59-1.64-.62-.33-.01-.62-.18-.8-.45s-.21-.61-.09-.92c.06-.15.55-1.52-.45-2.04-.46-.23-1.1-.21-1.53.06-.32.2-.31.41-.31.48.01.31-.13.6-.36.79s-.55.27-.85.21-1.21-.13-1.69.31c-.45.41-.47 1.22-.41 1.83.06.55-.35 1.04-.9 1.1-.55.05-1.04-.35-1.1-.89-.16-1.57.2-2.76 1.07-3.53.77-.69 1.74-.85 2.46-.86.21-.45.56-.84 1.02-1.13 1.02-.64 2.43-.7 3.5-.14 1.5.77 1.79 2.19 1.68 3.34.87.22 1.54.65 2.01 1.29.52.71.66 1.53.66 2.19 3.29.32 4.71 3.11 5.01 4.69.1.54-.26 1.07-.8 1.17-.05 0-.12.01-.18.01z"></path></g><g><path d="m5.37 59.68c-.49 0-.92-.36-.99-.86-.03-.2-.24-1.98.86-3.33.37-.46 1.02-1 2.08-1.23.57-1.54 2.25-3.48 5.86-2.9.55.09.92.6.83 1.14s-.59.92-1.15.83c-3.15-.5-3.69 1.57-3.77 1.99-.08.45-.46.8-.92.83-.64.04-1.09.23-1.38.59-.47.57-.47 1.49-.43 1.8.07.54-.31 1.05-.86 1.12-.04.02-.09.02-.13.02z"></path></g></svg> 