<?xml version="1.0" encoding="UTF-8"?> <svg xmlns="http://www.w3.org/2000/svg" id="Capa_1" height="512" viewBox="0 0 303.409 303.409" width="512"><g><g><g><g><path d="m42.817 302.874c-2.63 0-4.748-2.129-4.748-4.748v-151.167c0-2.63 2.129-4.748 4.748-4.748 2.618 0 4.748 2.129 4.748 4.748v151.168c.012 2.618-2.118 4.747-4.748 4.747z"></path></g><g><path d="m260.615 302.874c-2.63 0-4.748-2.129-4.748-4.748v-151.167c0-2.63 2.129-4.748 4.748-4.748s4.748 2.129 4.748 4.748v151.168c0 2.618-2.13 4.747-4.748 4.747z"></path></g><g><path d="m275.871 166.263c-1.222 0-2.397-.465-3.281-1.315l-120.868-115.351-120.878 115.351c-.908.873-2.141 1.327-3.386 1.315-1.257-.035-2.455-.559-3.328-1.466l-19.119-20.038c-1.815-1.897-1.745-4.911.151-6.714l32.896-31.395v-72.89c0-2.63 2.129-4.748 4.748-4.748h39.145c2.63 0 4.748 2.129 4.748 4.748v26.461l61.719-58.903c1.839-1.757 4.724-1.757 6.563 0l143.267 136.727c1.897 1.815 1.967 4.817.151 6.714l-19.119 20.038c-.873.908-2.071 1.443-3.328 1.466-.012 0-.047 0-.081 0zm-124.149-127.976c1.175 0 2.362.442 3.281 1.315l120.716 115.2 12.556-13.161-136.553-130.316-66.467 63.43c-1.373 1.315-3.409 1.676-5.155.931s-2.886-2.467-2.886-4.364v-32.814h-29.637v70.179c0 1.303-.535 2.537-1.466 3.433l-30.929 29.521 12.556 13.161 120.716-115.2c.894-.885 2.081-1.315 3.268-1.315z"></path></g></g><g><g><path d="m92.319 206.804c-1.233 0-2.479-.477-3.409-1.443-7.633-7.831-11.834-18.176-11.834-29.126 0-23.017 18.723-41.751 41.751-41.751 15.674 0 29.894 8.657 37.097 22.586 1.21 2.327.291 5.201-2.036 6.4-2.327 1.21-5.201.291-6.4-2.036-5.574-10.764-16.547-17.455-28.66-17.455-17.78 0-32.244 14.464-32.244 32.244 0 8.448 3.247 16.442 9.135 22.493 1.827 1.885 1.792 4.887-.093 6.714-.922.932-2.121 1.374-3.307 1.374z"></path></g><g><path d="m211.079 206.804c-1.199 0-2.385-.442-3.316-1.35-1.885-1.827-1.92-4.841-.093-6.714 5.888-6.051 9.135-14.033 9.135-22.493 0-17.78-14.464-32.244-32.244-32.244-12.102 0-23.087 6.679-28.66 17.443-1.21 2.327-4.073 3.247-6.4 2.036-2.327-1.21-3.247-4.073-2.036-6.4 7.203-13.929 21.423-22.575 37.097-22.575 23.017 0 41.751 18.723 41.751 41.751 0 10.938-4.201 21.283-11.834 29.114-.921.955-2.155 1.432-3.4 1.432z"></path></g><g><path d="m151.699 259.052c-1.117 0-2.246-.396-3.142-1.187l-59.38-52.259c-1.967-1.734-2.164-4.736-.431-6.703 1.734-1.967 4.736-2.164 6.703-.431l56.25 49.501 56.239-49.489c1.967-1.734 4.969-1.548 6.703.431 1.734 1.967 1.548 4.969-.431 6.703l-59.38 52.259c-.885.779-2.014 1.175-3.131 1.175z"></path></g></g><g><path d="m51.359 303.409c-5.551 0-8.844-.524-9.356-.605-2.583-.442-4.329-2.897-3.887-5.481.442-2.583 2.886-4.329 5.469-3.887.477.081 48.233 7.226 104.972-42.705 1.967-1.734 4.969-1.536 6.703.431s1.548 4.969-.431 6.703c-45.859 40.366-85.923 45.544-103.47 45.544z"></path></g><g><path d="m252.051 303.409c-17.536 0-57.612-5.178-103.482-45.545-1.967-1.734-2.164-4.736-.431-6.703s4.736-2.164 6.703-.431c57.018 50.176 104.483 42.787 104.96 42.705 2.595-.442 5.039 1.303 5.481 3.887.442 2.583-1.303 5.039-3.887 5.481-.5.094-3.794.606-9.344.606z"></path></g></g></g></svg> 