<?xml version="1.0" encoding="UTF-8"?> <svg xmlns="http://www.w3.org/2000/svg" id="Layer_1" viewBox="0 0 66 66"><g><g><path d="m7.7 28.1c-.6 0-1-.4-1-1v-17.1c0-2.3 1.9-4.2 4.2-4.2.6 0 1 .4 1 1s-.4 1-1 1c-1.2 0-2.2 1-2.2 2.2v17.2c0 .5-.4.9-1 .9z"></path></g><g><path d="m52.3 19.8c-.6 0-1-.4-1-1v-13.6c0-1.2-1-2.2-2.3-2.2h-33.6c-1.2 0-2.2 1-2.2 2.2v.5h31.1c2.3 0 4.2 1.9 4.2 4.2v8c0 .6-.4 1-1 1s-1-.4-1-1v-8c0-1.2-1-2.2-2.2-2.2h-32.1c-.6 0-1-.4-1-1v-1.5c0-2.3 1.9-4.2 4.2-4.2h33.6c2.3 0 4.2 1.9 4.2 4.2v13.6c.1.6-.4 1-.9 1z"></path></g><g><g><path d="m54.1 33.7c-.1 0-.3 0-.4-.1-.5-.2-.7-.8-.5-1.3.8-1.7 1.1-3.6.8-5.5-.1-.4.1-.8.5-1l4.8-2.9-3.1-5.1-4.7 2.8c-.4.2-.8.2-1.1-.1-3.1-2.5-7.6-2.8-11-.7-4.3 2.6-5.9 7.9-3.8 12.4.2.5 0 1.1-.5 1.3s-1.1 0-1.3-.5c-2.6-5.5-.6-11.9 4.6-15 3.9-2.4 9-2.2 12.7.5l5-3c.5-.3 1.1-.1 1.4.3l4.1 6.8c.3.5.1 1.1-.3 1.4l-5.2 3.1c.2 2-.2 4.1-1.1 5.9-.1.5-.5.7-.9.7z"></path></g><g><path d="m40.3 33.7c-.2 0-.5-.1-.7-.3-.5-.5-1-1-1.3-1.6-2-3.4-.9-7.8 2.5-9.8s7.8-.9 9.8 2.5c1.7 2.8 1.3 6.4-1 8.7-.4.4-1 .4-1.4 0s-.4-1 0-1.4c1.6-1.7 2-4.3.7-6.3-1.5-2.4-4.6-3.2-7.1-1.8-2.4 1.5-3.2 4.6-1.8 7.1.3.4.6.8 1 1.2s.4 1 .1 1.4c-.2.2-.5.3-.8.3z"></path></g><g><path d="m54.2 23.6c-.3 0-.7-.2-.9-.5-.3-.5-.1-1.1.3-1.4l2.2-1.3c.5-.3 1.1-.1 1.4.3.3.5.1 1.1-.3 1.4l-2.2 1.3c-.1.2-.3.2-.5.2z"></path></g><g><path d="m54.9 24.7c-.3 0-.7-.2-.9-.5l-1.3-2.2c-.3-.5-.1-1.1.3-1.4.5-.3 1.1-.1 1.4.3l1.3 2.2c.3.5.1 1.1-.3 1.4-.1.1-.3.2-.5.2z"></path></g><g><path d="m55.1 27.7c-.1 0-.2 0-.3 0l-5.3-1.7c-.5-.2-.8-.7-.6-1.3.2-.5.7-.8 1.3-.6l5.3 1.7c.5.2.8.7.6 1.3-.2.3-.6.6-1 .6z"></path></g></g><g><path d="m57.5 65h-49c-2.8 0-5.2-2.3-5.2-5.2v-28.5c0-2.8 2.3-5.2 5.2-5.2h13.9c.3 0 .5.1.7.3l4.9 5.4 29.4-.1c1.4 0 2.7.5 3.6 1.5 1 1 1.5 2.3 1.5 3.7v23c.2 2.8-2.2 5.1-5 5.1zm-49-36.9c-1.7 0-3.2 1.4-3.2 3.2v28.6c0 1.7 1.4 3.2 3.2 3.2h49c1.7 0 3.2-1.4 3.2-3.2v-23c0-.8-.3-1.6-.9-2.2s-1.4-.9-2.2-.9l-29.8.1c-.3 0-.5-.1-.7-.3l-5.1-5.5z"></path></g><g><g><path d="m13.7 42.7c-1.6 0-3-1-3.5-2.5-.2-.5.1-1.1.6-1.3s1.1.1 1.3.6c.3.7.9 1.1 1.6 1.1s1.4-.5 1.6-1.2c.1-.4.5-.7.9-.7h6.8c.6 0 1 .4 1 1s-.4 1-1 1h-6.1c-.7 1.3-1.9 2-3.2 2z"></path></g><g><path d="m37.9 42.7c-1.3 0-2.5-.7-3.2-1.8h-6.1c-.6 0-1-.4-1-1s.4-1 1-1h6.7c.4 0 .8.3.9.7.3.7.9 1.2 1.6 1.2s1.4-.5 1.6-1.2c.2-.5.8-.8 1.3-.6s.8.8.6 1.3c-.4 1.5-1.8 2.4-3.4 2.4z"></path></g><g><path d="m30.7 61.4h-9.8c-.6 0-1-.4-1-1v-3.1c0-1.5 1.2-2.8 2.8-2.8h6.3c1.5 0 2.8 1.2 2.8 2.8v3.1c-.1.5-.5 1-1.1 1zm-8.8-2h7.8v-2.1c0-.4-.3-.8-.8-.8h-6.3c-.4 0-.8.3-.8.8v2.1z"></path></g><g><path d="m28.2 56.6h-4.8c-.6 0-1-.4-1-1v-16.8c0-1.9 1.5-3.4 3.4-3.4s3.4 1.5 3.4 3.4v16.7c0 .6-.4 1.1-1 1.1zm-3.8-2h2.8v-15.7c0-.8-.6-1.4-1.4-1.4s-1.4.6-1.4 1.4z"></path></g><g><path d="m34.9 49.5c-.1 0-.3 0-.4-.1-.5-.2-.7-.8-.5-1.3l3.3-6.8c.2-.4.5-.6.9-.6s.7.3.9.6l2.8 6.7c.2.5 0 1.1-.5 1.3s-1.1 0-1.3-.5l-2.1-4.6-2.2 4.8c-.2.3-.6.5-.9.5z"></path></g><g><path d="m37.9 53.9c-2.8 0-5.1-2.3-5.1-5.1 0-.6.4-1 1-1h8.1c.6 0 1 .4 1 1 0 2.8-2.2 5.1-5 5.1zm-2.9-4.1c.4 1.2 1.6 2.1 2.9 2.1s2.5-.9 2.9-2.1z"></path></g><g><path d="m10.8 49.5c-.1 0-.3 0-.4-.1-.5-.2-.7-.8-.5-1.3l3.3-6.8c.2-.4.5-.6.9-.6s.7.3.9.6l2.8 6.7c.2.5 0 1.1-.5 1.3s-1.1 0-1.3-.5l-2-4.6-2.3 4.8c-.2.3-.6.5-.9.5z"></path></g><g><path d="m13.8 53.9c-2.8 0-5.1-2.3-5.1-5.1 0-.6.4-1 1-1h8.1c.6 0 1 .4 1 1 0 2.8-2.2 5.1-5 5.1zm-2.9-4.1c.4 1.2 1.6 2.1 2.9 2.1s2.5-.9 2.9-2.1z"></path></g></g><g><g><path d="m41.6 13h-27.9c-.6 0-1-.4-1-1s.4-1 1-1h27.9c.6 0 1 .4 1 1s-.5 1-1 1z"></path></g><g><path d="m32.9 18.3h-19.2c-.6 0-1-.4-1-1s.4-1 1-1h19.2c.6 0 1 .4 1 1s-.4 1-1 1z"></path></g><g><path d="m24.4 23.6h-10.7c-.6 0-1-.4-1-1s.4-1 1-1h10.7c.6 0 1 .4 1 1s-.4 1-1 1z"></path></g></g><g><path d="m61.7 58.4h-11.4c-2.1 0-3.7-1.7-3.7-3.7v-12.6c0-2.1 1.7-3.7 3.7-3.7h11.4c.6 0 1 .4 1 1v18c0 .6-.5 1-1 1zm-11.4-18c-.9 0-1.7.8-1.7 1.7v12.6c0 .9.8 1.7 1.7 1.7h10.4v-16z"></path></g></g></svg> 