<?xml version="1.0" encoding="UTF-8"?> <svg xmlns="http://www.w3.org/2000/svg" id="Layer_1" viewBox="0 0 64 64" data-name="Layer 1"><path d="m8 45.94a4 4 0 1 0 -4-4 4 4 0 0 0 4 4zm0-6a2 2 0 1 1 -2 2 2 2 0 0 1 2-2z"></path><path d="m2 56.94h12a1 1 0 0 0 1-1v-4a5 5 0 0 0 -5-5h-4a5 5 0 0 0 -5 5v4a1 1 0 0 0 1 1zm1-5a3 3 0 0 1 3-3h4a3 3 0 0 1 3 3v3h-10z"></path><path d="m56 45.94a4 4 0 1 0 -4-4 4 4 0 0 0 4 4zm0-6a2 2 0 1 1 -2 2 2 2 0 0 1 2-2z"></path><path d="m58 46.94h-4a5 5 0 0 0 -5 5v4a1 1 0 0 0 1 1h12a1 1 0 0 0 1-1v-4a5 5 0 0 0 -5-5zm3 8h-10v-3a3 3 0 0 1 3-3h4a3 3 0 0 1 3 3z"></path><path d="m44 63a1 1 0 0 0 1-1v-4a5 5 0 0 0 -5-5h-4v-.52h.12a3 3 0 0 0 1.88-2.83v-2.92a2 2 0 0 0 1-1.73 2 2 0 0 0 -.14-.69l.56-1.05a4.76 4.76 0 0 0 -.11-4.72 5.28 5.28 0 0 0 -4.6-2.54h-5.42a5.28 5.28 0 0 0 -4.6 2.54 4.76 4.76 0 0 0 -.11 4.72l.56 1.05a2 2 0 0 0 -.14.69 2 2 0 0 0 1 1.73v2.92a3 3 0 0 0 1.89 2.78h.11v.57h-4a5 5 0 0 0 -5 5v4a1 1 0 0 0 1 1zm-17.56-20.49-.1-.19a2.73 2.73 0 0 1 .07-2.75 3.29 3.29 0 0 1 2.88-1.57h5.42a3.29 3.29 0 0 1 2.88 1.57 2.73 2.73 0 0 1 .07 2.75l-.1.19-.56-1.83a1 1 0 0 0 -1.24-.68l-3.76 1-3.76-1a1 1 0 0 0 -1.19.65zm.56 2.49a1 1 0 0 0 .95-.68l.71-2.13 3.1.78a1 1 0 0 0 .48 0l3.1-.78.71 2.13a1 1 0 0 0 .95.68 1 1 0 0 0 -1 1v3.65a1 1 0 0 1 -.63.92l-3 1.2a1 1 0 0 1 -.74 0l-3-1.2a1 1 0 0 1 -.63-.92v-3.65a1 1 0 0 0 -1-1zm7 8.28v.72a2 2 0 0 1 -4 0v-.72l.89.35a2.91 2.91 0 0 0 2.22 0zm-13 4.72a3 3 0 0 1 3-3h4.13a4 4 0 0 0 7.74 0h4.13a3 3 0 0 1 3 3v3h-22z"></path><path d="m12 31a1 1 0 0 0 -.8-.67l-1.54-.23-.7-1.49a1 1 0 0 0 -1.82 0l-.7 1.49-1.54.23a1 1 0 0 0 -.8.67 1 1 0 0 0 .23 1l1.15 1.18-.27 1.67a1 1 0 0 0 1.47 1l1.32-.73 1.37.76a1 1 0 0 0 .48.12 1 1 0 0 0 .58-.18 1 1 0 0 0 .41-1l-.27-1.67 1.15-1.15a1 1 0 0 0 .28-1zm-3.22 1.13a1 1 0 0 0 -.27.86v.14h-.06a1 1 0 0 0 -1 0h-.06v-.14a1 1 0 0 0 -.27-.86l-.05-.13h.15a1 1 0 0 0 .78-.6 1 1 0 0 0 .76.56h.15z"></path><path d="m60 31a1 1 0 0 0 -.8-.67l-1.54-.23-.7-1.49a1 1 0 0 0 -1.82 0l-.7 1.49-1.54.23a1 1 0 0 0 -.8.67 1 1 0 0 0 .23 1l1.15 1.18-.27 1.67a1 1 0 0 0 1.47 1l1.32-.73 1.37.76a1 1 0 0 0 .48.12 1 1 0 0 0 .58-.18 1 1 0 0 0 .41-1l-.27-1.67 1.15-1.15a1 1 0 0 0 .28-1zm-3.17 1.16a1 1 0 0 0 -.27.86v.14h-.06a1 1 0 0 0 -1 0h-.06v-.14a1 1 0 0 0 -.27-.86l-.1-.16h.15a1 1 0 0 0 .78-.6 1 1 0 0 0 .76.56h.15z"></path><path d="m23.05 13.79a1 1 0 0 0 .23 1l3.65 3.74-.86 5.29a1 1 0 0 0 1.47 1l4.46-2.41 4.46 2.47a1 1 0 0 0 .48.12 1 1 0 0 0 .58-.18 1 1 0 0 0 .41-1l-.86-5.29 3.65-3.74a1 1 0 0 0 .23-1 1 1 0 0 0 -.8-.67l-5-.76-2.24-4.78a1 1 0 0 0 -1.82 0l-2.24 4.78-5 .76a1 1 0 0 0 -.8.67zm6.63.46a1 1 0 0 0 .75-.56l1.57-3.34 1.57 3.34a1 1 0 0 0 .75.56l3.6.56-2.64 2.7a1 1 0 0 0 -.27.86l.62 3.76-3.15-1.74a1 1 0 0 0 -1 0l-3.15 1.74.67-3.76a1 1 0 0 0 -.27-.86l-2.64-2.7z"></path><path d="m16.31 20.15a15.54 15.54 0 0 0 .92 3l1.84-.77a13.92 13.92 0 0 1 -.8-2.62z"></path><path d="m17.2 10.91 1.85.76a14.05 14.05 0 0 1 1.29-2.42l-1.67-1.11a16.72 16.72 0 0 0 -1.47 2.77z"></path><path d="m16 17h2a14.28 14.28 0 0 1 .26-2.7l-2-.39a16 16 0 0 0 -.26 3.09z"></path><path d="m46 17a13.81 13.81 0 0 1 -.27 2.73l2 .39a16.36 16.36 0 0 0 .27-3.12h-.4z"></path><path d="m18.71 25.91a15.91 15.91 0 0 0 2 2.42l1.42-1.41a14.71 14.71 0 0 1 -1.75-2.12z"></path><path d="m41.86 7.07a13.62 13.62 0 0 1 1.75 2.11l1.66-1.12a15.42 15.42 0 0 0 -2-2.41z"></path><path d="m38.07 2.19-.76 1.81a14.14 14.14 0 0 1 2.43 1.29l1.1-1.67a16 16 0 0 0 -2.77-1.43z"></path><path d="m34.69 3.26.38-2a16.63 16.63 0 0 0 -3.07-.26v2a14.26 14.26 0 0 1 2.69.26z"></path><path d="m46.76 10.82-1.84.77a14.15 14.15 0 0 1 .8 2.62l2-.39a14.87 14.87 0 0 0 -.96-3z"></path><path d="m20.66 5.72 1.42 1.41a13.62 13.62 0 0 1 2.11-1.75l-1.11-1.66a15.4 15.4 0 0 0 -2.42 2z"></path><path d="m28.83 1.31a16.27 16.27 0 0 0 -3 .92l.78 1.85a13.25 13.25 0 0 1 2.62-.81z"></path><path d="m45.31 25.88a16.29 16.29 0 0 0 1.48-2.76l-1.85-.77a13.69 13.69 0 0 1 -1.29 2.42z"></path><path d="m40.9 30.3a15.91 15.91 0 0 0 2.42-2l-1.42-1.41a14.11 14.11 0 0 1 -2.11 1.75z"></path><path d="m23.13 30.32a16.24 16.24 0 0 0 2.76 1.47l.77-1.85a13.07 13.07 0 0 1 -2.42-1.29z"></path><path d="m29.28 30.74-.38 2a16 16 0 0 0 3.1.26v-2a14.49 14.49 0 0 1 -2.72-.26z"></path><path d="m34.75 30.73.38 2a15.82 15.82 0 0 0 3-.91l-.77-1.85a13.43 13.43 0 0 1 -2.61.76z"></path></svg> 